{
copyright = "Copyright (c) 2015, Cadson Demak (info@cadsondemak.com)";
customParameters = (
{
name = vendorID;
value = CDK;
},
{
name = description;
value = "Copyright (c) 2015, Cadson Demak (info@cadsondemak.com)";
},
{
name = license;

glyphs = (
{
glyphname = A;
lastChange = "2015-10-12 07:30:33 +0000";
layers = (
{
layerId = "F37480E8-8A59-4A4C-8214-0802ED2944DD";
name = Light;
paths = (
{
closed = 1;
nodes = (
"202 0 LINE",
"202 18 LINE",
"187 18 LINE SMOOTH",
"163 18 OFFCURVE",
"123 32 OFFCURVE",
"131 55 CURVE SMOOTH",
"341 624 LINE",
"552 46 LINE SMOOTH",
"558 29 OFFCURVE",
"518 18 OFFCURVE",
"494 18 CURVE SMOOTH",
"481 18 LINE",
"481 0 LINE",
"690 0 LINE",
"690 18 LINE",
"674 18 LINE SMOOTH",
"650 18 OFFCURVE",
"616 32 OFFCURVE",
"608 52 CURVE SMOOTH",
"364 709 LINE",
"325 688 LINE",
"88 52 LINE SMOOTH",
"81 33 OFFCURVE",
"45 18 OFFCURVE",
"20 18 CURVE SMOOTH",
"5 18 LINE",
"5 0 LINE"
);
},
{
closed = 1;
nodes = (
"501 224 LINE",
"501 254 LINE",
"183 254 LINE",
"183 224 LINE"
);
}
);
width = 695;
}
);
leftKerningGroup = A;
note = A;
rightKerningGroup = A;
unicode = 0041;
},
{
glyphname = Aacute;
lastChange = "2015-10-12 07:30:32 +0000";
layers = (
{
layerId = "F37480E8-8A59-4A4C-8214-0802ED2944DD";
name = Light;
paths = (
{
closed = 1;
nodes = (
"202 0 LINE",
"202 18 LINE",
"187 18 LINE SMOOTH",
"163 18 OFFCURVE",
"123 32 OFFCURVE",
"131 55 CURVE SMOOTH",
"341 624 LINE",
"552 46 LINE SMOOTH",
"558 29 OFFCURVE",
"518 18 OFFCURVE",
"494 18 CURVE SMOOTH",
"481 18 LINE",
"481 0 LINE",
"690 0 LINE",
"690 18 LINE",
"674 18 LINE SMOOTH",
"650 18 OFFCURVE",
"616 32 OFFCURVE",
"608 52 CURVE SMOOTH",
"364 709 LINE",
"325 688 LINE",
"88 52 LINE SMOOTH",
"81 33 OFFCURVE",
"45 18 OFFCURVE",
"20 18 CURVE SMOOTH",
"5 18 LINE",
"5 0 LINE"
);
},
{
closed = 1;
nodes = (
"501 224 LINE",
"501 254 LINE",
"183 254 LINE",
"183 224 LINE"
);
},
{
closed = 1;
nodes = (
"408 861 LINE SMOOTH",
"422 869 OFFCURVE",
"430 880 OFFCURVE",
"430 891 CURVE SMOOTH",
"430 902 OFFCURVE",
"422 910 OFFCURVE",
"410 910 CURVE SMOOTH",
"397 910 OFFCURVE",
"385 901 OFFCURVE",
"377 894 CURVE SMOOTH",
"267 801 LINE",
"278 786 LINE"
);
}
);
width = 695;
}
);
leftKerningGroup = A;
note = Aacute;
rightKerningGroup = A;
unicode = 00C1;
},
{
glyphname = Abreve;
lastChange = "2015-12-01 06:34:36 +0000";
layers = (
{
layerId = "F37480E8-8A59-4A4C-8214-0802ED2944DD";
name = Light;
paths = (
{
closed = 1;
nodes = (
"202 0 LINE",
"202 18 LINE",
"187 18 LINE SMOOTH",
"163 18 OFFCURVE",
"123 32 OFFCURVE",
"131 55 CURVE SMOOTH",
"341 624 LINE",
"552 46 LINE SMOOTH",
"558 29 OFFCURVE",
"518 18 OFFCURVE",
"494 18 CURVE SMOOTH",
"481 18 LINE",
"481 0 LINE",
"690 0 LINE",
"690 18 LINE",
"674 18 LINE SMOOTH",
"650 18 OFFCURVE",
"616 32 OFFCURVE",
"608 52 CURVE SMOOTH",
"364 709 LINE",
"325 688 LINE",
"88 52 LINE SMOOTH",
"81 33 OFFCURVE",
"45 18 OFFCURVE",
"20 18 CURVE SMOOTH",
"5 18 LINE",
"5 0 LINE"
);
},
{
closed = 1;
nodes = (
"501 224 LINE",
"501 254 LINE",
"183 254 LINE",
"183 224 LINE"
);
},
{
closed = 1;
nodes = (
"427 780 OFFCURVE",
"476 822 OFFCURVE",
"481 899 CURVE",
"453 899 LINE",
"445 826 OFFCURVE",
"394 812 OFFCURVE",
"347 812 CURVE SMOOTH",
"299 812 OFFCURVE",
"248 826 OFFCURVE",
"239 899 CURVE",
"212 899 LINE",
"216 821 OFFCURVE",
"266 780 OFFCURVE",
"347 780 CURVE SMOOTH"
);
}
);
width = 695;
}
);
leftKerningGroup = A;
note = Abreve;
rightKerningGroup = A;
unicode = 0102;
},
{
glyphname = Abreveacute;
lastChange = "2015-10-12 07:30:32 +0000";
layers = (
{
layerId = "F37480E8-8A59-4A4C-8214-0802ED2944DD";
name = Light;
paths = (
{
closed = 1;
nodes = (
"202 0 LINE",
"202 18 LINE",
"187 18 LINE SMOOTH",
"163 18 OFFCURVE",
"123 32 OFFCURVE",
"131 55 CURVE SMOOTH",
"341 624 LINE",
"552 46 LINE SMOOTH",
"558 29 OFFCURVE",
"518 18 OFFCURVE",
"494 18 CURVE SMOOTH",
"481 18 LINE",
"481 0 LINE",
"690 0 LINE",
"690 18 LINE",
"674 18 LINE SMOOTH",
"650 18 OFFCURVE",
"616 32 OFFCURVE",
"608 52 CURVE SMOOTH",
"364 709 LINE",
"325 688 LINE",
"88 52 LINE SMOOTH",
"81 33 OFFCURVE",
"45 18 OFFCURVE",
"20 18 CURVE SMOOTH",
"5 18 LINE",
"5 0 LINE"
);
},
{
closed = 1;
nodes = (
"501 224 LINE",
"501 254 LINE",
"183 254 LINE",
"183 224 LINE"
);
},
{
closed = 1;
nodes = (
"428 780 OFFCURVE",
"476 822 OFFCURVE",
"481 899 CURVE",
"454 899 LINE",
"446 827 OFFCURVE",
"394 812 OFFCURVE",
"347 812 CURVE SMOOTH",
"299 812 OFFCURVE",
"248 827 OFFCURVE",
"240 899 CURVE",
"212 899 LINE",
"217 821 OFFCURVE",
"266 780 OFFCURVE",
"347 780 CURVE SMOOTH"
);
},
{
closed = 1;
nodes = (
"446 959 LINE SMOOTH",
"461 967 OFFCURVE",
"469 978 OFFCURVE",
"469 988 CURVE SMOOTH",
"469 999 OFFCURVE",
"460 1008 OFFCURVE",
"447 1008 CURVE SMOOTH",
"434 1008 OFFCURVE",
"422 999 OFFCURVE",
"414 991 CURVE",
"312 902 LINE",
"323 888 LINE"
);
}
);
width = 695;
}
);
leftKerningGroup = A;
note = Abreveacute;
rightKerningGroup = A;
unicode = 1EAE;
},
{
glyphname = Abrevedotbelow;
lastChange = "2015-10-12 07:30:32 +0000";
layers = (
{
layerId = "F37480E8-8A59-4A4C-8214-0802ED2944DD";
name = Light;
paths = (
{
closed = 1;
nodes = (
"202 0 LINE",
"202 18 LINE",
"187 18 LINE SMOOTH",
"163 18 OFFCURVE",
"123 32 OFFCURVE",
"131 55 CURVE SMOOTH",
"341 624 LINE",
"552 46 LINE SMOOTH",
"558 29 OFFCURVE",
"518 18 OFFCURVE",
"494 18 CURVE SMOOTH",
"481 18 LINE",
"481 0 LINE",
"690 0 LINE",
"690 18 LINE",
"674 18 LINE SMOOTH",
"650 18 OFFCURVE",
"616 32 OFFCURVE",
"608 52 CURVE SMOOTH",
"364 709 LINE",
"325 688 LINE",
"88 52 LINE SMOOTH",
"81 33 OFFCURVE",
"45 18 OFFCURVE",
"20 18 CURVE SMOOTH",
"5 18 LINE",
"5 0 LINE"
);
},
{
closed = 1;
nodes = (
"367 -136 OFFCURVE",
"381 -122 OFFCURVE",
"381 -100 CURVE SMOOTH",
"381 -78 OFFCURVE",
"367 -64 OFFCURVE",
"346 -64 CURVE SMOOTH",
"326 -64 OFFCURVE",
"311 -78 OFFCURVE",
"311 -100 CURVE SMOOTH",
"311 -122 OFFCURVE",
"326 -136 OFFCURVE",
"346 -136 CURVE SMOOTH"
);
},
{
closed = 1;
nodes = (
"501 224 LINE",
"501 254 LINE",
"183 254 LINE",
"183 224 LINE"
);
},
{
closed = 1;
nodes = (
"427 780 OFFCURVE",
"476 822 OFFCURVE",
"481 899 CURVE",
"453 899 LINE",
"445 826 OFFCURVE",
"394 812 OFFCURVE",
"347 812 CURVE SMOOTH",
"299 812 OFFCURVE",
"248 826 OFFCURVE",
"239 899 CURVE",
"212 899 LINE",
"216 821 OFFCURVE",
"266 780 OFFCURVE",
"347 780 CURVE SMOOTH"
);
}
);
width = 695;
}
);
leftKerningGroup = A;
note = Abrevedotbelow;
rightKerningGroup = A;
unicode = 1EB6;
},
{
glyphname = Abrevegrave;
lastChange = "2015-10-12 07:30:33 +0000";
layers = (
{
layerId = "F37480E8-8A59-4A4C-8214-0802ED2944DD";
name = Light;
paths = (
{
closed = 1;
nodes = (
"202 0 LINE",
"202 18 LINE",
"187 18 LINE SMOOTH",
"163 18 OFFCURVE",
"123 32 OFFCURVE",
"131 55 CURVE SMOOTH",
"341 624 LINE",
"552 46 LINE SMOOTH",
"558 29 OFFCURVE",
"518 18 OFFCURVE",
"494 18 CURVE SMOOTH",
"481 18 LINE",
"481 0 LINE",
"690 0 LINE",
"690 18 LINE",
"674 18 LINE SMOOTH",
"650 18 OFFCURVE",
"616 32 OFFCURVE",
"608 52 CURVE SMOOTH",
"364 709 LINE",
"325 688 LINE",
"88 52 LINE SMOOTH",
"81 33 OFFCURVE",
"45 18 OFFCURVE",
"20 18 CURVE SMOOTH",
"5 18 LINE",
"5 0 LINE"
);
},
{
closed = 1;
nodes = (
"501 224 LINE",
"501 254 LINE",
"183 254 LINE",
"183 224 LINE"
);
},
{
closed = 1;
nodes = (
"428 780 OFFCURVE",
"476 822 OFFCURVE",
"481 899 CURVE",
"454 899 LINE",
"446 827 OFFCURVE",
"394 812 OFFCURVE",
"347 812 CURVE SMOOTH",
"299 812 OFFCURVE",
"248 827 OFFCURVE",
"240 899 CURVE",
"212 899 LINE",
"217 821 OFFCURVE",
"266 780 OFFCURVE",
"347 780 CURVE SMOOTH"
);
},
{
closed = 1;
nodes = (
"370 902 LINE",
"267 991 LINE",
"259 999 OFFCURVE",
"247 1008 OFFCURVE",
"234 1008 CURVE SMOOTH",
"221 1008 OFFCURVE",
"213 999 OFFCURVE",
"213 988 CURVE SMOOTH",
"213 978 OFFCURVE",
"220 967 OFFCURVE",
"235 958 CURVE SMOOTH",
"359 887 LINE"
);
}
);
width = 695;
}
);
leftKerningGroup = A;
note = Abrevegrave;
rightKerningGroup = A;
unicode = 1EB0;
},
{
glyphname = Abrevehookabove;
lastChange = "2015-10-12 07:30:33 +0000";
layers = (
{
layerId = "F37480E8-8A59-4A4C-8214-0802ED2944DD";
name = Light;
paths = (
{
closed = 1;
nodes = (
"202 0 LINE",
"202 18 LINE",
"187 18 LINE SMOOTH",
"163 18 OFFCURVE",
"123 32 OFFCURVE",
"131 55 CURVE SMOOTH",
"341 624 LINE",
"552 46 LINE SMOOTH",
"558 29 OFFCURVE",
"518 18 OFFCURVE",
"494 18 CURVE SMOOTH",
"481 18 LINE",
"481 0 LINE",
"690 0 LINE",
"690 18 LINE",
"674 18 LINE SMOOTH",
"650 18 OFFCURVE",
"616 32 OFFCURVE",
"608 52 CURVE SMOOTH",
"364 709 LINE",
"325 688 LINE",
"88 52 LINE SMOOTH",
"81 33 OFFCURVE",
"45 18 OFFCURVE",
"20 18 CURVE SMOOTH",
"5 18 LINE",
"5 0 LINE"
);
},
{
closed = 1;
nodes = (
"501 224 LINE",
"501 254 LINE",
"183 254 LINE",
"183 224 LINE"
);
},
{
closed = 1;
nodes = (
"428 780 OFFCURVE",
"476 822 OFFCURVE",
"481 899 CURVE",
"454 899 LINE",
"446 827 OFFCURVE",
"394 812 OFFCURVE",
"347 812 CURVE SMOOTH",
"299 812 OFFCURVE",
"248 827 OFFCURVE",
"240 899 CURVE",
"212 899 LINE",
"217 821 OFFCURVE",
"266 780 OFFCURVE",
"347 780 CURVE SMOOTH"
);
},
{
closed = 1;
nodes = (
"373 886 LINE",
"356 891 OFFCURVE",
"345 896 OFFCURVE",
"345 913 CURVE SMOOTH",
"345 939 OFFCURVE",
"419 948 OFFCURVE",
"419 989 CURVE SMOOTH",
"419 1022 OFFCURVE",
"382 1037 OFFCURVE",
"344 1037 CURVE SMOOTH",
"316 1037 OFFCURVE",
"274 1028 OFFCURVE",
"274 1000 CURVE SMOOTH",
"274 989 OFFCURVE",
"283 981 OFFCURVE",
"293 981 CURVE SMOOTH",
"322 981 OFFCURVE",
"308 1016 OFFCURVE",
"348 1016 CURVE SMOOTH",
"365 1016 OFFCURVE",
"378 1005 OFFCURVE",
"378 992 CURVE SMOOTH",
"378 956 OFFCURVE",
"309 948 OFFCURVE",
"309 912 CURVE SMOOTH",
"309 890 OFFCURVE",
"325 871 OFFCURVE",
"365 871 CURVE"
);
}
);
width = 695;
}
);
leftKerningGroup = A;
note = Abrevehookabove;
rightKerningGroup = A;
unicode = 1EB2;
},
{
glyphname = Abrevetilde;
lastChange = "2015-10-12 07:30:33 +0000";
layers = (
{
layerId = "F37480E8-8A59-4A4C-8214-0802ED2944DD";
name = Light;
paths = (
{
closed = 1;
nodes = (
"202 0 LINE",
"202 18 LINE",
"187 18 LINE SMOOTH",
"163 18 OFFCURVE",
"123 32 OFFCURVE",
"131 55 CURVE SMOOTH",
"341 624 LINE",
"552 46 LINE SMOOTH",
"558 29 OFFCURVE",
"518 18 OFFCURVE",
"494 18 CURVE SMOOTH",
"481 18 LINE",
"481 0 LINE",
"690 0 LINE",
"690 18 LINE",
"674 18 LINE SMOOTH",
"650 18 OFFCURVE",
"616 32 OFFCURVE",
"608 52 CURVE SMOOTH",
"364 709 LINE",
"325 688 LINE",
"88 52 LINE SMOOTH",
"81 33 OFFCURVE",
"45 18 OFFCURVE",
"20 18 CURVE SMOOTH",
"5 18 LINE",
"5 0 LINE"
);
},
{
closed = 1;
nodes = (
"501 224 LINE",
"501 254 LINE",
"183 254 LINE",
"183 224 LINE"
);
},
{
closed = 1;
nodes = (
"428 780 OFFCURVE",
"476 822 OFFCURVE",
"481 899 CURVE",
"454 899 LINE",
"446 827 OFFCURVE",
"394 812 OFFCURVE",
"347 812 CURVE SMOOTH",
"299 812 OFFCURVE",
"248 827 OFFCURVE",
"240 899 CURVE",
"212 899 LINE",
"217 821 OFFCURVE",
"266 780 OFFCURVE",
"347 780 CURVE SMOOTH"
);
},
{
closed = 1;
nodes = (
"228 984 OFFCURVE",
"246 1007 OFFCURVE",
"276 1007 CURVE SMOOTH",
"320 1007 OFFCURVE",
"365 949 OFFCURVE",
"410 949 CURVE SMOOTH",
"455 949 OFFCURVE",
"482 983 OFFCURVE",
"492 1037 CURVE",
"475 1046 LINE",
"464 1006 OFFCURVE",
"448 981 OFFCURVE",
"415 981 CURVE SMOOTH",
"374 981 OFFCURVE",
"326 1038 OFFCURVE",
"281 1038 CURVE SMOOTH",
"240 1038 OFFCURVE",
"209 1008 OFFCURVE",
"201 955 CURVE",
"217 945 LINE"
);
}
);
width = 695;
}
);
leftKerningGroup = A;
note = Abrevetilde;
rightKerningGroup = A;
unicode = 1EB4;
},
{
glyphname = Acaron;
lastChange = "2015-10-12 07:30:33 +0000";
layers = (
{
layerId = "F37480E8-8A59-4A4C-8214-0802ED2944DD";
name = Light;
paths = (
{
closed = 1;
nodes = (
"202 0 LINE",
"202 18 LINE",
"187 18 LINE SMOOTH",
"163 18 OFFCURVE",
"123 32 OFFCURVE",
"131 55 CURVE SMOOTH",
"341 624 LINE",
"552 46 LINE SMOOTH",
"558 29 OFFCURVE",
"518 18 OFFCURVE",
"494 18 CURVE SMOOTH",
"481 18 LINE",
"481 0 LINE",
"690 0 LINE",
"690 18 LINE",
"674 18 LINE SMOOTH",
"650 18 OFFCURVE",
"616 32 OFFCURVE",
"608 52 CURVE SMOOTH",
"364 709 LINE",
"325 688 LINE",
"88 52 LINE SMOOTH",
"81 33 OFFCURVE",
"45 18 OFFCURVE",
"20 18 CURVE SMOOTH",
"5 18 LINE",
"5 0 LINE"
);
},
{
closed = 1;
nodes = (
"501 224 LINE",
"501 254 LINE",
"183 254 LINE",
"183 224 LINE"
);
},
{
closed = 1;
nodes = (
"363 785 LINE",
"472 892 LINE",
"456 910 LINE",
"362 831 LINE",
"356 827 OFFCURVE",
"351 824 OFFCURVE",
"347 824 CURVE SMOOTH",
"343 824 OFFCURVE",
"338 826 OFFCURVE",
"331 831 CURVE",
"237 910 LINE",
"221 892 LINE",
"330 785 LINE"
);
}
);
width = 695;
}
);
leftKerningGroup = A;
note = Acaron;
rightKerningGroup = A;
unicode = 01CD;
},
{
glyphname = Acircumflex;
lastChange = "2015-10-12 07:30:33 +0000";
layers = (
{
layerId = "F37480E8-8A59-4A4C-8214-0802ED2944DD";
name = Light;
paths = (
{
closed = 1;
nodes = (
"202 0 LINE",
"202 18 LINE",
"187 18 LINE SMOOTH",
"163 18 OFFCURVE",
"123 32 OFFCURVE",
"131 55 CURVE SMOOTH",
"341 624 LINE",
"552 46 LINE SMOOTH",
"558 29 OFFCURVE",
"518 18 OFFCURVE",
"494 18 CURVE SMOOTH",
"481 18 LINE",
"481 0 LINE",
"690 0 LINE",
"690 18 LINE",
"674 18 LINE SMOOTH",
"650 18 OFFCURVE",
"616 32 OFFCURVE",
"608 52 CURVE SMOOTH",
"364 709 LINE",
"325 688 LINE",
"88 52 LINE SMOOTH",
"81 33 OFFCURVE",
"45 18 OFFCURVE",
"20 18 CURVE SMOOTH",
"5 18 LINE",
"5 0 LINE"
);
},
{
closed = 1;
nodes = (
"501 224 LINE",
"501 254 LINE",
"183 254 LINE",
"183 224 LINE"
);
},
{
closed = 1;
nodes = (
"331 864 LINE",
"337 868 OFFCURVE",
"343 871 OFFCURVE",
"347 871 CURVE SMOOTH",
"351 871 OFFCURVE",
"356 868 OFFCURVE",
"362 864 CURVE",
"456 785 LINE",
"472 803 LINE",
"363 910 LINE",
"330 910 LINE",
"221 803 LINE",
"237 785 LINE"
);
}
);
width = 695;
}
);
leftKerningGroup = A;
note = Acircumflex;
rightKerningGroup = A;
unicode = 00C2;
},
{
glyphname = Acircumflexacute;
lastChange = "2015-10-12 07:30:33 +0000";
layers = (
{
layerId = "F37480E8-8A59-4A4C-8214-0802ED2944DD";
name = Light;
paths = (
{
closed = 1;
nodes = (
"202 0 LINE",
"202 18 LINE",
"187 18 LINE SMOOTH",
"163 18 OFFCURVE",
"123 32 OFFCURVE",
"131 55 CURVE SMOOTH",
"341 624 LINE",
"552 46 LINE SMOOTH",
"558 29 OFFCURVE",
"518 18 OFFCURVE",
"494 18 CURVE SMOOTH",
"481 18 LINE",
"481 0 LINE",
"690 0 LINE",
"690 18 LINE",
"674 18 LINE SMOOTH",
"650 18 OFFCURVE",
"616 32 OFFCURVE",
"608 52 CURVE SMOOTH",
"364 709 LINE",
"325 688 LINE",
"88 52 LINE SMOOTH",
"81 33 OFFCURVE",
"45 18 OFFCURVE",
"20 18 CURVE SMOOTH",
"5 18 LINE",
"5 0 LINE"
);
},
{
closed = 1;
nodes = (
"501 224 LINE",
"501 254 LINE",
"183 254 LINE",
"183 224 LINE"
);
},
{
closed = 1;
nodes = (
"331 862 LINE",
"337 866 OFFCURVE",
"343 870 OFFCURVE",
"348 870 CURVE SMOOTH",
"352 870 OFFCURVE",
"357 867 OFFCURVE",
"363 863 CURVE",
"457 785 LINE",
"472 803 LINE",
"364 910 LINE",
"331 910 LINE",
"223 803 LINE",
"239 785 LINE"
);
},
{
closed = 1;
nodes = (
"571 954 LINE SMOOTH",
"586 962 OFFCURVE",
"594 974 OFFCURVE",
"594 983 CURVE SMOOTH",
"594 994 OFFCURVE",
"586 1003 OFFCURVE",
"573 1003 CURVE SMOOTH",
"560 1003 OFFCURVE",
"547 994 OFFCURVE",
"539 986 CURVE",
"437 897 LINE",
"448 883 LINE"
);
}
);
width = 695;
}
);
leftKerningGroup = A;
note = Acircumflexacute;
rightKerningGroup = A;
unicode = 1EA4;
},
{
glyphname = Acircumflexdotbelow;
lastChange = "2015-10-12 07:30:33 +0000";
layers = (
{
layerId = "F37480E8-8A59-4A4C-8214-0802ED2944DD";
name = Light;
paths = (
{
closed = 1;
nodes = (
"202 0 LINE",
"202 18 LINE",
"187 18 LINE SMOOTH",
"163 18 OFFCURVE",
"123 32 OFFCURVE",
"131 55 CURVE SMOOTH",
"341 624 LINE",
"552 46 LINE SMOOTH",
"558 29 OFFCURVE",
"518 18 OFFCURVE",
"494 18 CURVE SMOOTH",
"481 18 LINE",
"481 0 LINE",
"690 0 LINE",
"690 18 LINE",
"674 18 LINE SMOOTH",
"650 18 OFFCURVE",
"616 32 OFFCURVE",
"608 52 CURVE SMOOTH",
"364 709 LINE",
"325 688 LINE",
"88 52 LINE SMOOTH",
"81 33 OFFCURVE",
"45 18 OFFCURVE",
"20 18 CURVE SMOOTH",
"5 18 LINE",
"5 0 LINE"
);
},
{
closed = 1;
nodes = (
"367 -136 OFFCURVE",
"381 -122 OFFCURVE",
"381 -100 CURVE SMOOTH",
"381 -78 OFFCURVE",
"367 -64 OFFCURVE",
"346 -64 CURVE SMOOTH",
"326 -64 OFFCURVE",
"311 -78 OFFCURVE",
"311 -100 CURVE SMOOTH",
"311 -122 OFFCURVE",
"326 -136 OFFCURVE",
"346 -136 CURVE SMOOTH"
);
},
{
closed = 1;
nodes = (
"501 224 LINE",
"501 254 LINE",
"183 254 LINE",
"183 224 LINE"
);
},
{
closed = 1;
nodes = (
"332 863 LINE",
"338 867 OFFCURVE",
"344 870 OFFCURVE",
"348 870 CURVE SMOOTH",
"352 870 OFFCURVE",
"357 867 OFFCURVE",
"363 863 CURVE",
"457 784 LINE",
"473 802 LINE",
"364 909 LINE",
"331 909 LINE",
"222 802 LINE",
"238 784 LINE"
);
}
);
width = 695;
}
);
leftKerningGroup = A;
note = Acircumflexdotbelow;
rightKerningGroup = A;
unicode = 1EAC;
},
{
glyphname = Acircumflexgrave;
lastChange = "2015-10-12 07:30:32 +0000";
layers = (
{
layerId = "F37480E8-8A59-4A4C-8214-0802ED2944DD";
name = Light;
paths = (
{
closed = 1;
nodes = (
"202 0 LINE",
"202 18 LINE",
"187 18 LINE SMOOTH",
"163 18 OFFCURVE",
"123 32 OFFCURVE",
"131 55 CURVE SMOOTH",
"341 624 LINE",
"552 46 LINE SMOOTH",
"558 29 OFFCURVE",
"518 18 OFFCURVE",
"494 18 CURVE SMOOTH",
"481 18 LINE",
"481 0 LINE",
"690 0 LINE",
"690 18 LINE",
"674 18 LINE SMOOTH",
"650 18 OFFCURVE",
"616 32 OFFCURVE",
"608 52 CURVE SMOOTH",
"364 709 LINE",
"325 688 LINE",
"88 52 LINE SMOOTH",
"81 33 OFFCURVE",
"45 18 OFFCURVE",
"20 18 CURVE SMOOTH",
"5 18 LINE",
"5 0 LINE"
);
},
{
closed = 1;
nodes = (
"501 224 LINE",
"501 254 LINE",
"183 254 LINE",
"183 224 LINE"
);
},
{
closed = 1;
nodes = (
"269 897 LINE",
"166 986 LINE",
"158 994 OFFCURVE",
"146 1003 OFFCURVE",
"133 1003 CURVE SMOOTH",
"120 1003 OFFCURVE",
"112 994 OFFCURVE",
"112 983 CURVE SMOOTH",
"112 974 OFFCURVE",
"119 962 OFFCURVE",
"134 954 CURVE SMOOTH",
"258 883 LINE"
);
},
{
closed = 1;
nodes = (
"331 862 LINE",
"337 866 OFFCURVE",
"343 870 OFFCURVE",
"348 870 CURVE SMOOTH",
"352 870 OFFCURVE",
"357 867 OFFCURVE",
"363 863 CURVE",
"457 785 LINE",
"472 803 LINE",
"364 910 LINE",
"331 910 LINE",
"223 803 LINE",
"239 785 LINE"
);
}
);
width = 695;
}
);
leftKerningGroup = A;
note = Acircumflexgrave;
rightKerningGroup = A;
unicode = 1EA6;
},
{
glyphname = Acircumflexhookabove;
lastChange = "2015-10-12 07:30:33 +0000";
layers = (
{
layerId = "F37480E8-8A59-4A4C-8214-0802ED2944DD";
name = Light;
paths = (
{
closed = 1;
nodes = (
"202 0 LINE",
"202 18 LINE",
"187 18 LINE SMOOTH",
"163 18 OFFCURVE",
"123 32 OFFCURVE",
"131 55 CURVE SMOOTH",
"341 624 LINE",
"552 46 LINE SMOOTH",
"558 29 OFFCURVE",
"518 18 OFFCURVE",
"494 18 CURVE SMOOTH",
"481 18 LINE",
"481 0 LINE",
"690 0 LINE",
"690 18 LINE",
"674 18 LINE SMOOTH",
"650 18 OFFCURVE",
"616 32 OFFCURVE",
"608 52 CURVE SMOOTH",
"364 709 LINE",
"325 688 LINE",
"88 52 LINE SMOOTH",
"81 33 OFFCURVE",
"45 18 OFFCURVE",
"20 18 CURVE SMOOTH",
"5 18 LINE",
"5 0 LINE"
);
},
{
closed = 1;
nodes = (
"501 224 LINE",
"501 254 LINE",
"183 254 LINE",
"183 224 LINE"
);
},
{
closed = 1;
nodes = (
"320 852 LINE",
"329 860 OFFCURVE",
"339 870 OFFCURVE",
"348 870 CURVE SMOOTH",
"352 870 OFFCURVE",
"357 867 OFFCURVE",
"363 863 CURVE",
"457 785 LINE",
"472 803 LINE",
"364 910 LINE",
"331 910 LINE",
"223 803 LINE",
"239 785 LINE"
);
},
{
closed = 1;
nodes = (
"501 881 LINE",
"484 886 OFFCURVE",
"473 891 OFFCURVE",
"473 908 CURVE SMOOTH",
"473 934 OFFCURVE",
"547 943 OFFCURVE",
"547 984 CURVE SMOOTH",
"547 1017 OFFCURVE",
"510 1032 OFFCURVE",
"472 1032 CURVE SMOOTH",
"444 1032 OFFCURVE",
"402 1023 OFFCURVE",
"402 995 CURVE SMOOTH",
"402 984 OFFCURVE",
"411 976 OFFCURVE",
"421 976 CURVE SMOOTH",
"450 976 OFFCURVE",
"436 1011 OFFCURVE",
"476 1011 CURVE SMOOTH",
"493 1011 OFFCURVE",
"506 1000 OFFCURVE",
"506 987 CURVE SMOOTH",
"506 951 OFFCURVE",
"437 943 OFFCURVE",
"437 907 CURVE SMOOTH",
"437 885 OFFCURVE",
"453 866 OFFCURVE",
"493 866 CURVE"
);
}
);
width = 695;
}
);
leftKerningGroup = A;
note = Acircumflexhookabove;
rightKerningGroup = A;
unicode = 1EA8;
},
{
glyphname = Acircumflextilde;
lastChange = "2015-10-12 07:30:32 +0000";
layers = (
{
layerId = "F37480E8-8A59-4A4C-8214-0802ED2944DD";
name = Light;
paths = (
{
closed = 1;
nodes = (
"202 0 LINE",
"202 18 LINE",
"187 18 LINE SMOOTH",
"163 18 OFFCURVE",
"123 32 OFFCURVE",
"131 55 CURVE SMOOTH",
"341 624 LINE",
"552 46 LINE SMOOTH",
"558 29 OFFCURVE",
"518 18 OFFCURVE",
"494 18 CURVE SMOOTH",
"481 18 LINE",
"481 0 LINE",
"690 0 LINE",
"690 18 LINE",
"674 18 LINE SMOOTH",
"650 18 OFFCURVE",
"616 32 OFFCURVE",
"608 52 CURVE SMOOTH",
"364 709 LINE",
"325 688 LINE",
"88 52 LINE SMOOTH",
"81 33 OFFCURVE",
"45 18 OFFCURVE",
"20 18 CURVE SMOOTH",
"5 18 LINE",
"5 0 LINE"
);
},
{
closed = 1;
nodes = (
"501 224 LINE",
"501 254 LINE",
"183 254 LINE",
"183 224 LINE"
);
},
{
closed = 1;
nodes = (
"331 862 LINE",
"337 866 OFFCURVE",
"343 870 OFFCURVE",
"348 870 CURVE SMOOTH",
"352 870 OFFCURVE",
"357 867 OFFCURVE",
"363 863 CURVE",
"457 785 LINE",
"472 803 LINE",
"364 910 LINE",
"331 910 LINE",
"223 803 LINE",
"239 785 LINE"
);
},
{
closed = 1;
nodes = (
"233 979 OFFCURVE",
"251 1002 OFFCURVE",
"281 1002 CURVE SMOOTH",
"325 1002 OFFCURVE",
"370 944 OFFCURVE",
"415 944 CURVE SMOOTH",
"460 944 OFFCURVE",
"487 978 OFFCURVE",
"497 1032 CURVE",
"480 1041 LINE",
"469 1001 OFFCURVE",
"453 976 OFFCURVE",
"420 976 CURVE SMOOTH",
"379 976 OFFCURVE",
"331 1033 OFFCURVE",
"286 1033 CURVE SMOOTH",
"245 1033 OFFCURVE",
"214 1003 OFFCURVE",
"206 950 CURVE",
"222 940 LINE"
);
}
);
width = 695;
}
);
leftKerningGroup = A;
note = Acircumflextilde;
rightKerningGroup = A;
unicode = 1EAA;
},
{
glyphname = Adieresis;
lastChange = "2015-10-12 07:30:33 +0000";
layers = (
{
layerId = "F37480E8-8A59-4A4C-8214-0802ED2944DD";
name = Light;
paths = (
{
closed = 1;
nodes = (
"202 0 LINE",
"202 18 LINE",
"187 18 LINE SMOOTH",
"163 18 OFFCURVE",
"123 32 OFFCURVE",
"131 55 CURVE SMOOTH",
"341 624 LINE",
"552 46 LINE SMOOTH",
"558 29 OFFCURVE",
"518 18 OFFCURVE",
"494 18 CURVE SMOOTH",
"481 18 LINE",
"481 0 LINE",
"690 0 LINE",
"690 18 LINE",
"674 18 LINE SMOOTH",
"650 18 OFFCURVE",
"616 32 OFFCURVE",
"608 52 CURVE SMOOTH",
"364 709 LINE",
"325 688 LINE",
"88 52 LINE SMOOTH",
"81 33 OFFCURVE",
"45 18 OFFCURVE",
"20 18 CURVE SMOOTH",
"5 18 LINE",
"5 0 LINE"
);
},
{
closed = 1;
nodes = (
"501 224 LINE",
"501 254 LINE",
"183 254 LINE",
"183 224 LINE"
);
},
{
closed = 1;
nodes = (
"264 783 OFFCURVE",
"278 797 OFFCURVE",
"278 819 CURVE SMOOTH",
"278 841 OFFCURVE",
"264 855 OFFCURVE",
"243 855 CURVE SMOOTH",
"222 855 OFFCURVE",
"208 841 OFFCURVE",
"208 819 CURVE SMOOTH",
"208 797 OFFCURVE",
"222 783 OFFCURVE",
"243 783 CURVE SMOOTH"
);
},
{
closed = 1;
nodes = (
"467 783 OFFCURVE",
"481 797 OFFCURVE",
"481 819 CURVE SMOOTH",
"481 841 OFFCURVE",
"467 855 OFFCURVE",
"446 855 CURVE SMOOTH",
"425 855 OFFCURVE",
"411 841 OFFCURVE",
"411 819 CURVE SMOOTH",
"411 797 OFFCURVE",
"425 783 OFFCURVE",
"446 783 CURVE SMOOTH"
);
}
);
width = 695;
}
);
leftKerningGroup = A;
note = Adieresis;
rightKerningGroup = A;
unicode = 00C4;
},
{
glyphname = Adotbelow;
lastChange = "2015-10-12 07:30:33 +0000";
layers = (
{
layerId = "F37480E8-8A59-4A4C-8214-0802ED2944DD";
name = Light;
paths = (
{
closed = 1;
nodes = (
"202 0 LINE",
"202 18 LINE",
"187 18 LINE SMOOTH",
"163 18 OFFCURVE",
"123 32 OFFCURVE",
"131 55 CURVE SMOOTH",
"341 624 LINE",
"552 46 LINE SMOOTH",
"558 29 OFFCURVE",
"518 18 OFFCURVE",
"494 18 CURVE SMOOTH",
"481 18 LINE",
"481 0 LINE",
"690 0 LINE",
"690 18 LINE",
"674 18 LINE SMOOTH",
"650 18 OFFCURVE",
"616 32 OFFCURVE",
"608 52 CURVE SMOOTH",
"364 709 LINE",
"325 688 LINE",
"88 52 LINE SMOOTH",
"81 33 OFFCURVE",
"45 18 OFFCURVE",
"20 18 CURVE SMOOTH",
"5 18 LINE",
"5 0 LINE"
);
},
{
closed = 1;
nodes = (
"368 -136 OFFCURVE",
"382 -122 OFFCURVE",
"382 -100 CURVE SMOOTH",
"382 -78 OFFCURVE",
"368 -64 OFFCURVE",
"347 -64 CURVE SMOOTH",
"327 -64 OFFCURVE",
"312 -78 OFFCURVE",
"312 -100 CURVE SMOOTH",
"312 -122 OFFCURVE",
"327 -136 OFFCURVE",
"347 -136 CURVE SMOOTH"
);
},
{
closed = 1;
nodes = (
"501 224 LINE",
"501 254 LINE",
"183 254 LINE",
"183 224 LINE"
);
}
);
width = 695;
}
);
leftKerningGroup = A;
note = Adotbelow;
rightKerningGroup = A;
unicode = 1EA0;
},
{
glyphname = Agrave;
lastChange = "2015-10-12 07:30:33 +0000";
layers = (
{
layerId = "F37480E8-8A59-4A4C-8214-0802ED2944DD";
name = Light;
paths = (
{
closed = 1;
nodes = (
"202 0 LINE",
"202 18 LINE",
"187 18 LINE SMOOTH",
"163 18 OFFCURVE",
"123 32 OFFCURVE",
"131 55 CURVE SMOOTH",
"341 624 LINE",
"552 46 LINE SMOOTH",
"558 29 OFFCURVE",
"518 18 OFFCURVE",
"494 18 CURVE SMOOTH",
"481 18 LINE",
"481 0 LINE",
"690 0 LINE",
"690 18 LINE",
"674 18 LINE SMOOTH",
"650 18 OFFCURVE",
"616 32 OFFCURVE",
"608 52 CURVE SMOOTH",
"364 709 LINE",
"325 688 LINE",
"88 52 LINE SMOOTH",
"81 33 OFFCURVE",
"45 18 OFFCURVE",
"20 18 CURVE SMOOTH",
"5 18 LINE",
"5 0 LINE"
);
},
{
closed = 1;
nodes = (
"501 224 LINE",
"501 254 LINE",
"183 254 LINE",
"183 224 LINE"
);
},
{
closed = 1;
nodes = (
"428 801 LINE",
"318 894 LINE SMOOTH",
"309 902 OFFCURVE",
"298 910 OFFCURVE",
"286 910 CURVE SMOOTH",
"276 910 OFFCURVE",
"266 903 OFFCURVE",
"266 891 CURVE SMOOTH",
"266 879 OFFCURVE",
"275 868 OFFCURVE",
"287 861 CURVE SMOOTH",
"417 786 LINE"
);
}
);
width = 695;
}
);
leftKerningGroup = A;
note = Agrave;
rightKerningGroup = A;
unicode = 00C0;
},
{
glyphname = Ahookabove;
lastChange = "2015-10-12 07:30:32 +0000";
layers = (
{
layerId = "F37480E8-8A59-4A4C-8214-0802ED2944DD";
name = Light;
paths = (
{
closed = 1;
nodes = (
"202 0 LINE",
"202 18 LINE",
"187 18 LINE SMOOTH",
"163 18 OFFCURVE",
"123 32 OFFCURVE",
"131 55 CURVE SMOOTH",
"341 624 LINE",
"552 46 LINE SMOOTH",
"558 29 OFFCURVE",
"518 18 OFFCURVE",
"494 18 CURVE SMOOTH",
"481 18 LINE",
"481 0 LINE",
"690 0 LINE",
"690 18 LINE",
"674 18 LINE SMOOTH",
"650 18 OFFCURVE",
"616 32 OFFCURVE",
"608 52 CURVE SMOOTH",
"364 709 LINE",
"325 688 LINE",
"88 52 LINE SMOOTH",
"81 33 OFFCURVE",
"45 18 OFFCURVE",
"20 18 CURVE SMOOTH",
"5 18 LINE",
"5 0 LINE"
);
},
{
closed = 1;
nodes = (
"501 224 LINE",
"501 254 LINE",
"183 254 LINE",
"183 224 LINE"
);
},
{
closed = 1;
nodes = (
"389 795 LINE",
"371 800 OFFCURVE",
"361 804 OFFCURVE",
"361 823 CURVE SMOOTH",
"361 854 OFFCURVE",
"441 871 OFFCURVE",
"441 918 CURVE SMOOTH",
"441 956 OFFCURVE",
"408 974 OFFCURVE",
"365 974 CURVE SMOOTH",
"322 974 OFFCURVE",
"289 957 OFFCURVE",
"289 929 CURVE SMOOTH",
"289 914 OFFCURVE",
"295 908 OFFCURVE",
"306 908 CURVE SMOOTH",
"321 908 OFFCURVE",
"323 917 OFFCURVE",
"328 931 CURVE SMOOTH",
"333 946 OFFCURVE",
"350 951 OFFCURVE",
"366 951 CURVE SMOOTH",
"392 951 OFFCURVE",
"402 937 OFFCURVE",
"402 921 CURVE SMOOTH",
"402 878 OFFCURVE",
"325 866 OFFCURVE",
"325 823 CURVE SMOOTH",
"325 798 OFFCURVE",
"343 778 OFFCURVE",
"381 778 CURVE"
);
}
);
width = 695;
}
);
leftKerningGroup = A;
note = Ahookabove;
rightKerningGroup = A;
unicode = 1EA2;
},
{
glyphname = Amacron;
lastChange = "2015-10-12 07:30:33 +0000";
layers = (
{
layerId = "F37480E8-8A59-4A4C-8214-0802ED2944DD";
name = Light;
paths = (
{
closed = 1;
nodes = (
"202 0 LINE",
"202 18 LINE",
"187 18 LINE SMOOTH",
"163 18 OFFCURVE",
"123 32 OFFCURVE",
"131 55 CURVE SMOOTH",
"341 624 LINE",
"552 46 LINE SMOOTH",
"558 29 OFFCURVE",
"518 18 OFFCURVE",
"494 18 CURVE SMOOTH",
"481 18 LINE",
"481 0 LINE",
"690 0 LINE",
"690 18 LINE",
"674 18 LINE SMOOTH",
"650 18 OFFCURVE",
"616 32 OFFCURVE",
"608 52 CURVE SMOOTH",
"364 709 LINE",
"325 688 LINE",
"88 52 LINE SMOOTH",
"81 33 OFFCURVE",
"45 18 OFFCURVE",
"20 18 CURVE SMOOTH",
"5 18 LINE",
"5 0 LINE"
);
},
{
closed = 1;
nodes = (
"501 224 LINE",
"501 254 LINE",
"183 254 LINE",
"183 224 LINE"
);
},
{
closed = 1;
nodes = (
"493 785 LINE",
"493 814 LINE",
"200 814 LINE",
"200 785 LINE"
);
}
);
width = 695;
}
);
leftKerningGroup = A;
note = Amacron;
rightKerningGroup = A;
unicode = 0100;
},
{
glyphname = Aogonek;
lastChange = "2015-10-12 07:30:33 +0000";
layers = (
{
layerId = "F37480E8-8A59-4A4C-8214-0802ED2944DD";
name = Light;
paths = (
{
closed = 1;
nodes = (
"202 0 LINE",
"202 18 LINE",
"187 18 LINE SMOOTH",
"163 18 OFFCURVE",
"123 32 OFFCURVE",
"131 55 CURVE SMOOTH",
"341 624 LINE",
"552 46 LINE SMOOTH",
"558 29 OFFCURVE",
"518 18 OFFCURVE",
"494 18 CURVE SMOOTH",
"481 18 LINE",
"481 0 LINE",
"690 0 LINE",
"690 18 LINE",
"674 18 LINE SMOOTH",
"650 18 OFFCURVE",
"616 32 OFFCURVE",
"608 52 CURVE SMOOTH",
"364 709 LINE",
"325 688 LINE",
"88 52 LINE SMOOTH",
"81 33 OFFCURVE",
"45 18 OFFCURVE",
"20 18 CURVE SMOOTH",
"5 18 LINE",
"5 0 LINE"
);
},
{
closed = 1;
nodes = (
"637 -176 OFFCURVE",
"655 -172 OFFCURVE",
"678 -162 CURVE",
"676 -145 LINE",
"660 -150 OFFCURVE",
"645 -153 OFFCURVE",
"632 -153 CURVE SMOOTH",
"600 -153 OFFCURVE",
"572 -139 OFFCURVE",
"572 -100 CURVE SMOOTH",
"572 -60 OFFCURVE",
"601 -22 OFFCURVE",
"643 1 CURVE",
"612 1 LINE",
"565 -21 OFFCURVE",
"533 -58 OFFCURVE",
"533 -104 CURVE SMOOTH",
"533 -135 OFFCURVE",
"552 -176 OFFCURVE",
"614 -176 CURVE SMOOTH"
);
},
{
closed = 1;
nodes = (
"501 224 LINE",
"501 254 LINE",
"183 254 LINE",
"183 224 LINE"
);
}
);
width = 695;
}
);
leftKerningGroup = A;
note = Aogonek;
rightKerningGroup = A;
unicode = 0104;
},
{
glyphname = Aring;
lastChange = "2015-10-12 07:30:32 +0000";
layers = (
{
layerId = "F37480E8-8A59-4A4C-8214-0802ED2944DD";
name = Light;
paths = (
{
closed = 1;
nodes = (
"202 0 LINE",
"202 18 LINE",
"187 18 LINE SMOOTH",
"163 18 OFFCURVE",
"123 32 OFFCURVE",
"131 55 CURVE SMOOTH",
"341 624 LINE",
"552 46 LINE SMOOTH",
"558 29 OFFCURVE",
"518 18 OFFCURVE",
"494 18 CURVE SMOOTH",
"481 18 LINE",
"481 0 LINE",
"690 0 LINE",
"690 18 LINE",
"674 18 LINE SMOOTH",
"650 18 OFFCURVE",
"616 32 OFFCURVE",
"608 52 CURVE SMOOTH",
"364 709 LINE",
"325 688 LINE",
"88 52 LINE SMOOTH",
"81 33 OFFCURVE",
"45 18 OFFCURVE",
"20 18 CURVE SMOOTH",
"5 18 LINE",
"5 0 LINE"
);
},
{
closed = 1;
nodes = (
"501 224 LINE",
"501 254 LINE",
"183 254 LINE",
"183 224 LINE"
);
},
{
closed = 1;
nodes = (
"394 760 OFFCURVE",
"429 792 OFFCURVE",
"429 839 CURVE SMOOTH",
"429 886 OFFCURVE",
"394 918 OFFCURVE",
"347 918 CURVE SMOOTH",
"299 918 OFFCURVE",
"264 886 OFFCURVE",
"264 839 CURVE SMOOTH",
"264 792 OFFCURVE",
"299 760 OFFCURVE",
"347 760 CURVE SMOOTH"
);
},
{
closed = 1;
nodes = (
"316 784 OFFCURVE",
"294 805 OFFCURVE",
"294 839 CURVE SMOOTH",
"294 872 OFFCURVE",
"316 893 OFFCURVE",
"347 893 CURVE SMOOTH",
"377 893 OFFCURVE",
"400 872 OFFCURVE",
"400 839 CURVE SMOOTH",
"400 805 OFFCURVE",
"377 784 OFFCURVE",
"347 784 CURVE SMOOTH"
);
}
);
width = 695;
}
);
leftKerningGroup = A;
note = Aring;
rightKerningGroup = A;
unicode = 00C5;
},
{
glyphname = Aringacute;
lastChange = "2015-10-12 07:30:33 +0000";
layers = (
{
layerId = "F37480E8-8A59-4A4C-8214-0802ED2944DD";
name = Light;
paths = (
{
closed = 1;
nodes = (
"202 0 LINE",
"202 18 LINE",
"187 18 LINE SMOOTH",
"163 18 OFFCURVE",
"123 32 OFFCURVE",
"131 55 CURVE SMOOTH",
"341 624 LINE",
"552 46 LINE SMOOTH",
"558 29 OFFCURVE",
"518 18 OFFCURVE",
"494 18 CURVE SMOOTH",
"481 18 LINE",
"481 0 LINE",
"690 0 LINE",
"690 18 LINE",
"674 18 LINE SMOOTH",
"650 18 OFFCURVE",
"616 32 OFFCURVE",
"608 52 CURVE SMOOTH",
"364 709 LINE",
"325 688 LINE",
"88 52 LINE SMOOTH",
"81 33 OFFCURVE",
"45 18 OFFCURVE",
"20 18 CURVE SMOOTH",
"5 18 LINE",
"5 0 LINE"
);
},
{
closed = 1;
nodes = (
"501 224 LINE",
"501 254 LINE",
"183 254 LINE",
"183 224 LINE"
);
},
{
closed = 1;
nodes = (
"394 760 OFFCURVE",
"429 792 OFFCURVE",
"429 839 CURVE SMOOTH",
"429 886 OFFCURVE",
"394 918 OFFCURVE",
"347 918 CURVE SMOOTH",
"299 918 OFFCURVE",
"264 886 OFFCURVE",
"264 839 CURVE SMOOTH",
"264 792 OFFCURVE",
"299 760 OFFCURVE",
"347 760 CURVE SMOOTH"
);
},
{
closed = 1;
nodes = (
"316 784 OFFCURVE",
"294 805 OFFCURVE",
"294 839 CURVE SMOOTH",
"294 872 OFFCURVE",
"316 893 OFFCURVE",
"347 893 CURVE SMOOTH",
"377 893 OFFCURVE",
"400 872 OFFCURVE",
"400 839 CURVE SMOOTH",
"400 805 OFFCURVE",
"377 784 OFFCURVE",
"347 784 CURVE SMOOTH"
);
},
{
closed = 1;
nodes = (
"407 1040 LINE SMOOTH",
"421 1048 OFFCURVE",
"429 1059 OFFCURVE",
"429 1070 CURVE SMOOTH",
"429 1081 OFFCURVE",
"421 1089 OFFCURVE",
"409 1089 CURVE SMOOTH",
"396 1089 OFFCURVE",
"384 1080 OFFCURVE",
"376 1073 CURVE SMOOTH",
"266 980 LINE",
"277 965 LINE"
);
}
);
width = 695;
}
);
leftKerningGroup = A;
note = Aringacute;
rightKerningGroup = A;
unicode = 01FA;
},
{
glyphname = Atilde;
lastChange = "2015-10-12 07:30:33 +0000";
layers = (
{
layerId = "F37480E8-8A59-4A4C-8214-0802ED2944DD";
name = Light;
paths = (
{
closed = 1;
nodes = (
"202 0 LINE",
"202 18 LINE",
"187 18 LINE SMOOTH",
"163 18 OFFCURVE",
"123 32 OFFCURVE",
"131 55 CURVE SMOOTH",
"341 624 LINE",
"552 46 LINE SMOOTH",
"558 29 OFFCURVE",
"518 18 OFFCURVE",
"494 18 CURVE SMOOTH",
"481 18 LINE",
"481 0 LINE",
"690 0 LINE",
"690 18 LINE",
"674 18 LINE SMOOTH",
"650 18 OFFCURVE",
"616 32 OFFCURVE",
"608 52 CURVE SMOOTH",
"364 709 LINE",
"325 688 LINE",
"88 52 LINE SMOOTH",
"81 33 OFFCURVE",
"45 18 OFFCURVE",
"20 18 CURVE SMOOTH",
"5 18 LINE",
"5 0 LINE"
);
},
{
closed = 1;
nodes = (
"501 224 LINE",
"501 254 LINE",
"183 254 LINE",
"183 224 LINE"
);
},
{
closed = 1;
nodes = (
"228 822 OFFCURVE",
"247 845 OFFCURVE",
"277 845 CURVE SMOOTH",
"321 845 OFFCURVE",
"367 787 OFFCURVE",
"413 787 CURVE SMOOTH",
"459 787 OFFCURVE",
"487 821 OFFCURVE",
"497 875 CURVE",
"480 884 LINE",
"468 844 OFFCURVE",
"452 819 OFFCURVE",
"419 819 CURVE SMOOTH",
"377 819 OFFCURVE",
"328 876 OFFCURVE",
"282 876 CURVE SMOOTH",
"240 876 OFFCURVE",
"209 847 OFFCURVE",
"200 793 CURVE",
"217 784 LINE"
);
}
);
width = 695;
}
);
leftKerningGroup = A;
note = Atilde;
rightKerningGroup = A;
unicode = 00C3;
},
{
glyphname = AE;
lastChange = "2015-10-12 07:30:33 +0000";
layers = (
{
layerId = "F37480E8-8A59-4A4C-8214-0802ED2944DD";
name = Light;
paths = (
{
closed = 1;
nodes = (
"205 0 LINE",
"205 18 LINE",
"190 18 LINE SMOOTH",
"174 18 OFFCURVE",
"118 28 OFFCURVE",
"137 59 CURVE SMOOTH",
"237 224 LINE",
"502 224 LINE",
"502 52 LINE SMOOTH",
"502 27 OFFCURVE",
"476 18 OFFCURVE",
"448 18 CURVE SMOOTH",
"429 18 LINE",
"429 0 LINE",
"890 0 LINE",
"905 170 LINE",
"888 170 LINE",
"884 123 OFFCURVE",
"866 29 OFFCURVE",
"806 29 CURVE SMOOTH",
"556 29 LINE",
"556 356 LINE",
"735 356 LINE SMOOTH",
"779 356 OFFCURVE",
"782 308 OFFCURVE",
"786 255 CURVE",
"803 255 LINE",
"803 487 LINE",
"786 487 LINE",
"782 434 OFFCURVE",
"779 386 OFFCURVE",
"735 386 CURVE SMOOTH",
"556 386 LINE",
"556 670 LINE",
"798 670 LINE SMOOTH",
"863 670 OFFCURVE",
"871 581 OFFCURVE",
"873 539 CURVE",
"890 539 LINE",
"890 700 LINE",
"420 700 LINE",
"420 681 LINE",
"448 681 LINE SMOOTH",
"463 681 OFFCURVE",
"466 666 OFFCURVE",
"461 657 CURVE",
"113 88 LINE SMOOTH",
"93 55 OFFCURVE",
"68 18 OFFCURVE",
"23 18 CURVE SMOOTH",
"9 18 LINE",
"9 0 LINE"
);
},
{
closed = 1;
nodes = (
"502 656 LINE",
"502 254 LINE",
"254 254 LINE"
);
}
);
width = 944;
}
);
leftKerningGroup = A;
note = AE;
unicode = 00C6;
},
{
glyphname = AEacute;
lastChange = "2015-10-12 07:30:32 +0000";
layers = (
{
layerId = "F37480E8-8A59-4A4C-8214-0802ED2944DD";
name = Light;
paths = (
{
closed = 1;
nodes = (
"205 0 LINE",
"205 18 LINE",
"190 18 LINE SMOOTH",
"174 18 OFFCURVE",
"118 28 OFFCURVE",
"137 59 CURVE SMOOTH",
"237 224 LINE",
"502 224 LINE",
"502 52 LINE SMOOTH",
"502 27 OFFCURVE",
"476 18 OFFCURVE",
"448 18 CURVE SMOOTH",
"429 18 LINE",
"429 0 LINE",
"890 0 LINE",
"905 170 LINE",
"888 170 LINE",
"884 123 OFFCURVE",
"866 29 OFFCURVE",
"806 29 CURVE SMOOTH",
"556 29 LINE",
"556 356 LINE",
"735 356 LINE SMOOTH",
"779 356 OFFCURVE",
"782 308 OFFCURVE",
"786 255 CURVE",
"803 255 LINE",
"803 487 LINE",
"786 487 LINE",
"782 434 OFFCURVE",
"779 386 OFFCURVE",
"735 386 CURVE SMOOTH",
"556 386 LINE",
"556 670 LINE",
"798 670 LINE SMOOTH",
"863 670 OFFCURVE",
"871 581 OFFCURVE",
"873 539 CURVE",
"890 539 LINE",
"890 700 LINE",
"420 700 LINE",
"420 681 LINE",
"448 681 LINE SMOOTH",
"463 681 OFFCURVE",
"466 666 OFFCURVE",
"461 657 CURVE",
"113 88 LINE SMOOTH",
"93 55 OFFCURVE",
"68 18 OFFCURVE",
"23 18 CURVE SMOOTH",
"9 18 LINE",
"9 0 LINE"
);
},
{
closed = 1;
nodes = (
"502 656 LINE",
"502 254 LINE",
"254 254 LINE"
);
},
{
closed = 1;
nodes = (
"763 861 LINE SMOOTH",
"777 869 OFFCURVE",
"785 880 OFFCURVE",
"785 891 CURVE SMOOTH",
"785 902 OFFCURVE",
"777 910 OFFCURVE",
"765 910 CURVE SMOOTH",
"752 910 OFFCURVE",
"740 901 OFFCURVE",
"732 894 CURVE SMOOTH",
"622 801 LINE",
"633 786 LINE"
);
}
);
width = 944;
}
);
leftKerningGroup = A;
note = AEacute;
unicode = 01FC;
},
{
glyphname = B;
lastChange = "2015-10-12 07:30:33 +0000";
layers = (
{
layerId = "F37480E8-8A59-4A4C-8214-0802ED2944DD";
name = Light;
paths = (
{
closed = 1;
nodes = (
"328 0 LINE SMOOTH",
"460 0 OFFCURVE",
"539 66 OFFCURVE",
"539 187 CURVE SMOOTH",
"539 261 OFFCURVE",
"511 347 OFFCURVE",
"373 367 CURVE",
"373 368 OFFCURVE",
"373 370 OFFCURVE",
"373 370 CURVE",
"452 392 OFFCURVE",
"497 459 OFFCURVE",
"497 534 CURVE SMOOTH",
"497 642 OFFCURVE",
"422 700 OFFCURVE",
"300 700 CURVE SMOOTH",
"21 700 LINE",
"21 681 LINE",
"49 681 LINE SMOOTH",
"88 681 OFFCURVE",
"109 672 OFFCURVE",
"109 647 CURVE SMOOTH",
"109 52 LINE SMOOTH",
"109 27 OFFCURVE",
"88 18 OFFCURVE",
"49 18 CURVE SMOOTH",
"21 18 LINE",
"21 0 LINE"
);
},
{
closed = 1;
nodes = (
"163 351 LINE",
"290 351 LINE SMOOTH",
"428 351 OFFCURVE",
"489 295 OFFCURVE",
"489 188 CURVE SMOOTH",
"489 87 OFFCURVE",
"426 29 OFFCURVE",
"293 29 CURVE SMOOTH",
"163 29 LINE"
);
},
{
closed = 1;
nodes = (
"163 670 LINE",
"270 670 LINE SMOOTH",
"387 670 OFFCURVE",
"445 629 OFFCURVE",
"445 534 CURVE SMOOTH",
"445 444 OFFCURVE",
"381 380 OFFCURVE",
"284 380 CURVE SMOOTH",
"163 380 LINE"
);
}
);
width = 571;
}
);
note = B;
unicode = 0042;
},
{
glyphname = C;
lastChange = "2015-10-12 07:30:31 +0000";
layers = (
{
layerId = "F37480E8-8A59-4A4C-8214-0802ED2944DD";
name = Light;
paths = (
{
closed = 1;
nodes = (
"487 -10 OFFCURVE",
"590 53 OFFCURVE",
"614 169 CURVE",
"586 169 LINE",
"557 63 OFFCURVE",
"453 19 OFFCURVE",
"369 19 CURVE SMOOTH",
"182 19 OFFCURVE",
"101 157 OFFCURVE",
"101 350 CURVE SMOOTH",
"101 544 OFFCURVE",
"192 680 OFFCURVE",
"377 680 CURVE SMOOTH",
"489 680 OFFCURVE",
"572 619 OFFCURVE",
"581 525 CURVE",
"600 525 LINE",
"600 705 LINE",
"574 705 LINE",
"574 662 LINE SMOOTH",
"574 649 OFFCURVE",
"570 644 OFFCURVE",
"565 644 CURVE SMOOTH",
"562 644 OFFCURVE",
"559 647 OFFCURVE",
"556 649 CURVE",
"530 669 OFFCURVE",
"465 710 OFFCURVE",
"370 710 CURVE SMOOTH",
"171 710 OFFCURVE",
"47 580 OFFCURVE",
"47 350 CURVE SMOOTH",
"47 119 OFFCURVE",
"161 -10 OFFCURVE",
"358 -10 CURVE SMOOTH"
);
}
);
width = 644;
}
);
leftKerningGroup = C;
note = C;
unicode = 0043;
},
{
glyphname = Cacute;
lastChange = "2015-10-12 07:30:32 +0000";
layers = (
{
layerId = "F37480E8-8A59-4A4C-8214-0802ED2944DD";
name = Light;
paths = (
{
closed = 1;
nodes = (
"487 -10 OFFCURVE",
"590 53 OFFCURVE",
"614 169 CURVE",
"586 169 LINE",
"557 63 OFFCURVE",
"453 19 OFFCURVE",
"369 19 CURVE SMOOTH",
"182 19 OFFCURVE",
"101 157 OFFCURVE",
"101 350 CURVE SMOOTH",
"101 544 OFFCURVE",
"192 680 OFFCURVE",
"377 680 CURVE SMOOTH",
"489 680 OFFCURVE",
"572 619 OFFCURVE",
"581 525 CURVE",
"600 525 LINE",
"600 705 LINE",
"574 705 LINE",
"574 662 LINE SMOOTH",
"574 649 OFFCURVE",
"570 644 OFFCURVE",
"565 644 CURVE SMOOTH",
"562 644 OFFCURVE",
"559 647 OFFCURVE",
"556 649 CURVE",
"530 669 OFFCURVE",
"465 710 OFFCURVE",
"370 710 CURVE SMOOTH",
"171 710 OFFCURVE",
"47 580 OFFCURVE",
"47 350 CURVE SMOOTH",
"47 119 OFFCURVE",
"161 -10 OFFCURVE",
"358 -10 CURVE SMOOTH"
);
},
{
closed = 1;
nodes = (
"420 861 LINE SMOOTH",
"434 869 OFFCURVE",
"442 880 OFFCURVE",
"442 891 CURVE SMOOTH",
"442 902 OFFCURVE",
"434 910 OFFCURVE",
"422 910 CURVE SMOOTH",
"409 910 OFFCURVE",
"397 901 OFFCURVE",
"389 894 CURVE SMOOTH",
"279 801 LINE",
"290 786 LINE"
);
}
);
width = 644;
}
);
leftKerningGroup = C;
note = Cacute;
unicode = 0106;
},
{
glyphname = Ccaron;
lastChange = "2015-10-12 07:30:32 +0000";
layers = (
{
layerId = "F37480E8-8A59-4A4C-8214-0802ED2944DD";
name = Light;
paths = (
{
closed = 1;
nodes = (
"487 -10 OFFCURVE",
"590 53 OFFCURVE",
"614 169 CURVE",
"586 169 LINE",
"557 63 OFFCURVE",
"453 19 OFFCURVE",
"369 19 CURVE SMOOTH",
"182 19 OFFCURVE",
"101 157 OFFCURVE",
"101 350 CURVE SMOOTH",
"101 544 OFFCURVE",
"192 680 OFFCURVE",
"377 680 CURVE SMOOTH",
"489 680 OFFCURVE",
"572 619 OFFCURVE",
"581 525 CURVE",
"600 525 LINE",
"600 705 LINE",
"574 705 LINE",
"574 662 LINE SMOOTH",
"574 649 OFFCURVE",
"570 644 OFFCURVE",
"565 644 CURVE SMOOTH",
"562 644 OFFCURVE",
"559 647 OFFCURVE",
"556 649 CURVE",
"530 669 OFFCURVE",
"465 710 OFFCURVE",
"370 710 CURVE SMOOTH",
"171 710 OFFCURVE",
"47 580 OFFCURVE",
"47 350 CURVE SMOOTH",
"47 119 OFFCURVE",
"161 -10 OFFCURVE",
"358 -10 CURVE SMOOTH"
);
},
{
closed = 1;
nodes = (
"372 785 LINE",
"481 892 LINE",
"465 910 LINE",
"371 831 LINE",
"365 827 OFFCURVE",
"360 824 OFFCURVE",
"356 824 CURVE SMOOTH",
"352 824 OFFCURVE",
"347 826 OFFCURVE",
"340 831 CURVE",
"246 910 LINE",
"230 892 LINE",
"339 785 LINE"
);
}
);
width = 644;
}
);
leftKerningGroup = C;
note = Ccaron;
unicode = 010C;
},
{
glyphname = Ccedilla;
lastChange = "2015-10-12 07:30:33 +0000";
layers = (
{
layerId = "F37480E8-8A59-4A4C-8214-0802ED2944DD";
name = Light;
paths = (
{
closed = 1;
nodes = (
"487 -10 OFFCURVE",
"590 53 OFFCURVE",
"614 169 CURVE",
"586 169 LINE",
"557 63 OFFCURVE",
"453 19 OFFCURVE",
"369 19 CURVE SMOOTH",
"182 19 OFFCURVE",
"101 157 OFFCURVE",
"101 350 CURVE SMOOTH",
"101 544 OFFCURVE",
"192 680 OFFCURVE",
"377 680 CURVE SMOOTH",
"489 680 OFFCURVE",
"572 619 OFFCURVE",
"581 525 CURVE",
"600 525 LINE",
"600 705 LINE",
"574 705 LINE",
"574 662 LINE SMOOTH",
"574 649 OFFCURVE",
"570 644 OFFCURVE",
"565 644 CURVE SMOOTH",
"562 644 OFFCURVE",
"559 647 OFFCURVE",
"556 649 CURVE",
"530 669 OFFCURVE",
"465 710 OFFCURVE",
"370 710 CURVE SMOOTH",
"171 710 OFFCURVE",
"47 580 OFFCURVE",
"47 350 CURVE SMOOTH",
"47 119 OFFCURVE",
"161 -10 OFFCURVE",
"358 -10 CURVE SMOOTH"
);
},
{
closed = 1;
nodes = (
"379 -197 OFFCURVE",
"432 -178 OFFCURVE",
"432 -123 CURVE SMOOTH",
"432 -83 OFFCURVE",
"396 -66 OFFCURVE",
"358 -65 CURVE",
"351 -64 OFFCURVE",
"343 -64 OFFCURVE",
"337 -65 CURVE",
"369 3 LINE",
"336 3 LINE",
"296 -75 LINE",
"308 -90 LINE",
"318 -89 OFFCURVE",
"331 -89 OFFCURVE",
"345 -90 CURVE SMOOTH",
"369 -91 OFFCURVE",
"392 -99 OFFCURVE",
"392 -123 CURVE SMOOTH",
"392 -163 OFFCURVE",
"359 -172 OFFCURVE",
"313 -172 CURVE",
"302 -171 OFFCURVE",
"288 -171 OFFCURVE",
"277 -169 CURVE",
"269 -191 LINE",
"282 -194 OFFCURVE",
"297 -197 OFFCURVE",
"313 -197 CURVE SMOOTH"
);
}
);
width = 644;
}
);
leftKerningGroup = C;
note = Ccedilla;
unicode = 00C7;
},
{
glyphname = Ccircumflex;
lastChange = "2015-10-12 07:30:33 +0000";
layers = (
{
layerId = "F37480E8-8A59-4A4C-8214-0802ED2944DD";
name = Light;
paths = (
{
closed = 1;
nodes = (
"487 -10 OFFCURVE",
"590 53 OFFCURVE",
"614 169 CURVE",
"586 169 LINE",
"557 63 OFFCURVE",
"453 19 OFFCURVE",
"369 19 CURVE SMOOTH",
"182 19 OFFCURVE",
"101 157 OFFCURVE",
"101 350 CURVE SMOOTH",
"101 544 OFFCURVE",
"192 680 OFFCURVE",
"377 680 CURVE SMOOTH",
"489 680 OFFCURVE",
"572 619 OFFCURVE",
"581 525 CURVE",
"600 525 LINE",
"600 705 LINE",
"574 705 LINE",
"574 662 LINE SMOOTH",
"574 649 OFFCURVE",
"570 644 OFFCURVE",
"565 644 CURVE SMOOTH",
"562 644 OFFCURVE",
"559 647 OFFCURVE",
"556 649 CURVE",
"530 669 OFFCURVE",
"465 710 OFFCURVE",
"370 710 CURVE SMOOTH",
"171 710 OFFCURVE",
"47 580 OFFCURVE",
"47 350 CURVE SMOOTH",
"47 119 OFFCURVE",
"161 -10 OFFCURVE",
"358 -10 CURVE SMOOTH"
);
},
{
closed = 1;
nodes = (
"340 864 LINE",
"346 868 OFFCURVE",
"352 871 OFFCURVE",
"356 871 CURVE SMOOTH",
"360 871 OFFCURVE",
"365 868 OFFCURVE",
"371 864 CURVE",
"465 785 LINE",
"481 803 LINE",
"372 910 LINE",
"339 910 LINE",
"230 803 LINE",
"246 785 LINE"
);
}
);
width = 644;
}
);
leftKerningGroup = C;
note = Ccircumflex;
unicode = 0108;
},
{
glyphname = Cdotaccent;
lastChange = "2015-10-12 07:30:32 +0000";
layers = (
{
layerId = "F37480E8-8A59-4A4C-8214-0802ED2944DD";
name = Light;
paths = (
{
closed = 1;
nodes = (
"487 -10 OFFCURVE",
"590 53 OFFCURVE",
"614 169 CURVE",
"586 169 LINE",
"557 63 OFFCURVE",
"453 19 OFFCURVE",
"369 19 CURVE SMOOTH",
"182 19 OFFCURVE",
"101 157 OFFCURVE",
"101 350 CURVE SMOOTH",
"101 544 OFFCURVE",
"192 680 OFFCURVE",
"377 680 CURVE SMOOTH",
"489 680 OFFCURVE",
"572 619 OFFCURVE",
"581 525 CURVE",
"600 525 LINE",
"600 705 LINE",
"574 705 LINE",
"574 662 LINE SMOOTH",
"574 649 OFFCURVE",
"570 644 OFFCURVE",
"565 644 CURVE SMOOTH",
"562 644 OFFCURVE",
"559 647 OFFCURVE",
"556 649 CURVE",
"530 669 OFFCURVE",
"465 710 OFFCURVE",
"370 710 CURVE SMOOTH",
"171 710 OFFCURVE",
"47 580 OFFCURVE",
"47 350 CURVE SMOOTH",
"47 119 OFFCURVE",
"161 -10 OFFCURVE",
"358 -10 CURVE SMOOTH"
);
},
{
closed = 1;
nodes = (
"396 761 OFFCURVE",
"410 774 OFFCURVE",
"410 796 CURVE SMOOTH",
"410 818 OFFCURVE",
"396 832 OFFCURVE",
"376 832 CURVE SMOOTH",
"355 832 OFFCURVE",
"341 818 OFFCURVE",
"341 796 CURVE SMOOTH",
"341 774 OFFCURVE",
"355 761 OFFCURVE",
"376 761 CURVE SMOOTH"
);
}
);
width = 644;
}
);
leftKerningGroup = C;
note = Cdotaccent;
unicode = 010A;
},
{
glyphname = D;
lastChange = "2015-10-12 07:30:32 +0000";
layers = (
{
layerId = "F37480E8-8A59-4A4C-8214-0802ED2944DD";
name = Light;
paths = (
{
closed = 1;
nodes = (
"314 0 LINE SMOOTH",
"508 0 OFFCURVE",
"608 125 OFFCURVE",
"608 350 CURVE SMOOTH",
"608 574 OFFCURVE",
"509 700 OFFCURVE",
"315 700 CURVE SMOOTH",
"21 700 LINE",
"21 681 LINE",
"49 681 LINE SMOOTH",
"87 681 OFFCURVE",
"109 672 OFFCURVE",
"109 647 CURVE SMOOTH",
"109 52 LINE SMOOTH",
"109 27 OFFCURVE",
"87 18 OFFCURVE",
"49 18 CURVE SMOOTH",
"21 18 LINE",
"21 0 LINE"
);
},
{
closed = 1;
nodes = (
"163 672 LINE",
"314 672 LINE SMOOTH",
"479 672 OFFCURVE",
"555 545 OFFCURVE",
"555 350 CURVE SMOOTH",
"555 154 OFFCURVE",
"478 27 OFFCURVE",
"312 27 CURVE SMOOTH",
"163 27 LINE"
);
}
);
width = 649;
}
);
note = D;
rightKerningGroup = D;
unicode = 0044;
},
{
glyphname = Eth;
lastChange = "2015-12-01 06:35:43 +0000";
layers = (
{
layerId = "F37480E8-8A59-4A4C-8214-0802ED2944DD";
name = Light;
paths = (
{
closed = 1;
nodes = (
"314 0 LINE SMOOTH",
"508 0 OFFCURVE",
"608 125 OFFCURVE",
"608 350 CURVE SMOOTH",
"608 574 OFFCURVE",
"509 700 OFFCURVE",
"315 700 CURVE SMOOTH",
"21 700 LINE",
"21 681 LINE",
"49 681 LINE SMOOTH",
"87 681 OFFCURVE",
"109 672 OFFCURVE",
"109 647 CURVE SMOOTH",
"109 52 LINE SMOOTH",
"109 27 OFFCURVE",
"87 18 OFFCURVE",
"49 18 CURVE SMOOTH",
"21 18 LINE",
"21 0 LINE"
);
},
{
closed = 1;
nodes = (
"163 672 LINE",
"314 672 LINE SMOOTH",
"479 672 OFFCURVE",
"555 545 OFFCURVE",
"555 350 CURVE SMOOTH",
"555 154 OFFCURVE",
"478 27 OFFCURVE",
"312 27 CURVE SMOOTH",
"163 27 LINE"
);
},
{
closed = 1;
nodes = (
"384 341 LINE",
"384 371 LINE",
"33 371 LINE",
"33 341 LINE"
);
}
);
width = 649;
}
);
note = Eth;
rightKerningGroup = D;
unicode = 00D0;
},
{
glyphname = Dcaron;
lastChange = "2015-10-12 07:30:32 +0000";
layers = (
{
layerId = "F37480E8-8A59-4A4C-8214-0802ED2944DD";
name = Light;
paths = (
{
closed = 1;
nodes = (
"314 0 LINE SMOOTH",
"508 0 OFFCURVE",
"608 125 OFFCURVE",
"608 350 CURVE SMOOTH",
"608 574 OFFCURVE",
"509 700 OFFCURVE",
"315 700 CURVE SMOOTH",
"21 700 LINE",
"21 681 LINE",
"49 681 LINE SMOOTH",
"87 681 OFFCURVE",
"109 672 OFFCURVE",
"109 647 CURVE SMOOTH",
"109 52 LINE SMOOTH",
"109 27 OFFCURVE",
"87 18 OFFCURVE",
"49 18 CURVE SMOOTH",
"21 18 LINE",
"21 0 LINE"
);
},
{
closed = 1;
nodes = (
"163 672 LINE",
"314 672 LINE SMOOTH",
"479 672 OFFCURVE",
"555 545 OFFCURVE",
"555 350 CURVE SMOOTH",
"555 154 OFFCURVE",
"478 27 OFFCURVE",
"312 27 CURVE SMOOTH",
"163 27 LINE"
);
},
{
closed = 1;
nodes = (
"335 785 LINE",
"444 892 LINE",
"428 910 LINE",
"334 831 LINE",
"328 827 OFFCURVE",
"323 824 OFFCURVE",
"319 824 CURVE SMOOTH",
"315 824 OFFCURVE",
"310 826 OFFCURVE",
"303 831 CURVE",
"209 910 LINE",
"193 892 LINE",
"302 785 LINE"
);
}
);
width = 649;
}
);
note = Dcaron;
rightKerningGroup = D;
unicode = 010E;
},
{
glyphname = Dcroat;
lastChange = "2015-12-01 06:35:47 +0000";
layers = (
{
layerId = "F37480E8-8A59-4A4C-8214-0802ED2944DD";
name = Light;
paths = (
{
closed = 1;
nodes = (
"314 0 LINE SMOOTH",
"508 0 OFFCURVE",
"608 125 OFFCURVE",
"608 350 CURVE SMOOTH",
"608 574 OFFCURVE",
"509 700 OFFCURVE",
"315 700 CURVE SMOOTH",
"21 700 LINE",
"21 681 LINE",
"49 681 LINE SMOOTH",
"87 681 OFFCURVE",
"109 672 OFFCURVE",
"109 647 CURVE SMOOTH",
"109 52 LINE SMOOTH",
"109 27 OFFCURVE",
"87 18 OFFCURVE",
"49 18 CURVE SMOOTH",
"21 18 LINE",
"21 0 LINE"
);
},
{
closed = 1;
nodes = (
"163 672 LINE",
"314 672 LINE SMOOTH",
"479 672 OFFCURVE",
"555 545 OFFCURVE",
"555 350 CURVE SMOOTH",
"555 154 OFFCURVE",
"478 27 OFFCURVE",
"312 27 CURVE SMOOTH",
"163 27 LINE"
);
},
{
closed = 1;
nodes = (
"384 341 LINE",
"384 371 LINE",
"33 371 LINE",
"33 341 LINE"
);
}
);
width = 649;
}
);
note = Dcroat;
rightKerningGroup = D;
unicode = 0110;
},
{
glyphname = Ddotbelow;
lastChange = "2015-12-01 06:35:50 +0000";
layers = (
{
layerId = "F37480E8-8A59-4A4C-8214-0802ED2944DD";
name = Light;
paths = (
{
closed = 1;
nodes = (
"314 0 LINE SMOOTH",
"508 0 OFFCURVE",
"608 125 OFFCURVE",
"608 350 CURVE SMOOTH",
"608 574 OFFCURVE",
"509 700 OFFCURVE",
"315 700 CURVE SMOOTH",
"21 700 LINE",
"21 681 LINE",
"49 681 LINE SMOOTH",
"87 681 OFFCURVE",
"109 672 OFFCURVE",
"109 647 CURVE SMOOTH",
"109 52 LINE SMOOTH",
"109 27 OFFCURVE",
"87 18 OFFCURVE",
"49 18 CURVE SMOOTH",
"21 18 LINE",
"21 0 LINE"
);
},
{
closed = 1;
nodes = (
"163 672 LINE",
"314 672 LINE SMOOTH",
"479 672 OFFCURVE",
"555 545 OFFCURVE",
"555 350 CURVE SMOOTH",
"555 154 OFFCURVE",
"478 27 OFFCURVE",
"312 27 CURVE SMOOTH",
"163 27 LINE"
);
},
{
closed = 1;
nodes = (
"272 -122 OFFCURVE",
"287 -136 OFFCURVE",
"307 -136 CURVE SMOOTH",
"328 -136 OFFCURVE",
"342 -122 OFFCURVE",
"342 -100 CURVE SMOOTH",
"342 -78 OFFCURVE",
"328 -64 OFFCURVE",
"307 -64 CURVE SMOOTH",
"287 -64 OFFCURVE",
"272 -78 OFFCURVE",
"272 -100 CURVE SMOOTH"
);
}
);
width = 649;
}
);
note = Ddotbelow;
rightKerningGroup = D;
unicode = 1E0C;
},
{
glyphname = Dlinebelow;
lastChange = "2015-12-01 06:35:53 +0000";
layers = (
{
layerId = "F37480E8-8A59-4A4C-8214-0802ED2944DD";
name = Light;
paths = (
{
closed = 1;
nodes = (
"314 0 LINE SMOOTH",
"508 0 OFFCURVE",
"608 125 OFFCURVE",
"608 350 CURVE SMOOTH",
"608 574 OFFCURVE",
"509 700 OFFCURVE",
"315 700 CURVE SMOOTH",
"21 700 LINE",
"21 681 LINE",
"49 681 LINE SMOOTH",
"87 681 OFFCURVE",
"109 672 OFFCURVE",
"109 647 CURVE SMOOTH",
"109 52 LINE SMOOTH",
"109 27 OFFCURVE",
"87 18 OFFCURVE",
"49 18 CURVE SMOOTH",
"21 18 LINE",
"21 0 LINE"
);
},
{
closed = 1;
nodes = (
"163 672 LINE",
"314 672 LINE SMOOTH",
"479 672 OFFCURVE",
"555 545 OFFCURVE",
"555 350 CURVE SMOOTH",
"555 154 OFFCURVE",
"478 27 OFFCURVE",
"312 27 CURVE SMOOTH",
"163 27 LINE"
);
},
{
closed = 1;
nodes = (
"453 -102 LINE",
"453 -75 LINE",
"160 -75 LINE",
"160 -102 LINE"
);
}
);
width = 649;
}
);
note = Dlinebelow;
rightKerningGroup = D;
unicode = 1E0E;
},
{
glyphname = E;
lastChange = "2015-10-12 07:30:33 +0000";
layers = (
{
layerId = "F37480E8-8A59-4A4C-8214-0802ED2944DD";
name = Light;
paths = (
{
closed = 1;
nodes = (
"520 0 LINE",
"535 170 LINE",
"518 170 LINE",
"514 123 OFFCURVE",
"496 29 OFFCURVE",
"436 29 CURVE SMOOTH",
"160 29 LINE",
"160 670 LINE",
"428 670 LINE SMOOTH",
"493 670 OFFCURVE",
"501 581 OFFCURVE",
"503 539 CURVE",
"521 539 LINE",
"521 700 LINE",
"18 700 LINE",
"18 681 LINE",
"46 681 LINE SMOOTH",
"85 681 OFFCURVE",
"106 672 OFFCURVE",
"106 647 CURVE SMOOTH",
"106 52 LINE SMOOTH",
"106 27 OFFCURVE",
"85 18 OFFCURVE",
"46 18 CURVE SMOOTH",
"18 18 LINE",
"18 0 LINE"
);
},
{
closed = 1;
nodes = (
"430 255 LINE",
"430 487 LINE",
"413 487 LINE",
"409 434 OFFCURVE",
"406 386 OFFCURVE",
"361 386 CURVE SMOOTH",
"139 386 LINE",
"139 356 LINE",
"361 356 LINE SMOOTH",
"406 356 OFFCURVE",
"409 308 OFFCURVE",
"413 255 CURVE"
);
}
);
width = 574;
}
);
note = E;
unicode = 0045;
},
{
glyphname = Eacute;
lastChange = "2015-10-12 07:30:32 +0000";
layers = (
{
layerId = "F37480E8-8A59-4A4C-8214-0802ED2944DD";
name = Light;
paths = (
{
closed = 1;
nodes = (
"520 0 LINE",
"535 170 LINE",
"518 170 LINE",
"514 123 OFFCURVE",
"496 29 OFFCURVE",
"436 29 CURVE SMOOTH",
"160 29 LINE",
"160 670 LINE",
"428 670 LINE SMOOTH",
"493 670 OFFCURVE",
"501 581 OFFCURVE",
"503 539 CURVE",
"521 539 LINE",
"521 700 LINE",
"18 700 LINE",
"18 681 LINE",
"46 681 LINE SMOOTH",
"85 681 OFFCURVE",
"106 672 OFFCURVE",
"106 647 CURVE SMOOTH",
"106 52 LINE SMOOTH",
"106 27 OFFCURVE",
"85 18 OFFCURVE",
"46 18 CURVE SMOOTH",
"18 18 LINE",
"18 0 LINE"
);
},
{
closed = 1;
nodes = (
"430 255 LINE",
"430 487 LINE",
"413 487 LINE",
"409 434 OFFCURVE",
"406 386 OFFCURVE",
"361 386 CURVE SMOOTH",
"139 386 LINE",
"139 356 LINE",
"361 356 LINE SMOOTH",
"406 356 OFFCURVE",
"409 308 OFFCURVE",
"413 255 CURVE"
);
},
{
closed = 1;
nodes = (
"368 861 LINE SMOOTH",
"382 869 OFFCURVE",
"390 880 OFFCURVE",
"390 891 CURVE SMOOTH",
"390 902 OFFCURVE",
"382 910 OFFCURVE",
"370 910 CURVE SMOOTH",
"357 910 OFFCURVE",
"345 901 OFFCURVE",
"337 894 CURVE SMOOTH",
"227 801 LINE",
"238 786 LINE"
);
}
);
width = 574;
}
);
note = Eacute;
unicode = 00C9;
},
{
glyphname = Ebreve;
lastChange = "2015-10-12 07:30:33 +0000";
layers = (
{
layerId = "F37480E8-8A59-4A4C-8214-0802ED2944DD";
name = Light;
paths = (
{
closed = 1;
nodes = (
"520 0 LINE",
"535 170 LINE",
"518 170 LINE",
"514 123 OFFCURVE",
"496 29 OFFCURVE",
"436 29 CURVE SMOOTH",
"160 29 LINE",
"160 670 LINE",
"428 670 LINE SMOOTH",
"493 670 OFFCURVE",
"501 581 OFFCURVE",
"503 539 CURVE",
"521 539 LINE",
"521 700 LINE",
"18 700 LINE",
"18 681 LINE",
"46 681 LINE SMOOTH",
"85 681 OFFCURVE",
"106 672 OFFCURVE",
"106 647 CURVE SMOOTH",
"106 52 LINE SMOOTH",
"106 27 OFFCURVE",
"85 18 OFFCURVE",
"46 18 CURVE SMOOTH",
"18 18 LINE",
"18 0 LINE"
);
},
{
closed = 1;
nodes = (
"430 255 LINE",
"430 487 LINE",
"413 487 LINE",
"409 434 OFFCURVE",
"406 386 OFFCURVE",
"361 386 CURVE SMOOTH",
"139 386 LINE",
"139 356 LINE",
"361 356 LINE SMOOTH",
"406 356 OFFCURVE",
"409 308 OFFCURVE",
"413 255 CURVE"
);
},
{
closed = 1;
nodes = (
"387 776 OFFCURVE",
"436 818 OFFCURVE",
"441 895 CURVE",
"413 895 LINE",
"405 822 OFFCURVE",
"354 808 OFFCURVE",
"307 808 CURVE SMOOTH",
"259 808 OFFCURVE",
"208 822 OFFCURVE",
"199 895 CURVE",
"172 895 LINE",
"176 817 OFFCURVE",
"226 776 OFFCURVE",
"307 776 CURVE SMOOTH"
);
}
);
width = 574;
}
);
note = Ebreve;
unicode = 0114;
},
{
glyphname = Ecaron;
lastChange = "2015-10-12 07:30:33 +0000";
layers = (
{
layerId = "F37480E8-8A59-4A4C-8214-0802ED2944DD";
name = Light;
paths = (
{
closed = 1;
nodes = (
"520 0 LINE",
"535 170 LINE",
"518 170 LINE",
"514 123 OFFCURVE",
"496 29 OFFCURVE",
"436 29 CURVE SMOOTH",
"160 29 LINE",
"160 670 LINE",
"428 670 LINE SMOOTH",
"493 670 OFFCURVE",
"501 581 OFFCURVE",
"503 539 CURVE",
"521 539 LINE",
"521 700 LINE",
"18 700 LINE",
"18 681 LINE",
"46 681 LINE SMOOTH",
"85 681 OFFCURVE",
"106 672 OFFCURVE",
"106 647 CURVE SMOOTH",
"106 52 LINE SMOOTH",
"106 27 OFFCURVE",
"85 18 OFFCURVE",
"46 18 CURVE SMOOTH",
"18 18 LINE",
"18 0 LINE"
);
},
{
closed = 1;
nodes = (
"430 255 LINE",
"430 487 LINE",
"413 487 LINE",
"409 434 OFFCURVE",
"406 386 OFFCURVE",
"361 386 CURVE SMOOTH",
"139 386 LINE",
"139 356 LINE",
"361 356 LINE SMOOTH",
"406 356 OFFCURVE",
"409 308 OFFCURVE",
"413 255 CURVE"
);
},
{
closed = 1;
nodes = (
"322 785 LINE",
"431 892 LINE",
"415 910 LINE",
"321 831 LINE",
"315 827 OFFCURVE",
"310 824 OFFCURVE",
"306 824 CURVE SMOOTH",
"302 824 OFFCURVE",
"297 826 OFFCURVE",
"290 831 CURVE",
"196 910 LINE",
"180 892 LINE",
"289 785 LINE"
);
}
);
width = 574;
}
);
note = Ecaron;
unicode = 011A;
},
{
glyphname = Ecircumflex;
lastChange = "2015-10-12 07:30:33 +0000";
layers = (
{
layerId = "F37480E8-8A59-4A4C-8214-0802ED2944DD";
name = Light;
paths = (
{
closed = 1;
nodes = (
"520 0 LINE",
"535 170 LINE",
"518 170 LINE",
"514 123 OFFCURVE",
"496 29 OFFCURVE",
"436 29 CURVE SMOOTH",
"160 29 LINE",
"160 670 LINE",
"428 670 LINE SMOOTH",
"493 670 OFFCURVE",
"501 581 OFFCURVE",
"503 539 CURVE",
"521 539 LINE",
"521 700 LINE",
"18 700 LINE",
"18 681 LINE",
"46 681 LINE SMOOTH",
"85 681 OFFCURVE",
"106 672 OFFCURVE",
"106 647 CURVE SMOOTH",
"106 52 LINE SMOOTH",
"106 27 OFFCURVE",
"85 18 OFFCURVE",
"46 18 CURVE SMOOTH",
"18 18 LINE",
"18 0 LINE"
);
},
{
closed = 1;
nodes = (
"430 255 LINE",
"430 487 LINE",
"413 487 LINE",
"409 434 OFFCURVE",
"406 386 OFFCURVE",
"361 386 CURVE SMOOTH",
"139 386 LINE",
"139 356 LINE",
"361 356 LINE SMOOTH",
"406 356 OFFCURVE",
"409 308 OFFCURVE",
"413 255 CURVE"
);
},
{
closed = 1;
nodes = (
"289 864 LINE",
"295 868 OFFCURVE",
"301 871 OFFCURVE",
"305 871 CURVE SMOOTH",
"309 871 OFFCURVE",
"314 868 OFFCURVE",
"320 864 CURVE",
"414 785 LINE",
"430 803 LINE",
"321 910 LINE",
"288 910 LINE",
"179 803 LINE",
"195 785 LINE"
);
}
);
width = 574;
}
);
note = Ecircumflex;
unicode = 00CA;
},
{
glyphname = Ecircumflexacute;
lastChange = "2015-10-12 07:30:33 +0000";
layers = (
{
layerId = "F37480E8-8A59-4A4C-8214-0802ED2944DD";
name = Light;
paths = (
{
closed = 1;
nodes = (
"520 0 LINE",
"535 170 LINE",
"518 170 LINE",
"514 123 OFFCURVE",
"496 29 OFFCURVE",
"436 29 CURVE SMOOTH",
"160 29 LINE",
"160 670 LINE",
"428 670 LINE SMOOTH",
"493 670 OFFCURVE",
"501 581 OFFCURVE",
"503 539 CURVE",
"521 539 LINE",
"521 700 LINE",
"18 700 LINE",
"18 681 LINE",
"46 681 LINE SMOOTH",
"85 681 OFFCURVE",
"106 672 OFFCURVE",
"106 647 CURVE SMOOTH",
"106 52 LINE SMOOTH",
"106 27 OFFCURVE",
"85 18 OFFCURVE",
"46 18 CURVE SMOOTH",
"18 18 LINE",
"18 0 LINE"
);
},
{
closed = 1;
nodes = (
"430 255 LINE",
"430 487 LINE",
"413 487 LINE",
"409 434 OFFCURVE",
"406 386 OFFCURVE",
"361 386 CURVE SMOOTH",
"139 386 LINE",
"139 356 LINE",
"361 356 LINE SMOOTH",
"406 356 OFFCURVE",
"409 308 OFFCURVE",
"413 255 CURVE"
);
},
{
closed = 1;
nodes = (
"285 862 LINE",
"291 866 OFFCURVE",
"297 870 OFFCURVE",
"302 870 CURVE SMOOTH",
"306 870 OFFCURVE",
"311 867 OFFCURVE",
"317 863 CURVE",
"411 785 LINE",
"426 803 LINE",
"318 910 LINE",
"285 910 LINE",
"177 803 LINE",
"193 785 LINE"
);
},
{
closed = 1;
nodes = (
"525 954 LINE SMOOTH",
"540 962 OFFCURVE",
"548 974 OFFCURVE",
"548 983 CURVE SMOOTH",
"548 994 OFFCURVE",
"540 1003 OFFCURVE",
"527 1003 CURVE SMOOTH",
"514 1003 OFFCURVE",
"501 994 OFFCURVE",
"493 986 CURVE",
"391 897 LINE",
"402 883 LINE"
);
}
);
width = 574;
}
);
note = Ecircumflexacute;
unicode = 1EBE;
},
{
glyphname = Ecircumflexdotbelow;
lastChange = "2015-10-12 07:30:32 +0000";
layers = (
{
layerId = "F37480E8-8A59-4A4C-8214-0802ED2944DD";
name = Light;
paths = (
{
closed = 1;
nodes = (
"520 0 LINE",
"535 170 LINE",
"518 170 LINE",
"514 123 OFFCURVE",
"496 29 OFFCURVE",
"436 29 CURVE SMOOTH",
"160 29 LINE",
"160 670 LINE",
"428 670 LINE SMOOTH",
"493 670 OFFCURVE",
"501 581 OFFCURVE",
"503 539 CURVE",
"521 539 LINE",
"521 700 LINE",
"18 700 LINE",
"18 681 LINE",
"46 681 LINE SMOOTH",
"85 681 OFFCURVE",
"106 672 OFFCURVE",
"106 647 CURVE SMOOTH",
"106 52 LINE SMOOTH",
"106 27 OFFCURVE",
"85 18 OFFCURVE",
"46 18 CURVE SMOOTH",
"18 18 LINE",
"18 0 LINE"
);
},
{
closed = 1;
nodes = (
"326 -136 OFFCURVE",
"340 -122 OFFCURVE",
"340 -100 CURVE SMOOTH",
"340 -78 OFFCURVE",
"326 -64 OFFCURVE",
"305 -64 CURVE SMOOTH",
"285 -64 OFFCURVE",
"270 -78 OFFCURVE",
"270 -100 CURVE SMOOTH",
"270 -122 OFFCURVE",
"285 -136 OFFCURVE",
"305 -136 CURVE SMOOTH"
);
},
{
closed = 1;
nodes = (
"430 255 LINE",
"430 487 LINE",
"413 487 LINE",
"409 434 OFFCURVE",
"406 386 OFFCURVE",
"361 386 CURVE SMOOTH",
"139 386 LINE",
"139 356 LINE",
"361 356 LINE SMOOTH",
"406 356 OFFCURVE",
"409 308 OFFCURVE",
"413 255 CURVE"
);
},
{
closed = 1;
nodes = (
"286 864 LINE",
"292 868 OFFCURVE",
"298 871 OFFCURVE",
"302 871 CURVE SMOOTH",
"306 871 OFFCURVE",
"311 868 OFFCURVE",
"317 864 CURVE",
"411 785 LINE",
"427 803 LINE",
"318 910 LINE",
"285 910 LINE",
"176 803 LINE",
"192 785 LINE"
);
}
);
width = 574;
}
);
note = Ecircumflexdotbelow;
unicode = 1EC6;
},
{
glyphname = Ecircumflexgrave;
lastChange = "2015-10-12 07:30:33 +0000";
layers = (
{
layerId = "F37480E8-8A59-4A4C-8214-0802ED2944DD";
name = Light;
paths = (
{
closed = 1;
nodes = (
"520 0 LINE",
"535 170 LINE",
"518 170 LINE",
"514 123 OFFCURVE",
"496 29 OFFCURVE",
"436 29 CURVE SMOOTH",
"160 29 LINE",
"160 670 LINE",
"428 670 LINE SMOOTH",
"493 670 OFFCURVE",
"501 581 OFFCURVE",
"503 539 CURVE",
"521 539 LINE",
"521 700 LINE",
"18 700 LINE",
"18 681 LINE",
"46 681 LINE SMOOTH",
"85 681 OFFCURVE",
"106 672 OFFCURVE",
"106 647 CURVE SMOOTH",
"106 52 LINE SMOOTH",
"106 27 OFFCURVE",
"85 18 OFFCURVE",
"46 18 CURVE SMOOTH",
"18 18 LINE",
"18 0 LINE"
);
},
{
closed = 1;
nodes = (
"430 255 LINE",
"430 487 LINE",
"413 487 LINE",
"409 434 OFFCURVE",
"406 386 OFFCURVE",
"361 386 CURVE SMOOTH",
"139 386 LINE",
"139 356 LINE",
"361 356 LINE SMOOTH",
"406 356 OFFCURVE",
"409 308 OFFCURVE",
"413 255 CURVE"
);
},
{
closed = 1;
nodes = (
"223 897 LINE",
"120 986 LINE",
"112 994 OFFCURVE",
"100 1003 OFFCURVE",
"87 1003 CURVE SMOOTH",
"74 1003 OFFCURVE",
"66 994 OFFCURVE",
"66 983 CURVE SMOOTH",
"66 974 OFFCURVE",
"73 962 OFFCURVE",
"88 954 CURVE SMOOTH",
"212 883 LINE"
);
},
{
closed = 1;
nodes = (
"285 862 LINE",
"291 866 OFFCURVE",
"297 870 OFFCURVE",
"302 870 CURVE SMOOTH",
"306 870 OFFCURVE",
"311 867 OFFCURVE",
"317 863 CURVE",
"411 785 LINE",
"426 803 LINE",
"318 910 LINE",
"285 910 LINE",
"177 803 LINE",
"193 785 LINE"
);
}
);
width = 574;
}
);
note = Ecircumflexgrave;
unicode = 1EC0;
},
{
glyphname = Ecircumflexhookabove;
lastChange = "2015-10-12 07:30:33 +0000";
layers = (
{
layerId = "F37480E8-8A59-4A4C-8214-0802ED2944DD";
name = Light;
paths = (
{
closed = 1;
nodes = (
"520 0 LINE",
"535 170 LINE",
"518 170 LINE",
"514 123 OFFCURVE",
"496 29 OFFCURVE",
"436 29 CURVE SMOOTH",
"160 29 LINE",
"160 670 LINE",
"428 670 LINE SMOOTH",
"493 670 OFFCURVE",
"501 581 OFFCURVE",
"503 539 CURVE",
"521 539 LINE",
"521 700 LINE",
"18 700 LINE",
"18 681 LINE",
"46 681 LINE SMOOTH",
"85 681 OFFCURVE",
"106 672 OFFCURVE",
"106 647 CURVE SMOOTH",
"106 52 LINE SMOOTH",
"106 27 OFFCURVE",
"85 18 OFFCURVE",
"46 18 CURVE SMOOTH",
"18 18 LINE",
"18 0 LINE"
);
},
{
closed = 1;
nodes = (
"430 255 LINE",
"430 487 LINE",
"413 487 LINE",
"409 434 OFFCURVE",
"406 386 OFFCURVE",
"361 386 CURVE SMOOTH",
"139 386 LINE",
"139 356 LINE",
"361 356 LINE SMOOTH",
"406 356 OFFCURVE",
"409 308 OFFCURVE",
"413 255 CURVE"
);
},
{
closed = 1;
nodes = (
"274 852 LINE",
"283 860 OFFCURVE",
"293 870 OFFCURVE",
"302 870 CURVE SMOOTH",
"306 870 OFFCURVE",
"311 867 OFFCURVE",
"317 863 CURVE",
"411 785 LINE",
"426 803 LINE",
"318 910 LINE",
"285 910 LINE",
"177 803 LINE",
"193 785 LINE"
);
},
{
closed = 1;
nodes = (
"455 881 LINE",
"438 886 OFFCURVE",
"427 891 OFFCURVE",
"427 908 CURVE SMOOTH",
"427 934 OFFCURVE",
"501 943 OFFCURVE",
"501 984 CURVE SMOOTH",
"501 1017 OFFCURVE",
"464 1032 OFFCURVE",
"426 1032 CURVE SMOOTH",
"398 1032 OFFCURVE",
"356 1023 OFFCURVE",
"356 995 CURVE SMOOTH",
"356 984 OFFCURVE",
"365 976 OFFCURVE",
"375 976 CURVE SMOOTH",
"404 976 OFFCURVE",
"390 1011 OFFCURVE",
"430 1011 CURVE SMOOTH",
"447 1011 OFFCURVE",
"460 1000 OFFCURVE",
"460 987 CURVE SMOOTH",
"460 951 OFFCURVE",
"391 943 OFFCURVE",
"391 907 CURVE SMOOTH",
"391 885 OFFCURVE",
"407 866 OFFCURVE",
"447 866 CURVE"
);
}
);
width = 574;
}
);
note = Ecircumflexhookabove;
unicode = 1EC2;
},
{
glyphname = Ecircumflextilde;
lastChange = "2015-10-12 07:30:33 +0000";
layers = (
{
layerId = "F37480E8-8A59-4A4C-8214-0802ED2944DD";
name = Light;
paths = (
{
closed = 1;
nodes = (
"520 0 LINE",
"535 170 LINE",
"518 170 LINE",
"514 123 OFFCURVE",
"496 29 OFFCURVE",
"436 29 CURVE SMOOTH",
"160 29 LINE",
"160 670 LINE",
"428 670 LINE SMOOTH",
"493 670 OFFCURVE",
"501 581 OFFCURVE",
"503 539 CURVE",
"521 539 LINE",
"521 700 LINE",
"18 700 LINE",
"18 681 LINE",
"46 681 LINE SMOOTH",
"85 681 OFFCURVE",
"106 672 OFFCURVE",
"106 647 CURVE SMOOTH",
"106 52 LINE SMOOTH",
"106 27 OFFCURVE",
"85 18 OFFCURVE",
"46 18 CURVE SMOOTH",
"18 18 LINE",
"18 0 LINE"
);
},
{
closed = 1;
nodes = (
"430 255 LINE",
"430 487 LINE",
"413 487 LINE",
"409 434 OFFCURVE",
"406 386 OFFCURVE",
"361 386 CURVE SMOOTH",
"139 386 LINE",
"139 356 LINE",
"361 356 LINE SMOOTH",
"406 356 OFFCURVE",
"409 308 OFFCURVE",
"413 255 CURVE"
);
},
{
closed = 1;
nodes = (
"285 862 LINE",
"291 866 OFFCURVE",
"297 870 OFFCURVE",
"302 870 CURVE SMOOTH",
"306 870 OFFCURVE",
"311 867 OFFCURVE",
"317 863 CURVE",
"411 785 LINE",
"426 803 LINE",
"318 910 LINE",
"285 910 LINE",
"177 803 LINE",
"193 785 LINE"
);
},
{
closed = 1;
nodes = (
"187 979 OFFCURVE",
"205 1002 OFFCURVE",
"235 1002 CURVE SMOOTH",
"279 1002 OFFCURVE",
"324 944 OFFCURVE",
"369 944 CURVE SMOOTH",
"414 944 OFFCURVE",
"441 978 OFFCURVE",
"451 1032 CURVE",
"434 1041 LINE",
"423 1001 OFFCURVE",
"407 976 OFFCURVE",
"374 976 CURVE SMOOTH",
"333 976 OFFCURVE",
"285 1033 OFFCURVE",
"240 1033 CURVE SMOOTH",
"199 1033 OFFCURVE",
"168 1003 OFFCURVE",
"160 950 CURVE",
"176 940 LINE"
);
}
);
width = 574;
}
);
note = Ecircumflextilde;
unicode = 1EC4;
},
{
glyphname = Edieresis;
lastChange = "2015-10-12 07:30:33 +0000";
layers = (
{
layerId = "F37480E8-8A59-4A4C-8214-0802ED2944DD";
name = Light;
paths = (
{
closed = 1;
nodes = (
"520 0 LINE",
"535 170 LINE",
"518 170 LINE",
"514 123 OFFCURVE",
"496 29 OFFCURVE",
"436 29 CURVE SMOOTH",
"160 29 LINE",
"160 670 LINE",
"428 670 LINE SMOOTH",
"493 670 OFFCURVE",
"501 581 OFFCURVE",
"503 539 CURVE",
"521 539 LINE",
"521 700 LINE",
"18 700 LINE",
"18 681 LINE",
"46 681 LINE SMOOTH",
"85 681 OFFCURVE",
"106 672 OFFCURVE",
"106 647 CURVE SMOOTH",
"106 52 LINE SMOOTH",
"106 27 OFFCURVE",
"85 18 OFFCURVE",
"46 18 CURVE SMOOTH",
"18 18 LINE",
"18 0 LINE"
);
},
{
closed = 1;
nodes = (
"430 255 LINE",
"430 487 LINE",
"413 487 LINE",
"409 434 OFFCURVE",
"406 386 OFFCURVE",
"361 386 CURVE SMOOTH",
"139 386 LINE",
"139 356 LINE",
"361 356 LINE SMOOTH",
"406 356 OFFCURVE",
"409 308 OFFCURVE",
"413 255 CURVE"
);
},
{
closed = 1;
nodes = (
"226 783 OFFCURVE",
"240 797 OFFCURVE",
"240 819 CURVE SMOOTH",
"240 841 OFFCURVE",
"226 855 OFFCURVE",
"205 855 CURVE SMOOTH",
"184 855 OFFCURVE",
"170 841 OFFCURVE",
"170 819 CURVE SMOOTH",
"170 797 OFFCURVE",
"184 783 OFFCURVE",
"205 783 CURVE SMOOTH"
);
},
{
closed = 1;
nodes = (
"429 783 OFFCURVE",
"443 797 OFFCURVE",
"443 819 CURVE SMOOTH",
"443 841 OFFCURVE",
"429 855 OFFCURVE",
"408 855 CURVE SMOOTH",
"387 855 OFFCURVE",
"373 841 OFFCURVE",
"373 819 CURVE SMOOTH",
"373 797 OFFCURVE",
"387 783 OFFCURVE",
"408 783 CURVE SMOOTH"
);
}
);
width = 574;
}
);
note = Edieresis;
unicode = 00CB;
},
{
glyphname = Edotaccent;
lastChange = "2015-10-12 07:30:32 +0000";
layers = (
{
layerId = "F37480E8-8A59-4A4C-8214-0802ED2944DD";
name = Light;
paths = (
{
closed = 1;
nodes = (
"520 0 LINE",
"535 170 LINE",
"518 170 LINE",
"514 123 OFFCURVE",
"496 29 OFFCURVE",
"436 29 CURVE SMOOTH",
"160 29 LINE",
"160 670 LINE",
"428 670 LINE SMOOTH",
"493 670 OFFCURVE",
"501 581 OFFCURVE",
"503 539 CURVE",
"521 539 LINE",
"521 700 LINE",
"18 700 LINE",
"18 681 LINE",
"46 681 LINE SMOOTH",
"85 681 OFFCURVE",
"106 672 OFFCURVE",
"106 647 CURVE SMOOTH",
"106 52 LINE SMOOTH",
"106 27 OFFCURVE",
"85 18 OFFCURVE",
"46 18 CURVE SMOOTH",
"18 18 LINE",
"18 0 LINE"
);
},
{
closed = 1;
nodes = (
"430 255 LINE",
"430 487 LINE",
"413 487 LINE",
"409 434 OFFCURVE",
"406 386 OFFCURVE",
"361 386 CURVE SMOOTH",
"139 386 LINE",
"139 356 LINE",
"361 356 LINE SMOOTH",
"406 356 OFFCURVE",
"409 308 OFFCURVE",
"413 255 CURVE"
);
},
{
closed = 1;
nodes = (
"327 761 OFFCURVE",
"341 774 OFFCURVE",
"341 796 CURVE SMOOTH",
"341 818 OFFCURVE",
"327 832 OFFCURVE",
"307 832 CURVE SMOOTH",
"286 832 OFFCURVE",
"272 818 OFFCURVE",
"272 796 CURVE SMOOTH",
"272 774 OFFCURVE",
"286 761 OFFCURVE",
"307 761 CURVE SMOOTH"
);
}
);
width = 574;
}
);
note = Edotaccent;
unicode = 0116;
},
{
glyphname = Edotbelow;
lastChange = "2015-10-12 07:30:33 +0000";
layers = (
{
layerId = "F37480E8-8A59-4A4C-8214-0802ED2944DD";
name = Light;
paths = (
{
closed = 1;
nodes = (
"520 0 LINE",
"535 170 LINE",
"518 170 LINE",
"514 123 OFFCURVE",
"496 29 OFFCURVE",
"436 29 CURVE SMOOTH",
"160 29 LINE",
"160 670 LINE",
"428 670 LINE SMOOTH",
"493 670 OFFCURVE",
"501 581 OFFCURVE",
"503 539 CURVE",
"521 539 LINE",
"521 700 LINE",
"18 700 LINE",
"18 681 LINE",
"46 681 LINE SMOOTH",
"85 681 OFFCURVE",
"106 672 OFFCURVE",
"106 647 CURVE SMOOTH",
"106 52 LINE SMOOTH",
"106 27 OFFCURVE",
"85 18 OFFCURVE",
"46 18 CURVE SMOOTH",
"18 18 LINE",
"18 0 LINE"
);
},
{
closed = 1;
nodes = (
"324 -136 OFFCURVE",
"338 -122 OFFCURVE",
"338 -100 CURVE SMOOTH",
"338 -78 OFFCURVE",
"324 -64 OFFCURVE",
"303 -64 CURVE SMOOTH",
"283 -64 OFFCURVE",
"268 -78 OFFCURVE",
"268 -100 CURVE SMOOTH",
"268 -122 OFFCURVE",
"283 -136 OFFCURVE",
"303 -136 CURVE SMOOTH"
);
},
{
closed = 1;
nodes = (
"430 255 LINE",
"430 487 LINE",
"413 487 LINE",
"409 434 OFFCURVE",
"406 386 OFFCURVE",
"361 386 CURVE SMOOTH",
"139 386 LINE",
"139 356 LINE",
"361 356 LINE SMOOTH",
"406 356 OFFCURVE",
"409 308 OFFCURVE",
"413 255 CURVE"
);
}
);
width = 574;
}
);
note = Edotbelow;
unicode = 1EB8;
},
{
glyphname = Egrave;
lastChange = "2015-10-12 07:30:33 +0000";
layers = (
{
layerId = "F37480E8-8A59-4A4C-8214-0802ED2944DD";
name = Light;
paths = (
{
closed = 1;
nodes = (
"520 0 LINE",
"535 170 LINE",
"518 170 LINE",
"514 123 OFFCURVE",
"496 29 OFFCURVE",
"436 29 CURVE SMOOTH",
"160 29 LINE",
"160 670 LINE",
"428 670 LINE SMOOTH",
"493 670 OFFCURVE",
"501 581 OFFCURVE",
"503 539 CURVE",
"521 539 LINE",
"521 700 LINE",
"18 700 LINE",
"18 681 LINE",
"46 681 LINE SMOOTH",
"85 681 OFFCURVE",
"106 672 OFFCURVE",
"106 647 CURVE SMOOTH",
"106 52 LINE SMOOTH",
"106 27 OFFCURVE",
"85 18 OFFCURVE",
"46 18 CURVE SMOOTH",
"18 18 LINE",
"18 0 LINE"
);
},
{
closed = 1;
nodes = (
"430 255 LINE",
"430 487 LINE",
"413 487 LINE",
"409 434 OFFCURVE",
"406 386 OFFCURVE",
"361 386 CURVE SMOOTH",
"139 386 LINE",
"139 356 LINE",
"361 356 LINE SMOOTH",
"406 356 OFFCURVE",
"409 308 OFFCURVE",
"413 255 CURVE"
);
},
{
closed = 1;
nodes = (
"386 801 LINE",
"276 894 LINE SMOOTH",
"267 902 OFFCURVE",
"256 910 OFFCURVE",
"244 910 CURVE SMOOTH",
"234 910 OFFCURVE",
"224 903 OFFCURVE",
"224 891 CURVE SMOOTH",
"224 879 OFFCURVE",
"233 868 OFFCURVE",
"245 861 CURVE SMOOTH",
"375 786 LINE"
);
}
);
width = 574;
}
);
note = Egrave;
unicode = 00C8;
},
{
glyphname = Ehookabove;
lastChange = "2015-10-12 07:30:33 +0000";
layers = (
{
layerId = "F37480E8-8A59-4A4C-8214-0802ED2944DD";
name = Light;
paths = (
{
closed = 1;
nodes = (
"520 0 LINE",
"535 170 LINE",
"518 170 LINE",
"514 123 OFFCURVE",
"496 29 OFFCURVE",
"436 29 CURVE SMOOTH",
"160 29 LINE",
"160 670 LINE",
"428 670 LINE SMOOTH",
"493 670 OFFCURVE",
"501 581 OFFCURVE",
"503 539 CURVE",
"521 539 LINE",
"521 700 LINE",
"18 700 LINE",
"18 681 LINE",
"46 681 LINE SMOOTH",
"85 681 OFFCURVE",
"106 672 OFFCURVE",
"106 647 CURVE SMOOTH",
"106 52 LINE SMOOTH",
"106 27 OFFCURVE",
"85 18 OFFCURVE",
"46 18 CURVE SMOOTH",
"18 18 LINE",
"18 0 LINE"
);
},
{
closed = 1;
nodes = (
"430 255 LINE",
"430 487 LINE",
"413 487 LINE",
"409 434 OFFCURVE",
"406 386 OFFCURVE",
"361 386 CURVE SMOOTH",
"139 386 LINE",
"139 356 LINE",
"361 356 LINE SMOOTH",
"406 356 OFFCURVE",
"409 308 OFFCURVE",
"413 255 CURVE"
);
},
{
closed = 1;
nodes = (
"334 795 LINE",
"316 800 OFFCURVE",
"306 804 OFFCURVE",
"306 823 CURVE SMOOTH",
"306 854 OFFCURVE",
"386 871 OFFCURVE",
"386 918 CURVE SMOOTH",
"386 956 OFFCURVE",
"353 974 OFFCURVE",
"310 974 CURVE SMOOTH",
"267 974 OFFCURVE",
"234 957 OFFCURVE",
"234 929 CURVE SMOOTH",
"234 914 OFFCURVE",
"240 908 OFFCURVE",
"251 908 CURVE SMOOTH",
"266 908 OFFCURVE",
"268 917 OFFCURVE",
"273 931 CURVE SMOOTH",
"278 946 OFFCURVE",
"295 951 OFFCURVE",
"311 951 CURVE SMOOTH",
"337 951 OFFCURVE",
"347 937 OFFCURVE",
"347 921 CURVE SMOOTH",
"347 878 OFFCURVE",
"270 866 OFFCURVE",
"270 823 CURVE SMOOTH",
"270 798 OFFCURVE",
"288 778 OFFCURVE",
"326 778 CURVE"
);
}
);
width = 574;
}
);
note = Ehookabove;
unicode = 1EBA;
},
{
glyphname = Emacron;
lastChange = "2015-10-12 07:30:33 +0000";
layers = (
{
layerId = "F37480E8-8A59-4A4C-8214-0802ED2944DD";
name = Light;
paths = (
{
closed = 1;
nodes = (
"520 0 LINE",
"535 170 LINE",
"518 170 LINE",
"514 123 OFFCURVE",
"496 29 OFFCURVE",
"436 29 CURVE SMOOTH",
"160 29 LINE",
"160 670 LINE",
"428 670 LINE SMOOTH",
"493 670 OFFCURVE",
"501 581 OFFCURVE",
"503 539 CURVE",
"521 539 LINE",
"521 700 LINE",
"18 700 LINE",
"18 681 LINE",
"46 681 LINE SMOOTH",
"85 681 OFFCURVE",
"106 672 OFFCURVE",
"106 647 CURVE SMOOTH",
"106 52 LINE SMOOTH",
"106 27 OFFCURVE",
"85 18 OFFCURVE",
"46 18 CURVE SMOOTH",
"18 18 LINE",
"18 0 LINE"
);
},
{
closed = 1;
nodes = (
"430 255 LINE",
"430 487 LINE",
"413 487 LINE",
"409 434 OFFCURVE",
"406 386 OFFCURVE",
"361 386 CURVE SMOOTH",
"139 386 LINE",
"139 356 LINE",
"361 356 LINE SMOOTH",
"406 356 OFFCURVE",
"409 308 OFFCURVE",
"413 255 CURVE"
);
},
{
closed = 1;
nodes = (
"451 785 LINE",
"451 814 LINE",
"158 814 LINE",
"158 785 LINE"
);
}
);
width = 574;
}
);
note = Emacron;
unicode = 0112;
},
{
glyphname = Eogonek;
lastChange = "2015-10-12 07:30:33 +0000";
layers = (
{
layerId = "F37480E8-8A59-4A4C-8214-0802ED2944DD";
name = Light;
paths = (
{
closed = 1;
nodes = (
"520 0 LINE",
"535 170 LINE",
"518 170 LINE",
"514 123 OFFCURVE",
"496 29 OFFCURVE",
"436 29 CURVE SMOOTH",
"160 29 LINE",
"160 670 LINE",
"428 670 LINE SMOOTH",
"493 670 OFFCURVE",
"501 581 OFFCURVE",
"503 539 CURVE",
"521 539 LINE",
"521 700 LINE",
"18 700 LINE",
"18 681 LINE",
"46 681 LINE SMOOTH",
"85 681 OFFCURVE",
"106 672 OFFCURVE",
"106 647 CURVE SMOOTH",
"106 52 LINE SMOOTH",
"106 27 OFFCURVE",
"85 18 OFFCURVE",
"46 18 CURVE SMOOTH",
"18 18 LINE",
"18 0 LINE"
);
},
{
closed = 1;
nodes = (
"464 -176 OFFCURVE",
"482 -172 OFFCURVE",
"505 -162 CURVE",
"503 -145 LINE",
"487 -150 OFFCURVE",
"472 -153 OFFCURVE",
"459 -153 CURVE SMOOTH",
"427 -153 OFFCURVE",
"399 -139 OFFCURVE",
"399 -100 CURVE SMOOTH",
"399 -60 OFFCURVE",
"428 -22 OFFCURVE",
"470 1 CURVE",
"439 1 LINE",
"392 -21 OFFCURVE",
"360 -58 OFFCURVE",
"360 -104 CURVE SMOOTH",
"360 -135 OFFCURVE",
"379 -176 OFFCURVE",
"441 -176 CURVE SMOOTH"
);
},
{
closed = 1;
nodes = (
"430 255 LINE",
"430 487 LINE",
"413 487 LINE",
"409 434 OFFCURVE",
"406 386 OFFCURVE",
"361 386 CURVE SMOOTH",
"139 386 LINE",
"139 356 LINE",
"361 356 LINE SMOOTH",
"406 356 OFFCURVE",
"409 308 OFFCURVE",
"413 255 CURVE"
);
}
);
width = 574;
}
);
note = Eogonek;
unicode = 0118;
},
{
glyphname = Etilde;
lastChange = "2015-10-12 07:30:33 +0000";
layers = (
{
layerId = "F37480E8-8A59-4A4C-8214-0802ED2944DD";
name = Light;
paths = (
{
closed = 1;
nodes = (
"520 0 LINE",
"535 170 LINE",
"518 170 LINE",
"514 123 OFFCURVE",
"496 29 OFFCURVE",
"436 29 CURVE SMOOTH",
"160 29 LINE",
"160 670 LINE",
"428 670 LINE SMOOTH",
"493 670 OFFCURVE",
"501 581 OFFCURVE",
"503 539 CURVE",
"521 539 LINE",
"521 700 LINE",
"18 700 LINE",
"18 681 LINE",
"46 681 LINE SMOOTH",
"85 681 OFFCURVE",
"106 672 OFFCURVE",
"106 647 CURVE SMOOTH",
"106 52 LINE SMOOTH",
"106 27 OFFCURVE",
"85 18 OFFCURVE",
"46 18 CURVE SMOOTH",
"18 18 LINE",
"18 0 LINE"
);
},
{
closed = 1;
nodes = (
"430 255 LINE",
"430 487 LINE",
"413 487 LINE",
"409 434 OFFCURVE",
"406 386 OFFCURVE",
"361 386 CURVE SMOOTH",
"139 386 LINE",
"139 356 LINE",
"361 356 LINE SMOOTH",
"406 356 OFFCURVE",
"409 308 OFFCURVE",
"413 255 CURVE"
);
},
{
closed = 1;
nodes = (
"179 821 OFFCURVE",
"198 844 OFFCURVE",
"228 844 CURVE SMOOTH",
"272 844 OFFCURVE",
"318 786 OFFCURVE",
"364 786 CURVE SMOOTH",
"410 786 OFFCURVE",
"438 820 OFFCURVE",
"448 874 CURVE",
"431 883 LINE",
"419 843 OFFCURVE",
"403 818 OFFCURVE",
"370 818 CURVE SMOOTH",
"328 818 OFFCURVE",
"279 875 OFFCURVE",
"233 875 CURVE SMOOTH",
"191 875 OFFCURVE",
"160 846 OFFCURVE",
"151 792 CURVE",
"168 783 LINE"
);
}
);
width = 574;
}
);
note = Etilde;
unicode = 1EBC;
},
{
glyphname = F;
lastChange = "2015-10-12 07:30:33 +0000";
layers = (
{
layerId = "F37480E8-8A59-4A4C-8214-0802ED2944DD";
name = Light;
paths = (
{
closed = 1;
nodes = (
"248 0 LINE",
"248 18 LINE",
"220 18 LINE SMOOTH",
"181 18 OFFCURVE",
"160 27 OFFCURVE",
"160 52 CURVE SMOOTH",
"160 670 LINE",
"428 670 LINE SMOOTH",
"493 670 OFFCURVE",
"501 581 OFFCURVE",
"503 539 CURVE",
"521 539 LINE",
"521 700 LINE",
"18 700 LINE",
"18 681 LINE",
"46 681 LINE SMOOTH",
"85 681 OFFCURVE",
"106 672 OFFCURVE",
"106 647 CURVE SMOOTH",
"106 52 LINE SMOOTH",
"106 27 OFFCURVE",
"85 18 OFFCURVE",
"46 18 CURVE SMOOTH",
"18 18 LINE",
"18 0 LINE"
);
},
{
closed = 1;
nodes = (
"409 231 LINE",
"409 462 LINE",
"391 462 LINE",
"387 410 OFFCURVE",
"384 361 OFFCURVE",
"340 361 CURVE SMOOTH",
"140 361 LINE",
"140 332 LINE",
"340 332 LINE SMOOTH",
"384 332 OFFCURVE",
"387 283 OFFCURVE",
"391 231 CURVE"
);
}
);
width = 538;
}
);
note = F;
unicode = 0046;
},
{
glyphname = G;
lastChange = "2015-10-12 07:30:31 +0000";
layers = (
{
layerId = "F37480E8-8A59-4A4C-8214-0802ED2944DD";
name = Light;
paths = (
{
closed = 1;
nodes = (
"496 -10 OFFCURVE",
"566 29 OFFCURVE",
"615 71 CURVE",
"615 251 LINE SMOOTH",
"615 318 OFFCURVE",
"624 335 OFFCURVE",
"665 335 CURVE SMOOTH",
"673 335 LINE",
"673 352 LINE",
"464 352 LINE",
"464 335 LINE",
"477 335 LINE SMOOTH",
"526 335 OFFCURVE",
"564 323 OFFCURVE",
"564 284 CURVE SMOOTH",
"564 80 LINE",
"510 30 OFFCURVE",
"422 19 OFFCURVE",
"369 19 CURVE SMOOTH",
"182 19 OFFCURVE",
"101 157 OFFCURVE",
"101 350 CURVE SMOOTH",
"101 544 OFFCURVE",
"193 680 OFFCURVE",
"377 680 CURVE SMOOTH",
"489 680 OFFCURVE",
"573 619 OFFCURVE",
"583 525 CURVE",
"601 525 LINE",
"601 705 LINE",
"576 705 LINE",
"576 655 LINE SMOOTH",
"576 643 OFFCURVE",
"573 641 OFFCURVE",
"569 641 CURVE SMOOTH",
"565 641 OFFCURVE",
"561 646 OFFCURVE",
"557 649 CURVE SMOOTH",
"524 673 OFFCURVE",
"468 710 OFFCURVE",
"371 710 CURVE SMOOTH",
"171 710 OFFCURVE",
"47 580 OFFCURVE",
"47 350 CURVE SMOOTH",
"47 119 OFFCURVE",
"161 -10 OFFCURVE",
"358 -10 CURVE SMOOTH"
);
}
);
width = 683;
}
);
leftKerningGroup = G;
note = G;
unicode = 0047;
},
{
glyphname = Gbreve;
lastChange = "2015-10-12 07:30:33 +0000";
layers = (
{
layerId = "F37480E8-8A59-4A4C-8214-0802ED2944DD";
name = Light;
paths = (
{
closed = 1;
nodes = (
"496 -10 OFFCURVE",
"566 29 OFFCURVE",
"615 71 CURVE",
"615 251 LINE SMOOTH",
"615 318 OFFCURVE",
"624 335 OFFCURVE",
"665 335 CURVE SMOOTH",
"673 335 LINE",
"673 352 LINE",
"464 352 LINE",
"464 335 LINE",
"477 335 LINE SMOOTH",
"526 335 OFFCURVE",
"564 323 OFFCURVE",
"564 284 CURVE SMOOTH",
"564 80 LINE",
"510 30 OFFCURVE",
"422 19 OFFCURVE",
"369 19 CURVE SMOOTH",
"182 19 OFFCURVE",
"101 157 OFFCURVE",
"101 350 CURVE SMOOTH",
"101 544 OFFCURVE",
"193 680 OFFCURVE",
"377 680 CURVE SMOOTH",
"489 680 OFFCURVE",
"573 619 OFFCURVE",
"583 525 CURVE",
"601 525 LINE",
"601 705 LINE",
"576 705 LINE",
"576 655 LINE SMOOTH",
"576 643 OFFCURVE",
"573 641 OFFCURVE",
"569 641 CURVE SMOOTH",
"565 641 OFFCURVE",
"561 646 OFFCURVE",
"557 649 CURVE SMOOTH",
"524 673 OFFCURVE",
"468 710 OFFCURVE",
"371 710 CURVE SMOOTH",
"171 710 OFFCURVE",
"47 580 OFFCURVE",
"47 350 CURVE SMOOTH",
"47 119 OFFCURVE",
"161 -10 OFFCURVE",
"358 -10 CURVE SMOOTH"
);
},
{
closed = 1;
nodes = (
"447 776 OFFCURVE",
"496 818 OFFCURVE",
"501 895 CURVE",
"473 895 LINE",
"465 822 OFFCURVE",
"414 808 OFFCURVE",
"367 808 CURVE SMOOTH",
"319 808 OFFCURVE",
"268 822 OFFCURVE",
"259 895 CURVE",
"232 895 LINE",
"236 817 OFFCURVE",
"286 776 OFFCURVE",
"367 776 CURVE SMOOTH"
);
}
);
width = 683;
}
);
leftKerningGroup = G;
note = Gbreve;
unicode = 011E;
},
{
glyphname = Gcaron;
lastChange = "2015-10-12 07:30:33 +0000";
layers = (
{
layerId = "F37480E8-8A59-4A4C-8214-0802ED2944DD";
name = Light;
paths = (
{
closed = 1;
nodes = (
"496 -10 OFFCURVE",
"566 29 OFFCURVE",
"615 71 CURVE",
"615 251 LINE SMOOTH",
"615 318 OFFCURVE",
"624 335 OFFCURVE",
"665 335 CURVE SMOOTH",
"673 335 LINE",
"673 352 LINE",
"464 352 LINE",
"464 335 LINE",
"477 335 LINE SMOOTH",
"526 335 OFFCURVE",
"564 323 OFFCURVE",
"564 284 CURVE SMOOTH",
"564 80 LINE",
"510 30 OFFCURVE",
"422 19 OFFCURVE",
"369 19 CURVE SMOOTH",
"182 19 OFFCURVE",
"101 157 OFFCURVE",
"101 350 CURVE SMOOTH",
"101 544 OFFCURVE",
"193 680 OFFCURVE",
"377 680 CURVE SMOOTH",
"489 680 OFFCURVE",
"573 619 OFFCURVE",
"583 525 CURVE",
"601 525 LINE",
"601 705 LINE",
"576 705 LINE",
"576 655 LINE SMOOTH",
"576 643 OFFCURVE",
"573 641 OFFCURVE",
"569 641 CURVE SMOOTH",
"565 641 OFFCURVE",
"561 646 OFFCURVE",
"557 649 CURVE SMOOTH",
"524 673 OFFCURVE",
"468 710 OFFCURVE",
"371 710 CURVE SMOOTH",
"171 710 OFFCURVE",
"47 580 OFFCURVE",
"47 350 CURVE SMOOTH",
"47 119 OFFCURVE",
"161 -10 OFFCURVE",
"358 -10 CURVE SMOOTH"
);
},
{
closed = 1;
nodes = (
"400 785 LINE",
"509 892 LINE",
"493 910 LINE",
"399 831 LINE",
"393 827 OFFCURVE",
"388 824 OFFCURVE",
"384 824 CURVE SMOOTH",
"380 824 OFFCURVE",
"375 826 OFFCURVE",
"368 831 CURVE",
"274 910 LINE",
"258 892 LINE",
"367 785 LINE"
);
}
);
width = 683;
}
);
leftKerningGroup = G;
note = Gcaron;
unicode = 01E6;
},
{
glyphname = Gcircumflex;
lastChange = "2015-10-12 07:30:33 +0000";
layers = (
{
layerId = "F37480E8-8A59-4A4C-8214-0802ED2944DD";
name = Light;
paths = (
{
closed = 1;
nodes = (
"496 -10 OFFCURVE",
"566 29 OFFCURVE",
"615 71 CURVE",
"615 251 LINE SMOOTH",
"615 318 OFFCURVE",
"624 335 OFFCURVE",
"665 335 CURVE SMOOTH",
"673 335 LINE",
"673 352 LINE",
"464 352 LINE",
"464 335 LINE",
"477 335 LINE SMOOTH",
"526 335 OFFCURVE",
"564 323 OFFCURVE",
"564 284 CURVE SMOOTH",
"564 80 LINE",
"510 30 OFFCURVE",
"422 19 OFFCURVE",
"369 19 CURVE SMOOTH",
"182 19 OFFCURVE",
"101 157 OFFCURVE",
"101 350 CURVE SMOOTH",
"101 544 OFFCURVE",
"193 680 OFFCURVE",
"377 680 CURVE SMOOTH",
"489 680 OFFCURVE",
"573 619 OFFCURVE",
"583 525 CURVE",
"601 525 LINE",
"601 705 LINE",
"576 705 LINE",
"576 655 LINE SMOOTH",
"576 643 OFFCURVE",
"573 641 OFFCURVE",
"569 641 CURVE SMOOTH",
"565 641 OFFCURVE",
"561 646 OFFCURVE",
"557 649 CURVE SMOOTH",
"524 673 OFFCURVE",
"468 710 OFFCURVE",
"371 710 CURVE SMOOTH",
"171 710 OFFCURVE",
"47 580 OFFCURVE",
"47 350 CURVE SMOOTH",
"47 119 OFFCURVE",
"161 -10 OFFCURVE",
"358 -10 CURVE SMOOTH"
);
},
{
closed = 1;
nodes = (
"356 864 LINE",
"362 868 OFFCURVE",
"368 871 OFFCURVE",
"372 871 CURVE SMOOTH",
"376 871 OFFCURVE",
"381 868 OFFCURVE",
"387 864 CURVE",
"481 785 LINE",
"497 803 LINE",
"388 910 LINE",
"355 910 LINE",
"246 803 LINE",
"262 785 LINE"
);
}
);
width = 683;
}
);
leftKerningGroup = G;
note = Gcircumflex;
unicode = 011C;
},
{
glyphname = Gcommaaccent;
lastChange = "2015-10-12 07:30:33 +0000";
layers = (
{
layerId = "F37480E8-8A59-4A4C-8214-0802ED2944DD";
name = Light;
paths = (
{
closed = 1;
nodes = (
"496 -10 OFFCURVE",
"566 29 OFFCURVE",
"615 71 CURVE",
"615 251 LINE SMOOTH",
"615 318 OFFCURVE",
"624 335 OFFCURVE",
"665 335 CURVE SMOOTH",
"673 335 LINE",
"673 352 LINE",
"464 352 LINE",
"464 335 LINE",
"477 335 LINE SMOOTH",
"526 335 OFFCURVE",
"564 323 OFFCURVE",
"564 284 CURVE SMOOTH",
"564 80 LINE",
"510 30 OFFCURVE",
"422 19 OFFCURVE",
"369 19 CURVE SMOOTH",
"182 19 OFFCURVE",
"101 157 OFFCURVE",
"101 350 CURVE SMOOTH",
"101 544 OFFCURVE",
"193 680 OFFCURVE",
"377 680 CURVE SMOOTH",
"489 680 OFFCURVE",
"573 619 OFFCURVE",
"583 525 CURVE",
"601 525 LINE",
"601 705 LINE",
"576 705 LINE",
"576 655 LINE SMOOTH",
"576 643 OFFCURVE",
"573 641 OFFCURVE",
"569 641 CURVE SMOOTH",
"565 641 OFFCURVE",
"561 646 OFFCURVE",
"557 649 CURVE SMOOTH",
"524 673 OFFCURVE",
"468 710 OFFCURVE",
"371 710 CURVE SMOOTH",
"171 710 OFFCURVE",
"47 580 OFFCURVE",
"47 350 CURVE SMOOTH",
"47 119 OFFCURVE",
"161 -10 OFFCURVE",
"358 -10 CURVE SMOOTH"
);
},
{
closed = 1;
nodes = (
"387 -216 OFFCURVE",
"415 -166 OFFCURVE",
"415 -113 CURVE SMOOTH",
"415 -74 OFFCURVE",
"397 -63 OFFCURVE",
"378 -63 CURVE SMOOTH",
"357 -63 OFFCURVE",
"345 -77 OFFCURVE",
"345 -97 CURVE SMOOTH",
"345 -126 OFFCURVE",
"375 -128 OFFCURVE",
"375 -159 CURVE SMOOTH",
"375 -191 OFFCURVE",
"349 -220 OFFCURVE",
"326 -242 CURVE",
"337 -255 LINE"
);
}
);
width = 683;
}
);
leftKerningGroup = G;
note = Gcommaaccent;
unicode = 0122;
},
{
glyphname = Gdotaccent;
lastChange = "2015-10-12 07:30:33 +0000";
layers = (
{
layerId = "F37480E8-8A59-4A4C-8214-0802ED2944DD";
name = Light;
paths = (
{
closed = 1;
nodes = (
"496 -10 OFFCURVE",
"566 29 OFFCURVE",
"615 71 CURVE",
"615 251 LINE SMOOTH",
"615 318 OFFCURVE",
"624 335 OFFCURVE",
"665 335 CURVE SMOOTH",
"673 335 LINE",
"673 352 LINE",
"464 352 LINE",
"464 335 LINE",
"477 335 LINE SMOOTH",
"526 335 OFFCURVE",
"564 323 OFFCURVE",
"564 284 CURVE SMOOTH",
"564 80 LINE",
"510 30 OFFCURVE",
"422 19 OFFCURVE",
"369 19 CURVE SMOOTH",
"182 19 OFFCURVE",
"101 157 OFFCURVE",
"101 350 CURVE SMOOTH",
"101 544 OFFCURVE",
"193 680 OFFCURVE",
"377 680 CURVE SMOOTH",
"489 680 OFFCURVE",
"573 619 OFFCURVE",
"583 525 CURVE",
"601 525 LINE",
"601 705 LINE",
"576 705 LINE",
"576 655 LINE SMOOTH",
"576 643 OFFCURVE",
"573 641 OFFCURVE",
"569 641 CURVE SMOOTH",
"565 641 OFFCURVE",
"561 646 OFFCURVE",
"557 649 CURVE SMOOTH",
"524 673 OFFCURVE",
"468 710 OFFCURVE",
"371 710 CURVE SMOOTH",
"171 710 OFFCURVE",
"47 580 OFFCURVE",
"47 350 CURVE SMOOTH",
"47 119 OFFCURVE",
"161 -10 OFFCURVE",
"358 -10 CURVE SMOOTH"
);
},
{
closed = 1;
nodes = (
"391 761 OFFCURVE",
"405 774 OFFCURVE",
"405 796 CURVE SMOOTH",
"405 818 OFFCURVE",
"391 832 OFFCURVE",
"371 832 CURVE SMOOTH",
"350 832 OFFCURVE",
"336 818 OFFCURVE",
"336 796 CURVE SMOOTH",
"336 774 OFFCURVE",
"350 761 OFFCURVE",
"371 761 CURVE SMOOTH"
);
}
);
width = 683;
}
);
leftKerningGroup = G;
note = Gdotaccent;
unicode = 0120;
},
{
glyphname = Gmacron;
lastChange = "2015-10-12 07:30:32 +0000";
layers = (
{
layerId = "F37480E8-8A59-4A4C-8214-0802ED2944DD";
name = Light;
paths = (
{
closed = 1;
nodes = (
"496 -10 OFFCURVE",
"566 29 OFFCURVE",
"615 71 CURVE",
"615 251 LINE SMOOTH",
"615 318 OFFCURVE",
"624 335 OFFCURVE",
"665 335 CURVE SMOOTH",
"673 335 LINE",
"673 352 LINE",
"464 352 LINE",
"464 335 LINE",
"477 335 LINE SMOOTH",
"526 335 OFFCURVE",
"564 323 OFFCURVE",
"564 284 CURVE SMOOTH",
"564 80 LINE",
"510 30 OFFCURVE",
"422 19 OFFCURVE",
"369 19 CURVE SMOOTH",
"182 19 OFFCURVE",
"101 157 OFFCURVE",
"101 350 CURVE SMOOTH",
"101 544 OFFCURVE",
"193 680 OFFCURVE",
"377 680 CURVE SMOOTH",
"489 680 OFFCURVE",
"573 619 OFFCURVE",
"583 525 CURVE",
"601 525 LINE",
"601 705 LINE",
"576 705 LINE",
"576 655 LINE SMOOTH",
"576 643 OFFCURVE",
"573 641 OFFCURVE",
"569 641 CURVE SMOOTH",
"565 641 OFFCURVE",
"561 646 OFFCURVE",
"557 649 CURVE SMOOTH",
"524 673 OFFCURVE",
"468 710 OFFCURVE",
"371 710 CURVE SMOOTH",
"171 710 OFFCURVE",
"47 580 OFFCURVE",
"47 350 CURVE SMOOTH",
"47 119 OFFCURVE",
"161 -10 OFFCURVE",
"358 -10 CURVE SMOOTH"
);
},
{
closed = 1;
nodes = (
"513 786 LINE",
"513 815 LINE",
"220 815 LINE",
"220 786 LINE"
);
}
);
width = 683;
}
);
leftKerningGroup = G;
note = Gmacron;
unicode = 1E20;
},
{
glyphname = H;
lastChange = "2015-10-12 07:30:33 +0000";
layers = (
{
layerId = "F37480E8-8A59-4A4C-8214-0802ED2944DD";
name = Light;
paths = (
{
closed = 1;
nodes = (
"713 0 LINE",
"713 18 LINE",
"685 18 LINE SMOOTH",
"646 18 OFFCURVE",
"625 27 OFFCURVE",
"625 52 CURVE SMOOTH",
"625 647 LINE SMOOTH",
"625 672 OFFCURVE",
"646 681 OFFCURVE",
"685 681 CURVE SMOOTH",
"713 681 LINE",
"713 700 LINE",
"483 700 LINE",
"483 681 LINE",
"511 681 LINE SMOOTH",
"550 681 OFFCURVE",
"571 672 OFFCURVE",
"571 647 CURVE SMOOTH",
"571 52 LINE SMOOTH",
"571 27 OFFCURVE",
"550 18 OFFCURVE",
"511 18 CURVE SMOOTH",
"483 18 LINE",
"483 0 LINE"
);
},
{
closed = 1;
nodes = (
"257 0 LINE",
"257 18 LINE",
"229 18 LINE SMOOTH",
"190 18 OFFCURVE",
"169 27 OFFCURVE",
"169 52 CURVE SMOOTH",
"169 647 LINE SMOOTH",
"169 672 OFFCURVE",
"190 681 OFFCURVE",
"229 681 CURVE SMOOTH",
"257 681 LINE",
"257 700 LINE",
"27 700 LINE",
"27 681 LINE",
"55 681 LINE SMOOTH",
"94 681 OFFCURVE",
"115 672 OFFCURVE",
"115 647 CURVE SMOOTH",
"115 52 LINE SMOOTH",
"115 27 OFFCURVE",
"94 18 OFFCURVE",
"55 18 CURVE SMOOTH",
"27 18 LINE",
"27 0 LINE"
);
},
{
closed = 1;
nodes = (
"599 359 LINE",
"599 389 LINE",
"141 389 LINE",
"141 359 LINE"
);
}
);
width = 740;
}
);
note = H;
unicode = 0048;
},
{
glyphname = Hbar;
lastChange = "2015-10-12 07:30:33 +0000";
layers = (
{
layerId = "F37480E8-8A59-4A4C-8214-0802ED2944DD";
name = Light;
paths = (
{
closed = 1;
nodes = (
"713 0 LINE",
"713 18 LINE",
"685 18 LINE SMOOTH",
"646 18 OFFCURVE",
"625 27 OFFCURVE",
"625 52 CURVE SMOOTH",
"625 647 LINE SMOOTH",
"625 672 OFFCURVE",
"646 681 OFFCURVE",
"685 681 CURVE SMOOTH",
"713 681 LINE",
"713 700 LINE",
"483 700 LINE",
"483 681 LINE",
"511 681 LINE SMOOTH",
"550 681 OFFCURVE",
"571 672 OFFCURVE",
"571 647 CURVE SMOOTH",
"571 52 LINE SMOOTH",
"571 27 OFFCURVE",
"550 18 OFFCURVE",
"511 18 CURVE SMOOTH",
"483 18 LINE",
"483 0 LINE"
);
},
{
closed = 1;
nodes = (
"257 0 LINE",
"257 18 LINE",
"229 18 LINE SMOOTH",
"190 18 OFFCURVE",
"169 27 OFFCURVE",
"169 52 CURVE SMOOTH",
"169 647 LINE SMOOTH",
"169 672 OFFCURVE",
"190 681 OFFCURVE",
"229 681 CURVE SMOOTH",
"257 681 LINE",
"257 700 LINE",
"27 700 LINE",
"27 681 LINE",
"55 681 LINE SMOOTH",
"94 681 OFFCURVE",
"115 672 OFFCURVE",
"115 647 CURVE SMOOTH",
"115 52 LINE SMOOTH",
"115 27 OFFCURVE",
"94 18 OFFCURVE",
"55 18 CURVE SMOOTH",
"27 18 LINE",
"27 0 LINE"
);
},
{
closed = 1;
nodes = (
"599 359 LINE",
"599 389 LINE",
"141 389 LINE",
"141 359 LINE"
);
},
{
closed = 1;
nodes = (
"677 514 LINE",
"677 543 LINE",
"47 543 LINE",
"47 514 LINE"
);
}
);
width = 740;
}
);
note = Hbar;
unicode = 0126;
},
{
glyphname = Hbrevebelow;
lastChange = "2015-10-12 07:30:33 +0000";
layers = (
{
layerId = "F37480E8-8A59-4A4C-8214-0802ED2944DD";
name = Light;
paths = (
{
closed = 1;
nodes = (
"713 0 LINE",
"713 18 LINE",
"685 18 LINE SMOOTH",
"646 18 OFFCURVE",
"625 27 OFFCURVE",
"625 52 CURVE SMOOTH",
"625 647 LINE SMOOTH",
"625 672 OFFCURVE",
"646 681 OFFCURVE",
"685 681 CURVE SMOOTH",
"713 681 LINE",
"713 700 LINE",
"483 700 LINE",
"483 681 LINE",
"511 681 LINE SMOOTH",
"550 681 OFFCURVE",
"571 672 OFFCURVE",
"571 647 CURVE SMOOTH",
"571 52 LINE SMOOTH",
"571 27 OFFCURVE",
"550 18 OFFCURVE",
"511 18 CURVE SMOOTH",
"483 18 LINE",
"483 0 LINE"
);
},
{
closed = 1;
nodes = (
"449 -171 OFFCURVE",
"498 -130 OFFCURVE",
"503 -53 CURVE",
"475 -53 LINE",
"467 -125 OFFCURVE",
"416 -139 OFFCURVE",
"369 -139 CURVE SMOOTH",
"321 -139 OFFCURVE",
"270 -125 OFFCURVE",
"261 -53 CURVE",
"234 -53 LINE",
"238 -130 OFFCURVE",
"288 -171 OFFCURVE",
"369 -171 CURVE SMOOTH"
);
},
{
closed = 1;
nodes = (
"257 0 LINE",
"257 18 LINE",
"229 18 LINE SMOOTH",
"190 18 OFFCURVE",
"169 27 OFFCURVE",
"169 52 CURVE SMOOTH",
"169 647 LINE SMOOTH",
"169 672 OFFCURVE",
"190 681 OFFCURVE",
"229 681 CURVE SMOOTH",
"257 681 LINE",
"257 700 LINE",
"27 700 LINE",
"27 681 LINE",
"55 681 LINE SMOOTH",
"94 681 OFFCURVE",
"115 672 OFFCURVE",
"115 647 CURVE SMOOTH",
"115 52 LINE SMOOTH",
"115 27 OFFCURVE",
"94 18 OFFCURVE",
"55 18 CURVE SMOOTH",
"27 18 LINE",
"27 0 LINE"
);
},
{
closed = 1;
nodes = (
"599 359 LINE",
"599 389 LINE",
"141 389 LINE",
"141 359 LINE"
);
}
);
width = 740;
}
);
note = Hbrevebelow;
unicode = 1E2A;
},
{
glyphname = Hcircumflex;
lastChange = "2015-10-12 07:30:33 +0000";
layers = (
{
layerId = "F37480E8-8A59-4A4C-8214-0802ED2944DD";
name = Light;
paths = (
{
closed = 1;
nodes = (
"713 0 LINE",
"713 18 LINE",
"685 18 LINE SMOOTH",
"646 18 OFFCURVE",
"625 27 OFFCURVE",
"625 52 CURVE SMOOTH",
"625 647 LINE SMOOTH",
"625 672 OFFCURVE",
"646 681 OFFCURVE",
"685 681 CURVE SMOOTH",
"713 681 LINE",
"713 700 LINE",
"483 700 LINE",
"483 681 LINE",
"511 681 LINE SMOOTH",
"550 681 OFFCURVE",
"571 672 OFFCURVE",
"571 647 CURVE SMOOTH",
"571 52 LINE SMOOTH",
"571 27 OFFCURVE",
"550 18 OFFCURVE",
"511 18 CURVE SMOOTH",
"483 18 LINE",
"483 0 LINE"
);
},
{
closed = 1;
nodes = (
"257 0 LINE",
"257 18 LINE",
"229 18 LINE SMOOTH",
"190 18 OFFCURVE",
"169 27 OFFCURVE",
"169 52 CURVE SMOOTH",
"169 647 LINE SMOOTH",
"169 672 OFFCURVE",
"190 681 OFFCURVE",
"229 681 CURVE SMOOTH",
"257 681 LINE",
"257 700 LINE",
"27 700 LINE",
"27 681 LINE",
"55 681 LINE SMOOTH",
"94 681 OFFCURVE",
"115 672 OFFCURVE",
"115 647 CURVE SMOOTH",
"115 52 LINE SMOOTH",
"115 27 OFFCURVE",
"94 18 OFFCURVE",
"55 18 CURVE SMOOTH",
"27 18 LINE",
"27 0 LINE"
);
},
{
closed = 1;
nodes = (
"599 359 LINE",
"599 389 LINE",
"141 389 LINE",
"141 359 LINE"
);
},
{
closed = 1;
nodes = (
"354 864 LINE",
"360 868 OFFCURVE",
"366 871 OFFCURVE",
"370 871 CURVE SMOOTH",
"374 871 OFFCURVE",
"379 868 OFFCURVE",
"385 864 CURVE",
"479 785 LINE",
"495 803 LINE",
"386 910 LINE",
"353 910 LINE",
"244 803 LINE",
"260 785 LINE"
);
}
);
width = 740;
}
);
note = Hcircumflex;
unicode = 0124;
},
{
glyphname = Hdotbelow;
lastChange = "2015-10-12 07:30:33 +0000";
layers = (
{
layerId = "F37480E8-8A59-4A4C-8214-0802ED2944DD";
name = Light;
paths = (
{
closed = 1;
nodes = (
"713 0 LINE",
"713 18 LINE",
"685 18 LINE SMOOTH",
"646 18 OFFCURVE",
"625 27 OFFCURVE",
"625 52 CURVE SMOOTH",
"625 647 LINE SMOOTH",
"625 672 OFFCURVE",
"646 681 OFFCURVE",
"685 681 CURVE SMOOTH",
"713 681 LINE",
"713 700 LINE",
"483 700 LINE",
"483 681 LINE",
"511 681 LINE SMOOTH",
"550 681 OFFCURVE",
"571 672 OFFCURVE",
"571 647 CURVE SMOOTH",
"571 52 LINE SMOOTH",
"571 27 OFFCURVE",
"550 18 OFFCURVE",
"511 18 CURVE SMOOTH",
"483 18 LINE",
"483 0 LINE"
);
},
{
closed = 1;
nodes = (
"390 -136 OFFCURVE",
"404 -122 OFFCURVE",
"404 -100 CURVE SMOOTH",
"404 -78 OFFCURVE",
"390 -64 OFFCURVE",
"369 -64 CURVE SMOOTH",
"349 -64 OFFCURVE",
"334 -78 OFFCURVE",
"334 -100 CURVE SMOOTH",
"334 -122 OFFCURVE",
"349 -136 OFFCURVE",
"369 -136 CURVE SMOOTH"
);
},
{
closed = 1;
nodes = (
"257 0 LINE",
"257 18 LINE",
"229 18 LINE SMOOTH",
"190 18 OFFCURVE",
"169 27 OFFCURVE",
"169 52 CURVE SMOOTH",
"169 647 LINE SMOOTH",
"169 672 OFFCURVE",
"190 681 OFFCURVE",
"229 681 CURVE SMOOTH",
"257 681 LINE",
"257 700 LINE",
"27 700 LINE",
"27 681 LINE",
"55 681 LINE SMOOTH",
"94 681 OFFCURVE",
"115 672 OFFCURVE",
"115 647 CURVE SMOOTH",
"115 52 LINE SMOOTH",
"115 27 OFFCURVE",
"94 18 OFFCURVE",
"55 18 CURVE SMOOTH",
"27 18 LINE",
"27 0 LINE"
);
},
{
closed = 1;
nodes = (
"599 359 LINE",
"599 389 LINE",
"141 389 LINE",
"141 359 LINE"
);
}
);
width = 740;
}
);
note = Hdotbelow;
unicode = 1E24;
},
{
glyphname = I;
lastChange = "2015-10-12 07:30:31 +0000";
layers = (
{
layerId = "F37480E8-8A59-4A4C-8214-0802ED2944DD";
name = Light;
paths = (
{
closed = 1;
nodes = (
"260 0 LINE",
"260 18 LINE",
"232 18 LINE SMOOTH",
"193 18 OFFCURVE",
"172 27 OFFCURVE",
"172 52 CURVE SMOOTH",
"172 647 LINE SMOOTH",
"172 672 OFFCURVE",
"193 681 OFFCURVE",
"232 681 CURVE SMOOTH",
"260 681 LINE",
"260 700 LINE",
"30 700 LINE",
"30 681 LINE",
"58 681 LINE SMOOTH",
"97 681 OFFCURVE",
"118 672 OFFCURVE",
"118 647 CURVE SMOOTH",
"118 52 LINE SMOOTH",
"118 27 OFFCURVE",
"97 18 OFFCURVE",
"58 18 CURVE SMOOTH",
"30 18 LINE",
"30 0 LINE"
);
}
);
width = 290;
}
);
note = I;
unicode = 0049;
},
{
glyphname = IJ;
lastChange = "2015-10-12 07:30:33 +0000";
layers = (
{
layerId = "F37480E8-8A59-4A4C-8214-0802ED2944DD";
name = Light;
paths = (
{
closed = 1;
nodes = (
"406 -114 OFFCURVE",
"477 -47 OFFCURVE",
"477 68 CURVE SMOOTH",
"477 647 LINE SMOOTH",
"477 672 OFFCURVE",
"498 681 OFFCURVE",
"537 681 CURVE SMOOTH",
"565 681 LINE",
"565 700 LINE",
"335 700 LINE",
"335 681 LINE",
"363 681 LINE SMOOTH",
"402 681 OFFCURVE",
"423 672 OFFCURVE",
"423 647 CURVE SMOOTH",
"423 68 LINE SMOOTH",
"423 -26 OFFCURVE",
"372 -85 OFFCURVE",
"295 -97 CURVE",
"299 -114 LINE"
);
},
{
closed = 1;
nodes = (
"260 0 LINE",
"260 18 LINE",
"232 18 LINE SMOOTH",
"193 18 OFFCURVE",
"172 27 OFFCURVE",
"172 52 CURVE SMOOTH",
"172 647 LINE SMOOTH",
"172 672 OFFCURVE",
"193 681 OFFCURVE",
"232 681 CURVE SMOOTH",
"260 681 LINE",
"260 700 LINE",
"30 700 LINE",
"30 681 LINE",
"58 681 LINE SMOOTH",
"97 681 OFFCURVE",
"118 672 OFFCURVE",
"118 647 CURVE SMOOTH",
"118 52 LINE SMOOTH",
"118 27 OFFCURVE",
"97 18 OFFCURVE",
"58 18 CURVE SMOOTH",
"30 18 LINE",
"30 0 LINE"
);
}
);
width = 595;
}
);
note = IJ;
rightKerningGroup = J;
unicode = 0132;
},
{
glyphname = Iacute;
lastChange = "2015-10-12 07:30:33 +0000";
layers = (
{
layerId = "F37480E8-8A59-4A4C-8214-0802ED2944DD";
name = Light;
paths = (
{
closed = 1;
nodes = (
"260 0 LINE",
"260 18 LINE",
"232 18 LINE SMOOTH",
"193 18 OFFCURVE",
"172 27 OFFCURVE",
"172 52 CURVE SMOOTH",
"172 647 LINE SMOOTH",
"172 672 OFFCURVE",
"193 681 OFFCURVE",
"232 681 CURVE SMOOTH",
"260 681 LINE",
"260 700 LINE",
"30 700 LINE",
"30 681 LINE",
"58 681 LINE SMOOTH",
"97 681 OFFCURVE",
"118 672 OFFCURVE",
"118 647 CURVE SMOOTH",
"118 52 LINE SMOOTH",
"118 27 OFFCURVE",
"97 18 OFFCURVE",
"58 18 CURVE SMOOTH",
"30 18 LINE",
"30 0 LINE"
);
},
{
closed = 1;
nodes = (
"206 861 LINE SMOOTH",
"220 869 OFFCURVE",
"228 880 OFFCURVE",
"228 891 CURVE SMOOTH",
"228 902 OFFCURVE",
"220 910 OFFCURVE",
"208 910 CURVE SMOOTH",
"195 910 OFFCURVE",
"183 901 OFFCURVE",
"175 894 CURVE SMOOTH",
"65 801 LINE",
"76 786 LINE"
);
}
);
width = 290;
}
);
note = Iacute;
unicode = 00CD;
},
{
glyphname = Ibreve;
lastChange = "2015-10-12 07:30:32 +0000";
layers = (
{
layerId = "F37480E8-8A59-4A4C-8214-0802ED2944DD";
name = Light;
paths = (
{
closed = 1;
nodes = (
"260 0 LINE",
"260 18 LINE",
"232 18 LINE SMOOTH",
"193 18 OFFCURVE",
"172 27 OFFCURVE",
"172 52 CURVE SMOOTH",
"172 647 LINE SMOOTH",
"172 672 OFFCURVE",
"193 681 OFFCURVE",
"232 681 CURVE SMOOTH",
"260 681 LINE",
"260 700 LINE",
"30 700 LINE",
"30 681 LINE",
"58 681 LINE SMOOTH",
"97 681 OFFCURVE",
"118 672 OFFCURVE",
"118 647 CURVE SMOOTH",
"118 52 LINE SMOOTH",
"118 27 OFFCURVE",
"97 18 OFFCURVE",
"58 18 CURVE SMOOTH",
"30 18 LINE",
"30 0 LINE"
);
},
{
closed = 1;
nodes = (
"225 776 OFFCURVE",
"274 818 OFFCURVE",
"279 895 CURVE",
"251 895 LINE",
"243 822 OFFCURVE",
"192 808 OFFCURVE",
"145 808 CURVE SMOOTH",
"97 808 OFFCURVE",
"46 822 OFFCURVE",
"37 895 CURVE",
"10 895 LINE",
"14 817 OFFCURVE",
"64 776 OFFCURVE",
"145 776 CURVE SMOOTH"
);
}
);
width = 290;
}
);
note = Ibreve;
unicode = 012C;
},
{
glyphname = Icaron;
lastChange = "2015-10-12 07:30:33 +0000";
layers = (
{
layerId = "F37480E8-8A59-4A4C-8214-0802ED2944DD";
name = Light;
paths = (
{
closed = 1;
nodes = (
"260 0 LINE",
"260 18 LINE",
"232 18 LINE SMOOTH",
"193 18 OFFCURVE",
"172 27 OFFCURVE",
"172 52 CURVE SMOOTH",
"172 647 LINE SMOOTH",
"172 672 OFFCURVE",
"193 681 OFFCURVE",
"232 681 CURVE SMOOTH",
"260 681 LINE",
"260 700 LINE",
"30 700 LINE",
"30 681 LINE",
"58 681 LINE SMOOTH",
"97 681 OFFCURVE",
"118 672 OFFCURVE",
"118 647 CURVE SMOOTH",
"118 52 LINE SMOOTH",
"118 27 OFFCURVE",
"97 18 OFFCURVE",
"58 18 CURVE SMOOTH",
"30 18 LINE",
"30 0 LINE"
);
},
{
closed = 1;
nodes = (
"161 785 LINE",
"270 892 LINE",
"254 910 LINE",
"160 831 LINE",
"154 827 OFFCURVE",
"149 824 OFFCURVE",
"145 824 CURVE SMOOTH",
"141 824 OFFCURVE",
"136 826 OFFCURVE",
"129 831 CURVE",
"35 910 LINE",
"19 892 LINE",
"128 785 LINE"
);
}
);
width = 291;
}
);
note = Icaron;
unicode = 01CF;
},
{
glyphname = Icircumflex;
lastChange = "2015-10-12 07:30:33 +0000";
layers = (
{
layerId = "F37480E8-8A59-4A4C-8214-0802ED2944DD";
name = Light;
paths = (
{
closed = 1;
nodes = (
"260 0 LINE",
"260 18 LINE",
"232 18 LINE SMOOTH",
"193 18 OFFCURVE",
"172 27 OFFCURVE",
"172 52 CURVE SMOOTH",
"172 647 LINE SMOOTH",
"172 672 OFFCURVE",
"193 681 OFFCURVE",
"232 681 CURVE SMOOTH",
"260 681 LINE",
"260 700 LINE",
"30 700 LINE",
"30 681 LINE",
"58 681 LINE SMOOTH",
"97 681 OFFCURVE",
"118 672 OFFCURVE",
"118 647 CURVE SMOOTH",
"118 52 LINE SMOOTH",
"118 27 OFFCURVE",
"97 18 OFFCURVE",
"58 18 CURVE SMOOTH",
"30 18 LINE",
"30 0 LINE"
);
},
{
closed = 1;
nodes = (
"129 864 LINE",
"135 868 OFFCURVE",
"141 871 OFFCURVE",
"145 871 CURVE SMOOTH",
"149 871 OFFCURVE",
"154 868 OFFCURVE",
"160 864 CURVE",
"254 785 LINE",
"270 803 LINE",
"161 910 LINE",
"128 910 LINE",
"19 803 LINE",
"35 785 LINE"
);
}
);
width = 290;
}
);
note = Icircumflex;
unicode = 00CE;
},
{
glyphname = Idieresis;
lastChange = "2015-10-12 07:30:33 +0000";
layers = (
{
layerId = "F37480E8-8A59-4A4C-8214-0802ED2944DD";
name = Light;
paths = (
{
closed = 1;
nodes = (
"260 0 LINE",
"260 18 LINE",
"232 18 LINE SMOOTH",
"193 18 OFFCURVE",
"172 27 OFFCURVE",
"172 52 CURVE SMOOTH",
"172 647 LINE SMOOTH",
"172 672 OFFCURVE",
"193 681 OFFCURVE",
"232 681 CURVE SMOOTH",
"260 681 LINE",
"260 700 LINE",
"30 700 LINE",
"30 681 LINE",
"58 681 LINE SMOOTH",
"97 681 OFFCURVE",
"118 672 OFFCURVE",
"118 647 CURVE SMOOTH",
"118 52 LINE SMOOTH",
"118 27 OFFCURVE",
"97 18 OFFCURVE",
"58 18 CURVE SMOOTH",
"30 18 LINE",
"30 0 LINE"
);
},
{
closed = 1;
nodes = (
"64 783 OFFCURVE",
"78 797 OFFCURVE",
"78 819 CURVE SMOOTH",
"78 841 OFFCURVE",
"64 855 OFFCURVE",
"43 855 CURVE SMOOTH",
"22 855 OFFCURVE",
"8 841 OFFCURVE",
"8 819 CURVE SMOOTH",
"8 797 OFFCURVE",
"22 783 OFFCURVE",
"43 783 CURVE SMOOTH"
);
},
{
closed = 1;
nodes = (
"267 783 OFFCURVE",
"281 797 OFFCURVE",
"281 819 CURVE SMOOTH",
"281 841 OFFCURVE",
"267 855 OFFCURVE",
"246 855 CURVE SMOOTH",
"225 855 OFFCURVE",
"211 841 OFFCURVE",
"211 819 CURVE SMOOTH",
"211 797 OFFCURVE",
"225 783 OFFCURVE",
"246 783 CURVE SMOOTH"
);
}
);
width = 290;
}
);
note = Idieresis;
unicode = 00CF;
},
{
glyphname = Idotaccent;
lastChange = "2015-10-12 07:30:32 +0000";
layers = (
{
layerId = "F37480E8-8A59-4A4C-8214-0802ED2944DD";
name = Light;
paths = (
{
closed = 1;
nodes = (
"260 0 LINE",
"260 18 LINE",
"232 18 LINE SMOOTH",
"193 18 OFFCURVE",
"172 27 OFFCURVE",
"172 52 CURVE SMOOTH",
"172 647 LINE SMOOTH",
"172 672 OFFCURVE",
"193 681 OFFCURVE",
"232 681 CURVE SMOOTH",
"260 681 LINE",
"260 700 LINE",
"30 700 LINE",
"30 681 LINE",
"58 681 LINE SMOOTH",
"97 681 OFFCURVE",
"118 672 OFFCURVE",
"118 647 CURVE SMOOTH",
"118 52 LINE SMOOTH",
"118 27 OFFCURVE",
"97 18 OFFCURVE",
"58 18 CURVE SMOOTH",
"30 18 LINE",
"30 0 LINE"
);
},
{
closed = 1;
nodes = (
"165 761 OFFCURVE",
"179 774 OFFCURVE",
"179 796 CURVE SMOOTH",
"179 818 OFFCURVE",
"165 832 OFFCURVE",
"145 832 CURVE SMOOTH",
"124 832 OFFCURVE",
"110 818 OFFCURVE",
"110 796 CURVE SMOOTH",
"110 774 OFFCURVE",
"124 761 OFFCURVE",
"145 761 CURVE SMOOTH"
);
}
);
width = 290;
}
);
note = Idotaccent;
unicode = 0130;
},
{
glyphname = Idotbelow;
lastChange = "2015-10-12 07:30:33 +0000";
layers = (
{
layerId = "F37480E8-8A59-4A4C-8214-0802ED2944DD";
name = Light;
paths = (
{
closed = 1;
nodes = (
"260 0 LINE",
"260 18 LINE",
"232 18 LINE SMOOTH",
"193 18 OFFCURVE",
"172 27 OFFCURVE",
"172 52 CURVE SMOOTH",
"172 647 LINE SMOOTH",
"172 672 OFFCURVE",
"193 681 OFFCURVE",
"232 681 CURVE SMOOTH",
"260 681 LINE",
"260 700 LINE",
"30 700 LINE",
"30 681 LINE",
"58 681 LINE SMOOTH",
"97 681 OFFCURVE",
"118 672 OFFCURVE",
"118 647 CURVE SMOOTH",
"118 52 LINE SMOOTH",
"118 27 OFFCURVE",
"97 18 OFFCURVE",
"58 18 CURVE SMOOTH",
"30 18 LINE",
"30 0 LINE"
);
},
{
closed = 1;
nodes = (
"165 -136 OFFCURVE",
"179 -122 OFFCURVE",
"179 -100 CURVE SMOOTH",
"179 -78 OFFCURVE",
"165 -64 OFFCURVE",
"144 -64 CURVE SMOOTH",
"124 -64 OFFCURVE",
"109 -78 OFFCURVE",
"109 -100 CURVE SMOOTH",
"109 -122 OFFCURVE",
"124 -136 OFFCURVE",
"144 -136 CURVE SMOOTH"
);
}
);
width = 291;
}
);
note = Idotbelow;
unicode = 1ECA;
},
{
glyphname = Igrave;
lastChange = "2015-10-12 07:30:33 +0000";
layers = (
{
layerId = "F37480E8-8A59-4A4C-8214-0802ED2944DD";
name = Light;
paths = (
{
closed = 1;
nodes = (
"260 0 LINE",
"260 18 LINE",
"232 18 LINE SMOOTH",
"193 18 OFFCURVE",
"172 27 OFFCURVE",
"172 52 CURVE SMOOTH",
"172 647 LINE SMOOTH",
"172 672 OFFCURVE",
"193 681 OFFCURVE",
"232 681 CURVE SMOOTH",
"260 681 LINE",
"260 700 LINE",
"30 700 LINE",
"30 681 LINE",
"58 681 LINE SMOOTH",
"97 681 OFFCURVE",
"118 672 OFFCURVE",
"118 647 CURVE SMOOTH",
"118 52 LINE SMOOTH",
"118 27 OFFCURVE",
"97 18 OFFCURVE",
"58 18 CURVE SMOOTH",
"30 18 LINE",
"30 0 LINE"
);
},
{
closed = 1;
nodes = (
"226 801 LINE",
"116 894 LINE SMOOTH",
"107 902 OFFCURVE",
"96 910 OFFCURVE",
"84 910 CURVE SMOOTH",
"74 910 OFFCURVE",
"64 903 OFFCURVE",
"64 891 CURVE SMOOTH",
"64 879 OFFCURVE",
"73 868 OFFCURVE",
"85 861 CURVE SMOOTH",
"215 786 LINE"
);
}
);
width = 290;
}
);
note = Igrave;
unicode = 00CC;
},
{
glyphname = Ihookabove;
lastChange = "2015-10-12 07:30:33 +0000";
layers = (
{
layerId = "F37480E8-8A59-4A4C-8214-0802ED2944DD";
name = Light;
paths = (
{
closed = 1;
nodes = (
"260 0 LINE",
"260 18 LINE",
"232 18 LINE SMOOTH",
"193 18 OFFCURVE",
"172 27 OFFCURVE",
"172 52 CURVE SMOOTH",
"172 647 LINE SMOOTH",
"172 672 OFFCURVE",
"193 681 OFFCURVE",
"232 681 CURVE SMOOTH",
"260 681 LINE",
"260 700 LINE",
"30 700 LINE",
"30 681 LINE",
"58 681 LINE SMOOTH",
"97 681 OFFCURVE",
"118 672 OFFCURVE",
"118 647 CURVE SMOOTH",
"118 52 LINE SMOOTH",
"118 27 OFFCURVE",
"97 18 OFFCURVE",
"58 18 CURVE SMOOTH",
"30 18 LINE",
"30 0 LINE"
);
},
{
closed = 1;
nodes = (
"182 795 LINE",
"164 800 OFFCURVE",
"154 804 OFFCURVE",
"154 823 CURVE SMOOTH",
"154 854 OFFCURVE",
"234 871 OFFCURVE",
"234 918 CURVE SMOOTH",
"234 956 OFFCURVE",
"201 974 OFFCURVE",
"158 974 CURVE SMOOTH",
"115 974 OFFCURVE",
"82 957 OFFCURVE",
"82 929 CURVE SMOOTH",
"82 914 OFFCURVE",
"88 908 OFFCURVE",
"99 908 CURVE SMOOTH",
"114 908 OFFCURVE",
"116 917 OFFCURVE",
"121 931 CURVE SMOOTH",
"126 946 OFFCURVE",
"143 951 OFFCURVE",
"159 951 CURVE SMOOTH",
"185 951 OFFCURVE",
"195 937 OFFCURVE",
"195 921 CURVE SMOOTH",
"195 878 OFFCURVE",
"118 866 OFFCURVE",
"118 823 CURVE SMOOTH",
"118 798 OFFCURVE",
"136 778 OFFCURVE",
"174 778 CURVE"
);
}
);
width = 291;
}
);
note = Ihookabove;
unicode = 1EC8;
},
{
glyphname = Imacron;
lastChange = "2015-10-12 07:30:32 +0000";
layers = (
{
layerId = "F37480E8-8A59-4A4C-8214-0802ED2944DD";
name = Light;
paths = (
{
closed = 1;
nodes = (
"260 0 LINE",
"260 18 LINE",
"232 18 LINE SMOOTH",
"193 18 OFFCURVE",
"172 27 OFFCURVE",
"172 52 CURVE SMOOTH",
"172 647 LINE SMOOTH",
"172 672 OFFCURVE",
"193 681 OFFCURVE",
"232 681 CURVE SMOOTH",
"260 681 LINE",
"260 700 LINE",
"30 700 LINE",
"30 681 LINE",
"58 681 LINE SMOOTH",
"97 681 OFFCURVE",
"118 672 OFFCURVE",
"118 647 CURVE SMOOTH",
"118 52 LINE SMOOTH",
"118 27 OFFCURVE",
"97 18 OFFCURVE",
"58 18 CURVE SMOOTH",
"30 18 LINE",
"30 0 LINE"
);
},
{
closed = 1;
nodes = (
"320 786 LINE",
"320 816 LINE",
"-31 816 LINE",
"-31 786 LINE"
);
}
);
width = 290;
}
);
note = Imacron;
unicode = 012A;
},
{
glyphname = Iogonek;
lastChange = "2015-10-12 07:30:33 +0000";
layers = (
{
layerId = "F37480E8-8A59-4A4C-8214-0802ED2944DD";
name = Light;
paths = (
{
closed = 1;
nodes = (
"260 0 LINE",
"260 18 LINE",
"232 18 LINE SMOOTH",
"193 18 OFFCURVE",
"172 27 OFFCURVE",
"172 52 CURVE SMOOTH",
"172 647 LINE SMOOTH",
"172 672 OFFCURVE",
"193 681 OFFCURVE",
"232 681 CURVE SMOOTH",
"260 681 LINE",
"260 700 LINE",
"30 700 LINE",
"30 681 LINE",
"58 681 LINE SMOOTH",
"97 681 OFFCURVE",
"118 672 OFFCURVE",
"118 647 CURVE SMOOTH",
"118 52 LINE SMOOTH",
"118 27 OFFCURVE",
"97 18 OFFCURVE",
"58 18 CURVE SMOOTH",
"30 18 LINE",
"30 0 LINE"
);
},
{
closed = 1;
nodes = (
"215 -176 OFFCURVE",
"233 -172 OFFCURVE",
"256 -162 CURVE",
"254 -145 LINE",
"238 -150 OFFCURVE",
"223 -153 OFFCURVE",
"210 -153 CURVE SMOOTH",
"178 -153 OFFCURVE",
"150 -139 OFFCURVE",
"150 -100 CURVE SMOOTH",
"150 -60 OFFCURVE",
"179 -22 OFFCURVE",
"221 1 CURVE",
"190 1 LINE",
"143 -21 OFFCURVE",
"111 -58 OFFCURVE",
"111 -104 CURVE SMOOTH",
"111 -135 OFFCURVE",
"130 -176 OFFCURVE",
"192 -176 CURVE SMOOTH"
);
}
);
width = 290;
}
);
note = Iogonek;
unicode = 012E;
},
{
glyphname = Itilde;
lastChange = "2015-10-12 07:30:33 +0000";
layers = (
{
layerId = "F37480E8-8A59-4A4C-8214-0802ED2944DD";
name = Light;
paths = (
{
closed = 1;
nodes = (
"260 0 LINE",
"260 18 LINE",
"232 18 LINE SMOOTH",
"193 18 OFFCURVE",
"172 27 OFFCURVE",
"172 52 CURVE SMOOTH",
"172 647 LINE SMOOTH",
"172 672 OFFCURVE",
"193 681 OFFCURVE",
"232 681 CURVE SMOOTH",
"260 681 LINE",
"260 700 LINE",
"30 700 LINE",
"30 681 LINE",
"58 681 LINE SMOOTH",
"97 681 OFFCURVE",
"118 672 OFFCURVE",
"118 647 CURVE SMOOTH",
"118 52 LINE SMOOTH",
"118 27 OFFCURVE",
"97 18 OFFCURVE",
"58 18 CURVE SMOOTH",
"30 18 LINE",
"30 0 LINE"
);
},
{
closed = 1;
nodes = (
"24 822 OFFCURVE",
"43 845 OFFCURVE",
"73 845 CURVE SMOOTH",
"117 845 OFFCURVE",
"163 787 OFFCURVE",
"209 787 CURVE SMOOTH",
"255 787 OFFCURVE",
"283 821 OFFCURVE",
"293 875 CURVE",
"276 884 LINE",
"264 844 OFFCURVE",
"248 819 OFFCURVE",
"215 819 CURVE SMOOTH",
"173 819 OFFCURVE",
"124 876 OFFCURVE",
"78 876 CURVE SMOOTH",
"36 876 OFFCURVE",
"5 847 OFFCURVE",
"-4 793 CURVE",
"13 784 LINE"
);
}
);
width = 290;
}
);
note = Itilde;
unicode = 0128;
},
{
glyphname = J;
lastChange = "2015-10-12 07:30:31 +0000";
layers = (
{
layerId = "F37480E8-8A59-4A4C-8214-0802ED2944DD";
name = Light;
paths = (
{
closed = 1;
nodes = (
"139 -114 OFFCURVE",
"210 -47 OFFCURVE",
"210 68 CURVE SMOOTH",
"210 647 LINE SMOOTH",
"210 672 OFFCURVE",
"231 681 OFFCURVE",
"270 681 CURVE SMOOTH",
"298 681 LINE",
"298 700 LINE",
"68 700 LINE",
"68 681 LINE",
"96 681 LINE SMOOTH",
"135 681 OFFCURVE",
"156 672 OFFCURVE",
"156 647 CURVE SMOOTH",
"156 68 LINE SMOOTH",
"156 -26 OFFCURVE",
"105 -85 OFFCURVE",
"28 -97 CURVE",
"32 -114 LINE"
);
}
);
width = 328;
}
);
leftKerningGroup = J;
note = J;
rightKerningGroup = J;
unicode = 004A;
},
{
glyphname = Jcircumflex;
lastChange = "2015-10-12 07:30:33 +0000";
layers = (
{
layerId = "F37480E8-8A59-4A4C-8214-0802ED2944DD";
name = Light;
paths = (
{
closed = 1;
nodes = (
"139 -114 OFFCURVE",
"210 -47 OFFCURVE",
"210 68 CURVE SMOOTH",
"210 647 LINE SMOOTH",
"210 672 OFFCURVE",
"231 681 OFFCURVE",
"270 681 CURVE SMOOTH",
"298 681 LINE",
"298 700 LINE",
"68 700 LINE",
"68 681 LINE",
"96 681 LINE SMOOTH",
"135 681 OFFCURVE",
"156 672 OFFCURVE",
"156 647 CURVE SMOOTH",
"156 68 LINE SMOOTH",
"156 -26 OFFCURVE",
"105 -85 OFFCURVE",
"28 -97 CURVE",
"32 -114 LINE"
);
},
{
closed = 1;
nodes = (
"167 864 LINE",
"173 868 OFFCURVE",
"179 871 OFFCURVE",
"183 871 CURVE SMOOTH",
"187 871 OFFCURVE",
"192 868 OFFCURVE",
"198 864 CURVE",
"292 785 LINE",
"308 803 LINE",
"199 910 LINE",
"166 910 LINE",
"57 803 LINE",
"73 785 LINE"
);
}
);
width = 328;
}
);
leftKerningGroup = J;
note = Jcircumflex;
rightKerningGroup = J;
unicode = 0134;
},
{
glyphname = K;
lastChange = "2015-10-12 07:30:33 +0000";
layers = (
{
layerId = "F37480E8-8A59-4A4C-8214-0802ED2944DD";
name = Light;
paths = (
{
closed = 1;
nodes = (
"629 0 LINE",
"629 18 LINE",
"600 18 LINE SMOOTH",
"565 18 OFFCURVE",
"549 35 OFFCURVE",
"532 52 CURVE SMOOTH",
"207 376 LINE",
"171 342 LINE",
"513 0 LINE"
);
},
{
closed = 1;
nodes = (
"257 0 LINE",
"257 18 LINE",
"229 18 LINE SMOOTH",
"190 18 OFFCURVE",
"169 27 OFFCURVE",
"169 52 CURVE SMOOTH",
"169 647 LINE SMOOTH",
"169 672 OFFCURVE",
"190 681 OFFCURVE",
"229 681 CURVE SMOOTH",
"257 681 LINE",
"257 700 LINE",
"27 700 LINE",
"27 681 LINE",
"55 681 LINE SMOOTH",
"94 681 OFFCURVE",
"115 672 OFFCURVE",
"115 647 CURVE SMOOTH",
"115 52 LINE SMOOTH",
"115 27 OFFCURVE",
"94 18 OFFCURVE",
"55 18 CURVE SMOOTH",
"27 18 LINE",
"27 0 LINE"
);
},
{
closed = 1;
nodes = (
"526 655 LINE",
"540 669 OFFCURVE",
"554 681 OFFCURVE",
"586 681 CURVE SMOOTH",
"602 681 LINE",
"602 700 LINE",
"424 700 LINE",
"424 681 LINE",
"439 681 LINE SMOOTH",
"465 681 OFFCURVE",
"479 676 OFFCURVE",
"479 662 CURVE SMOOTH",
"479 659 OFFCURVE",
"477 655 OFFCURVE",
"473 650 CURVE",
"171 386 LINE",
"171 340 LINE"
);
}
);
width = 646;
}
);
note = K;
rightKerningGroup = K;
unicode = 004B;
},
{
glyphname = Kcommaaccent;
lastChange = "2015-10-12 07:30:33 +0000";
layers = (
{
layerId = "F37480E8-8A59-4A4C-8214-0802ED2944DD";
name = Light;
paths = (
{
closed = 1;
nodes = (
"629 0 LINE",
"629 18 LINE",
"600 18 LINE SMOOTH",
"565 18 OFFCURVE",
"549 35 OFFCURVE",
"532 52 CURVE SMOOTH",
"207 376 LINE",
"171 342 LINE",
"513 0 LINE"
);
},
{
closed = 1;
nodes = (
"363 -216 OFFCURVE",
"391 -166 OFFCURVE",
"391 -113 CURVE SMOOTH",
"391 -74 OFFCURVE",
"373 -63 OFFCURVE",
"354 -63 CURVE SMOOTH",
"333 -63 OFFCURVE",
"321 -77 OFFCURVE",
"321 -97 CURVE SMOOTH",
"321 -126 OFFCURVE",
"351 -128 OFFCURVE",
"351 -159 CURVE SMOOTH",
"351 -191 OFFCURVE",
"325 -220 OFFCURVE",
"302 -242 CURVE",
"313 -255 LINE"
);
},
{
closed = 1;
nodes = (
"257 0 LINE",
"257 18 LINE",
"229 18 LINE SMOOTH",
"190 18 OFFCURVE",
"169 27 OFFCURVE",
"169 52 CURVE SMOOTH",
"169 647 LINE SMOOTH",
"169 672 OFFCURVE",
"190 681 OFFCURVE",
"229 681 CURVE SMOOTH",
"257 681 LINE",
"257 700 LINE",
"27 700 LINE",
"27 681 LINE",
"55 681 LINE SMOOTH",
"94 681 OFFCURVE",
"115 672 OFFCURVE",
"115 647 CURVE SMOOTH",
"115 52 LINE SMOOTH",
"115 27 OFFCURVE",
"94 18 OFFCURVE",
"55 18 CURVE SMOOTH",
"27 18 LINE",
"27 0 LINE"
);
},
{
closed = 1;
nodes = (
"526 655 LINE",
"540 669 OFFCURVE",
"554 681 OFFCURVE",
"586 681 CURVE SMOOTH",
"602 681 LINE",
"602 700 LINE",
"424 700 LINE",
"424 681 LINE",
"439 681 LINE SMOOTH",
"465 681 OFFCURVE",
"479 676 OFFCURVE",
"479 662 CURVE SMOOTH",
"479 659 OFFCURVE",
"477 655 OFFCURVE",
"473 650 CURVE",
"171 386 LINE",
"171 340 LINE"
);
}
);
width = 646;
}
);
note = Kcommaaccent;
rightKerningGroup = K;
unicode = 0136;
},
{
glyphname = L;
lastChange = "2015-10-12 07:30:31 +0000";
layers = (
{
layerId = "F37480E8-8A59-4A4C-8214-0802ED2944DD";
name = Light;
paths = (
{
closed = 1;
nodes = (
"514 0 LINE",
"529 172 LINE",
"511 172 LINE",
"507 130 OFFCURVE",
"488 29 OFFCURVE",
"429 29 CURVE SMOOTH",
"230 29 LINE SMOOTH",
"192 29 OFFCURVE",
"170 39 OFFCURVE",
"170 65 CURVE SMOOTH",
"170 647 LINE SMOOTH",
"170 672 OFFCURVE",
"191 681 OFFCURVE",
"230 681 CURVE SMOOTH",
"257 681 LINE",
"257 700 LINE",
"28 700 LINE",
"28 681 LINE",
"55 681 LINE SMOOTH",
"94 681 OFFCURVE",
"116 672 OFFCURVE",
"116 647 CURVE SMOOTH",
"116 52 LINE SMOOTH",
"116 27 OFFCURVE",
"94 18 OFFCURVE",
"55 18 CURVE SMOOTH",
"28 18 LINE",
"28 0 LINE"
);
}
);
width = 549;
}
);
note = L;
rightKerningGroup = L;
unicode = 004C;
},
{
glyphname = Lacute;
lastChange = "2015-10-12 07:30:33 +0000";
layers = (
{
layerId = "F37480E8-8A59-4A4C-8214-0802ED2944DD";
name = Light;
paths = (
{
closed = 1;
nodes = (
"514 0 LINE",
"529 172 LINE",
"511 172 LINE",
"507 130 OFFCURVE",
"488 29 OFFCURVE",
"429 29 CURVE SMOOTH",
"230 29 LINE SMOOTH",
"192 29 OFFCURVE",
"170 39 OFFCURVE",
"170 65 CURVE SMOOTH",
"170 647 LINE SMOOTH",
"170 672 OFFCURVE",
"191 681 OFFCURVE",
"230 681 CURVE SMOOTH",
"257 681 LINE",
"257 700 LINE",
"28 700 LINE",
"28 681 LINE",
"55 681 LINE SMOOTH",
"94 681 OFFCURVE",
"116 672 OFFCURVE",
"116 647 CURVE SMOOTH",
"116 52 LINE SMOOTH",
"116 27 OFFCURVE",
"94 18 OFFCURVE",
"55 18 CURVE SMOOTH",
"28 18 LINE",
"28 0 LINE"
);
},
{
closed = 1;
nodes = (
"262 861 LINE SMOOTH",
"276 869 OFFCURVE",
"284 880 OFFCURVE",
"284 891 CURVE SMOOTH",
"284 902 OFFCURVE",
"276 910 OFFCURVE",
"264 910 CURVE SMOOTH",
"251 910 OFFCURVE",
"239 901 OFFCURVE",
"231 894 CURVE SMOOTH",
"121 801 LINE",
"132 786 LINE"
);
}
);
width = 549;
}
);
note = Lacute;
rightKerningGroup = L;
unicode = 0139;
},
{
glyphname = Lcaron;
lastChange = "2015-10-12 07:30:33 +0000";
layers = (
{
layerId = "F37480E8-8A59-4A4C-8214-0802ED2944DD";
name = Light;
paths = (
{
closed = 1;
nodes = (
"514 0 LINE",
"529 172 LINE",
"511 172 LINE",
"507 130 OFFCURVE",
"488 29 OFFCURVE",
"429 29 CURVE SMOOTH",
"230 29 LINE SMOOTH",
"192 29 OFFCURVE",
"170 39 OFFCURVE",
"170 65 CURVE SMOOTH",
"170 647 LINE SMOOTH",
"170 672 OFFCURVE",
"191 681 OFFCURVE",
"230 681 CURVE SMOOTH",
"257 681 LINE",
"257 700 LINE",
"28 700 LINE",
"28 681 LINE",
"55 681 LINE SMOOTH",
"94 681 OFFCURVE",
"116 672 OFFCURVE",
"116 647 CURVE SMOOTH",
"116 52 LINE SMOOTH",
"116 27 OFFCURVE",
"94 18 OFFCURVE",
"55 18 CURVE SMOOTH",
"28 18 LINE",
"28 0 LINE"
);
},
{
closed = 1;
nodes = (
"396 553 OFFCURVE",
"424 603 OFFCURVE",
"424 656 CURVE SMOOTH",
"424 695 OFFCURVE",
"406 705 OFFCURVE",
"387 705 CURVE SMOOTH",
"366 705 OFFCURVE",
"355 691 OFFCURVE",
"355 671 CURVE SMOOTH",
"355 643 OFFCURVE",
"384 640 OFFCURVE",
"384 610 CURVE SMOOTH",
"384 578 OFFCURVE",
"358 548 OFFCURVE",
"335 526 CURVE",
"346 514 LINE"
);
}
);
width = 549;
}
);
note = Lcaron;
rightKerningGroup = L;
unicode = 013D;
},
{
glyphname = Lcommaaccent;
lastChange = "2015-10-12 07:30:33 +0000";
layers = (
{
layerId = "F37480E8-8A59-4A4C-8214-0802ED2944DD";
name = Light;
paths = (
{
closed = 1;
nodes = (
"514 0 LINE",
"529 172 LINE",
"511 172 LINE",
"507 130 OFFCURVE",
"488 29 OFFCURVE",
"429 29 CURVE SMOOTH",
"230 29 LINE SMOOTH",
"192 29 OFFCURVE",
"170 39 OFFCURVE",
"170 65 CURVE SMOOTH",
"170 647 LINE SMOOTH",
"170 672 OFFCURVE",
"191 681 OFFCURVE",
"230 681 CURVE SMOOTH",
"257 681 LINE",
"257 700 LINE",
"28 700 LINE",
"28 681 LINE",
"55 681 LINE SMOOTH",
"94 681 OFFCURVE",
"116 672 OFFCURVE",
"116 647 CURVE SMOOTH",
"116 52 LINE SMOOTH",
"116 27 OFFCURVE",
"94 18 OFFCURVE",
"55 18 CURVE SMOOTH",
"28 18 LINE",
"28 0 LINE"
);
},
{
closed = 1;
nodes = (
"287 -216 OFFCURVE",
"315 -166 OFFCURVE",
"315 -113 CURVE SMOOTH",
"315 -74 OFFCURVE",
"297 -63 OFFCURVE",
"278 -63 CURVE SMOOTH",
"257 -63 OFFCURVE",
"245 -77 OFFCURVE",
"245 -97 CURVE SMOOTH",
"245 -126 OFFCURVE",
"275 -128 OFFCURVE",
"275 -159 CURVE SMOOTH",
"275 -191 OFFCURVE",
"249 -220 OFFCURVE",
"226 -242 CURVE",
"237 -255 LINE"
);
}
);
width = 549;
}
);
note = Lcommaaccent;
rightKerningGroup = L;
unicode = 013B;
},
{
glyphname = Ldot;
lastChange = "2015-10-12 07:30:33 +0000";
layers = (
{
layerId = "F37480E8-8A59-4A4C-8214-0802ED2944DD";
name = Light;
paths = (
{
closed = 1;
nodes = (
"514 0 LINE",
"529 172 LINE",
"511 172 LINE",
"507 130 OFFCURVE",
"488 29 OFFCURVE",
"429 29 CURVE SMOOTH",
"230 29 LINE SMOOTH",
"192 29 OFFCURVE",
"170 39 OFFCURVE",
"170 65 CURVE SMOOTH",
"170 647 LINE SMOOTH",
"170 672 OFFCURVE",
"191 681 OFFCURVE",
"230 681 CURVE SMOOTH",
"257 681 LINE",
"257 700 LINE",
"28 700 LINE",
"28 681 LINE",
"55 681 LINE SMOOTH",
"94 681 OFFCURVE",
"116 672 OFFCURVE",
"116 647 CURVE SMOOTH",
"116 52 LINE SMOOTH",
"116 27 OFFCURVE",
"94 18 OFFCURVE",
"55 18 CURVE SMOOTH",
"28 18 LINE",
"28 0 LINE"
);
},
{
closed = 1;
nodes = (
"359 310 OFFCURVE",
"373 324 OFFCURVE",
"373 346 CURVE SMOOTH",
"373 367 OFFCURVE",
"359 381 OFFCURVE",
"338 381 CURVE SMOOTH",
"318 381 OFFCURVE",
"304 367 OFFCURVE",
"304 346 CURVE SMOOTH",
"304 324 OFFCURVE",
"318 310 OFFCURVE",
"338 310 CURVE SMOOTH"
);
}
);
width = 549;
}
);
note = Ldot;
rightKerningGroup = L;
unicode = 013F;
},
{
glyphname = Ldotbelow;
lastChange = "2015-10-12 07:30:32 +0000";
layers = (
{
layerId = "F37480E8-8A59-4A4C-8214-0802ED2944DD";
name = Light;
paths = (
{
closed = 1;
nodes = (
"514 0 LINE",
"529 172 LINE",
"511 172 LINE",
"507 130 OFFCURVE",
"488 29 OFFCURVE",
"429 29 CURVE SMOOTH",
"230 29 LINE SMOOTH",
"192 29 OFFCURVE",
"170 39 OFFCURVE",
"170 65 CURVE SMOOTH",
"170 647 LINE SMOOTH",
"170 672 OFFCURVE",
"191 681 OFFCURVE",
"230 681 CURVE SMOOTH",
"257 681 LINE",
"257 700 LINE",
"28 700 LINE",
"28 681 LINE",
"55 681 LINE SMOOTH",
"94 681 OFFCURVE",
"116 672 OFFCURVE",
"116 647 CURVE SMOOTH",
"116 52 LINE SMOOTH",
"116 27 OFFCURVE",
"94 18 OFFCURVE",
"55 18 CURVE SMOOTH",
"28 18 LINE",
"28 0 LINE"
);
},
{
closed = 1;
nodes = (
"329 -128 OFFCURVE",
"343 -114 OFFCURVE",
"343 -92 CURVE SMOOTH",
"343 -70 OFFCURVE",
"329 -56 OFFCURVE",
"308 -56 CURVE SMOOTH",
"288 -56 OFFCURVE",
"273 -70 OFFCURVE",
"273 -92 CURVE SMOOTH",
"273 -114 OFFCURVE",
"288 -128 OFFCURVE",
"308 -128 CURVE SMOOTH"
);
}
);
width = 549;
}
);
note = Ldotbelow;
rightKerningGroup = L;
unicode = 1E36;
},
{
glyphname = Ldotbelowmacron;
lastChange = "2015-10-12 07:30:33 +0000";
layers = (
{
layerId = "F37480E8-8A59-4A4C-8214-0802ED2944DD";
name = Light;
paths = (
{
closed = 1;
nodes = (
"514 0 LINE",
"529 172 LINE",
"511 172 LINE",
"507 130 OFFCURVE",
"488 29 OFFCURVE",
"429 29 CURVE SMOOTH",
"230 29 LINE SMOOTH",
"192 29 OFFCURVE",
"170 39 OFFCURVE",
"170 65 CURVE SMOOTH",
"170 647 LINE SMOOTH",
"170 672 OFFCURVE",
"191 681 OFFCURVE",
"230 681 CURVE SMOOTH",
"257 681 LINE",
"257 700 LINE",
"28 700 LINE",
"28 681 LINE",
"55 681 LINE SMOOTH",
"94 681 OFFCURVE",
"116 672 OFFCURVE",
"116 647 CURVE SMOOTH",
"116 52 LINE SMOOTH",
"116 27 OFFCURVE",
"94 18 OFFCURVE",
"55 18 CURVE SMOOTH",
"28 18 LINE",
"28 0 LINE"
);
},
{
closed = 1;
nodes = (
"329 -128 OFFCURVE",
"343 -114 OFFCURVE",
"343 -92 CURVE SMOOTH",
"343 -70 OFFCURVE",
"329 -56 OFFCURVE",
"308 -56 CURVE SMOOTH",
"288 -56 OFFCURVE",
"273 -70 OFFCURVE",
"273 -92 CURVE SMOOTH",
"273 -114 OFFCURVE",
"288 -128 OFFCURVE",
"308 -128 CURVE SMOOTH"
);
},
{
closed = 1;
nodes = (
"306 783 LINE",
"306 812 LINE",
"12 812 LINE",
"12 783 LINE"
);
}
);
width = 549;
}
);
note = Ldotbelowmacron;
rightKerningGroup = L;
unicode = 1E38;
},
{
glyphname = Llinebelow;
lastChange = "2015-10-12 07:30:33 +0000";
layers = (
{
layerId = "F37480E8-8A59-4A4C-8214-0802ED2944DD";
name = Light;
paths = (
{
closed = 1;
nodes = (
"514 0 LINE",
"529 172 LINE",
"511 172 LINE",
"507 130 OFFCURVE",
"488 29 OFFCURVE",
"429 29 CURVE SMOOTH",
"230 29 LINE SMOOTH",
"192 29 OFFCURVE",
"170 39 OFFCURVE",
"170 65 CURVE SMOOTH",
"170 647 LINE SMOOTH",
"170 672 OFFCURVE",
"191 681 OFFCURVE",
"230 681 CURVE SMOOTH",
"257 681 LINE",
"257 700 LINE",
"28 700 LINE",
"28 681 LINE",
"55 681 LINE SMOOTH",
"94 681 OFFCURVE",
"116 672 OFFCURVE",
"116 647 CURVE SMOOTH",
"116 52 LINE SMOOTH",
"116 27 OFFCURVE",
"94 18 OFFCURVE",
"55 18 CURVE SMOOTH",
"28 18 LINE",
"28 0 LINE"
);
},
{
closed = 1;
nodes = (
"427 -102 LINE",
"427 -75 LINE",
"134 -75 LINE",
"134 -102 LINE"
);
}
);
width = 549;
}
);
note = Llinebelow;
rightKerningGroup = L;
unicode = 1E3A;
},
{
glyphname = Lslash;
lastChange = "2015-10-12 07:30:32 +0000";
layers = (
{
layerId = "F37480E8-8A59-4A4C-8214-0802ED2944DD";
name = Light;
paths = (
{
closed = 1;
nodes = (
"514 0 LINE",
"529 172 LINE",
"511 172 LINE",
"507 130 OFFCURVE",
"488 29 OFFCURVE",
"429 29 CURVE SMOOTH",
"230 29 LINE SMOOTH",
"192 29 OFFCURVE",
"170 39 OFFCURVE",
"170 65 CURVE SMOOTH",
"170 647 LINE SMOOTH",
"170 672 OFFCURVE",
"191 681 OFFCURVE",
"230 681 CURVE SMOOTH",
"257 681 LINE",
"257 700 LINE",
"28 700 LINE",
"28 681 LINE",
"55 681 LINE SMOOTH",
"94 681 OFFCURVE",
"116 672 OFFCURVE",
"116 647 CURVE SMOOTH",
"116 52 LINE SMOOTH",
"116 27 OFFCURVE",
"94 18 OFFCURVE",
"55 18 CURVE SMOOTH",
"28 18 LINE",
"28 0 LINE"
);
},
{
closed = 1;
nodes = (
"388 385 LINE",
"388 421 LINE",
"30 290 LINE",
"30 254 LINE"
);
}
);
width = 549;
}
);
note = Lslash;
rightKerningGroup = L;
unicode = 0141;
},
{
glyphname = M;
lastChange = "2015-10-12 07:30:31 +0000";
layers = (
{
layerId = "F37480E8-8A59-4A4C-8214-0802ED2944DD";
name = Light;
paths = (
{
closed = 1;
nodes = (
"241 0 LINE",
"241 18 LINE",
"213 18 LINE SMOOTH",
"174 18 OFFCURVE",
"153 27 OFFCURVE",
"153 52 CURVE SMOOTH",
"153 642 LINE",
"407 78 LINE",
"440 78 LINE",
"696 642 LINE",
"696 52 LINE SMOOTH",
"696 27 OFFCURVE",
"674 18 OFFCURVE",
"635 18 CURVE SMOOTH",
"608 18 LINE",
"608 0 LINE",
"837 0 LINE",
"837 18 LINE",
"810 18 LINE SMOOTH",
"771 18 OFFCURVE",
"750 27 OFFCURVE",
"750 52 CURVE SMOOTH",
"750 647 LINE SMOOTH",
"750 672 OFFCURVE",
"771 681 OFFCURVE",
"810 681 CURVE SMOOTH",
"837 681 LINE",
"837 700 LINE",
"680 700 LINE",
"430 137 LINE",
"181 700 LINE",
"27 700 LINE",
"27 681 LINE",
"55 681 LINE SMOOTH",
"94 681 OFFCURVE",
"115 672 OFFCURVE",
"115 647 CURVE SMOOTH",
"115 52 LINE SMOOTH",
"115 27 OFFCURVE",
"94 18 OFFCURVE",
"55 18 CURVE SMOOTH",
"27 18 LINE",
"27 0 LINE"
);
}
);
width = 864;
}
);
note = M;
unicode = 004D;
},
{
glyphname = Mdotbelow;
lastChange = "2015-10-12 07:30:33 +0000";
layers = (
{
layerId = "F37480E8-8A59-4A4C-8214-0802ED2944DD";
name = Light;
paths = (
{
closed = 1;
nodes = (
"241 0 LINE",
"241 18 LINE",
"213 18 LINE SMOOTH",
"174 18 OFFCURVE",
"153 27 OFFCURVE",
"153 52 CURVE SMOOTH",
"153 642 LINE",
"407 78 LINE",
"440 78 LINE",
"696 642 LINE",
"696 52 LINE SMOOTH",
"696 27 OFFCURVE",
"674 18 OFFCURVE",
"635 18 CURVE SMOOTH",
"608 18 LINE",
"608 0 LINE",
"837 0 LINE",
"837 18 LINE",
"810 18 LINE SMOOTH",
"771 18 OFFCURVE",
"750 27 OFFCURVE",
"750 52 CURVE SMOOTH",
"750 647 LINE SMOOTH",
"750 672 OFFCURVE",
"771 681 OFFCURVE",
"810 681 CURVE SMOOTH",
"837 681 LINE",
"837 700 LINE",
"680 700 LINE",
"430 137 LINE",
"181 700 LINE",
"27 700 LINE",
"27 681 LINE",
"55 681 LINE SMOOTH",
"94 681 OFFCURVE",
"115 672 OFFCURVE",
"115 647 CURVE SMOOTH",
"115 52 LINE SMOOTH",
"115 27 OFFCURVE",
"94 18 OFFCURVE",
"55 18 CURVE SMOOTH",
"27 18 LINE",
"27 0 LINE"
);
},
{
closed = 1;
nodes = (
"452 -136 OFFCURVE",
"466 -122 OFFCURVE",
"466 -100 CURVE SMOOTH",
"466 -78 OFFCURVE",
"452 -64 OFFCURVE",
"431 -64 CURVE SMOOTH",
"411 -64 OFFCURVE",
"396 -78 OFFCURVE",
"396 -100 CURVE SMOOTH",
"396 -122 OFFCURVE",
"411 -136 OFFCURVE",
"431 -136 CURVE SMOOTH"
);
}
);
width = 865;
}
);
note = Mdotbelow;
unicode = 1E42;
},
{
glyphname = N;
lastChange = "2015-10-12 07:30:31 +0000";
layers = (
{
layerId = "F37480E8-8A59-4A4C-8214-0802ED2944DD";
name = Light;
paths = (
{
closed = 1;
nodes = (
"241 0 LINE",
"241 18 LINE",
"213 18 LINE SMOOTH",
"174 18 OFFCURVE",
"153 27 OFFCURVE",
"153 52 CURVE SMOOTH",
"153 666 LINE",
"581 0 LINE",
"621 0 LINE",
"621 647 LINE SMOOTH",
"621 672 OFFCURVE",
"642 681 OFFCURVE",
"681 681 CURVE SMOOTH",
"709 681 LINE",
"709 700 LINE",
"495 700 LINE",
"495 681 LINE",
"523 681 LINE SMOOTH",
"562 681 OFFCURVE",
"583 672 OFFCURVE",
"583 647 CURVE SMOOTH",
"583 76 LINE",
"188 700 LINE",
"27 700 LINE",
"27 681 LINE",
"55 681 LINE SMOOTH",
"94 681 OFFCURVE",
"115 672 OFFCURVE",
"115 647 CURVE SMOOTH",
"115 52 LINE SMOOTH",
"115 27 OFFCURVE",
"94 18 OFFCURVE",
"55 18 CURVE SMOOTH",
"27 18 LINE",
"27 0 LINE"
);
}
);
width = 736;
}
);
note = N;
unicode = 004E;
},
{
glyphname = Nacute;
lastChange = "2015-10-12 07:30:33 +0000";
layers = (
{
layerId = "F37480E8-8A59-4A4C-8214-0802ED2944DD";
name = Light;
paths = (
{
closed = 1;
nodes = (
"241 0 LINE",
"241 18 LINE",
"213 18 LINE SMOOTH",
"174 18 OFFCURVE",
"153 27 OFFCURVE",
"153 52 CURVE SMOOTH",
"153 666 LINE",
"581 0 LINE",
"621 0 LINE",
"621 647 LINE SMOOTH",
"621 672 OFFCURVE",
"642 681 OFFCURVE",
"681 681 CURVE SMOOTH",
"709 681 LINE",
"709 700 LINE",
"495 700 LINE",
"495 681 LINE",
"523 681 LINE SMOOTH",
"562 681 OFFCURVE",
"583 672 OFFCURVE",
"583 647 CURVE SMOOTH",
"583 76 LINE",
"188 700 LINE",
"27 700 LINE",
"27 681 LINE",
"55 681 LINE SMOOTH",
"94 681 OFFCURVE",
"115 672 OFFCURVE",
"115 647 CURVE SMOOTH",
"115 52 LINE SMOOTH",
"115 27 OFFCURVE",
"94 18 OFFCURVE",
"55 18 CURVE SMOOTH",
"27 18 LINE",
"27 0 LINE"
);
},
{
closed = 1;
nodes = (
"438 861 LINE SMOOTH",
"452 869 OFFCURVE",
"460 880 OFFCURVE",
"460 891 CURVE SMOOTH",
"460 902 OFFCURVE",
"452 910 OFFCURVE",
"440 910 CURVE SMOOTH",
"427 910 OFFCURVE",
"415 901 OFFCURVE",
"407 894 CURVE SMOOTH",
"297 801 LINE",
"308 786 LINE"
);
}
);
width = 736;
}
);
note = Nacute;
unicode = 0143;
},
{
glyphname = Ncaron;
lastChange = "2015-10-12 07:30:33 +0000";
layers = (
{
layerId = "F37480E8-8A59-4A4C-8214-0802ED2944DD";
name = Light;
paths = (
{
closed = 1;
nodes = (
"241 0 LINE",
"241 18 LINE",
"213 18 LINE SMOOTH",
"174 18 OFFCURVE",
"153 27 OFFCURVE",
"153 52 CURVE SMOOTH",
"153 666 LINE",
"581 0 LINE",
"621 0 LINE",
"621 647 LINE SMOOTH",
"621 672 OFFCURVE",
"642 681 OFFCURVE",
"681 681 CURVE SMOOTH",
"709 681 LINE",
"709 700 LINE",
"495 700 LINE",
"495 681 LINE",
"523 681 LINE SMOOTH",
"562 681 OFFCURVE",
"583 672 OFFCURVE",
"583 647 CURVE SMOOTH",
"583 76 LINE",
"188 700 LINE",
"27 700 LINE",
"27 681 LINE",
"55 681 LINE SMOOTH",
"94 681 OFFCURVE",
"115 672 OFFCURVE",
"115 647 CURVE SMOOTH",
"115 52 LINE SMOOTH",
"115 27 OFFCURVE",
"94 18 OFFCURVE",
"55 18 CURVE SMOOTH",
"27 18 LINE",
"27 0 LINE"
);
},
{
closed = 1;
nodes = (
"388 785 LINE",
"497 892 LINE",
"481 910 LINE",
"387 831 LINE",
"381 827 OFFCURVE",
"376 824 OFFCURVE",
"372 824 CURVE SMOOTH",
"368 824 OFFCURVE",
"363 826 OFFCURVE",
"356 831 CURVE",
"262 910 LINE",
"246 892 LINE",
"355 785 LINE"
);
}
);
width = 736;
}
);
note = Ncaron;
unicode = 0147;
},
{
glyphname = Ncommaaccent;
lastChange = "2015-10-12 07:30:33 +0000";
layers = (
{
layerId = "F37480E8-8A59-4A4C-8214-0802ED2944DD";
name = Light;
paths = (
{
closed = 1;
nodes = (
"241 0 LINE",
"241 18 LINE",
"213 18 LINE SMOOTH",
"174 18 OFFCURVE",
"153 27 OFFCURVE",
"153 52 CURVE SMOOTH",
"153 666 LINE",
"581 0 LINE",
"621 0 LINE",
"621 647 LINE SMOOTH",
"621 672 OFFCURVE",
"642 681 OFFCURVE",
"681 681 CURVE SMOOTH",
"709 681 LINE",
"709 700 LINE",
"495 700 LINE",
"495 681 LINE",
"523 681 LINE SMOOTH",
"562 681 OFFCURVE",
"583 672 OFFCURVE",
"583 647 CURVE SMOOTH",
"583 76 LINE",
"188 700 LINE",
"27 700 LINE",
"27 681 LINE",
"55 681 LINE SMOOTH",
"94 681 OFFCURVE",
"115 672 OFFCURVE",
"115 647 CURVE SMOOTH",
"115 52 LINE SMOOTH",
"115 27 OFFCURVE",
"94 18 OFFCURVE",
"55 18 CURVE SMOOTH",
"27 18 LINE",
"27 0 LINE"
);
},
{
closed = 1;
nodes = (
"355 -216 OFFCURVE",
"383 -166 OFFCURVE",
"383 -113 CURVE SMOOTH",
"383 -74 OFFCURVE",
"365 -63 OFFCURVE",
"346 -63 CURVE SMOOTH",
"325 -63 OFFCURVE",
"313 -77 OFFCURVE",
"313 -97 CURVE SMOOTH",
"313 -126 OFFCURVE",
"343 -128 OFFCURVE",
"343 -159 CURVE SMOOTH",
"343 -191 OFFCURVE",
"317 -220 OFFCURVE",
"294 -242 CURVE",
"305 -255 LINE"
);
}
);
width = 736;
}
);
note = Ncommaaccent;
unicode = 0145;
},
{
glyphname = Ndotaccent;
lastChange = "2015-10-12 07:30:33 +0000";
layers = (
{
layerId = "F37480E8-8A59-4A4C-8214-0802ED2944DD";
name = Light;
paths = (
{
closed = 1;
nodes = (
"241 0 LINE",
"241 18 LINE",
"213 18 LINE SMOOTH",
"174 18 OFFCURVE",
"153 27 OFFCURVE",
"153 52 CURVE SMOOTH",
"153 666 LINE",
"581 0 LINE",
"621 0 LINE",
"621 647 LINE SMOOTH",
"621 672 OFFCURVE",
"642 681 OFFCURVE",
"681 681 CURVE SMOOTH",
"709 681 LINE",
"709 700 LINE",
"495 700 LINE",
"495 681 LINE",
"523 681 LINE SMOOTH",
"562 681 OFFCURVE",
"583 672 OFFCURVE",
"583 647 CURVE SMOOTH",
"583 76 LINE",
"188 700 LINE",
"27 700 LINE",
"27 681 LINE",
"55 681 LINE SMOOTH",
"94 681 OFFCURVE",
"115 672 OFFCURVE",
"115 647 CURVE SMOOTH",
"115 52 LINE SMOOTH",
"115 27 OFFCURVE",
"94 18 OFFCURVE",
"55 18 CURVE SMOOTH",
"27 18 LINE",
"27 0 LINE"
);
},
{
closed = 1;
nodes = (
"387 761 OFFCURVE",
"401 774 OFFCURVE",
"401 796 CURVE SMOOTH",
"401 818 OFFCURVE",
"387 832 OFFCURVE",
"367 832 CURVE SMOOTH",
"346 832 OFFCURVE",
"332 818 OFFCURVE",
"332 796 CURVE SMOOTH",
"332 774 OFFCURVE",
"346 761 OFFCURVE",
"367 761 CURVE SMOOTH"
);
}
);
width = 736;
}
);
note = Ndotaccent;
unicode = 1E44;
},
{
glyphname = Ndotbelow;
lastChange = "2015-12-01 06:36:15 +0000";
layers = (
{
layerId = "F37480E8-8A59-4A4C-8214-0802ED2944DD";
name = Light;
paths = (
{
closed = 1;
nodes = (
"241 0 LINE",
"241 18 LINE",
"213 18 LINE SMOOTH",
"174 18 OFFCURVE",
"153 27 OFFCURVE",
"153 52 CURVE SMOOTH",
"153 666 LINE",
"581 0 LINE",
"621 0 LINE",
"621 647 LINE SMOOTH",
"621 672 OFFCURVE",
"642 681 OFFCURVE",
"681 681 CURVE SMOOTH",
"709 681 LINE",
"709 700 LINE",
"495 700 LINE",
"495 681 LINE",
"523 681 LINE SMOOTH",
"562 681 OFFCURVE",
"583 672 OFFCURVE",
"583 647 CURVE SMOOTH",
"583 76 LINE",
"188 700 LINE",
"27 700 LINE",
"27 681 LINE",
"55 681 LINE SMOOTH",
"94 681 OFFCURVE",
"115 672 OFFCURVE",
"115 647 CURVE SMOOTH",
"115 52 LINE SMOOTH",
"115 27 OFFCURVE",
"94 18 OFFCURVE",
"55 18 CURVE SMOOTH",
"27 18 LINE",
"27 0 LINE"
);
},
{
closed = 1;
nodes = (
"402 -136 OFFCURVE",
"416 -122 OFFCURVE",
"416 -100 CURVE SMOOTH",
"416 -78 OFFCURVE",
"402 -64 OFFCURVE",
"381 -64 CURVE SMOOTH",
"361 -64 OFFCURVE",
"346 -78 OFFCURVE",
"346 -100 CURVE SMOOTH",
"346 -122 OFFCURVE",
"361 -136 OFFCURVE",
"381 -136 CURVE SMOOTH"
);
}
);
width = 736;
}
);
note = uni1E46;
unicode = 1E46;
},
{
glyphname = Eng;
lastChange = "2015-10-12 07:30:32 +0000";
layers = (
{
layerId = "F37480E8-8A59-4A4C-8214-0802ED2944DD";
name = Light;
paths = (
{
closed = 1;
nodes = (
"557 -241 OFFCURVE",
"612 -179 OFFCURVE",
"619 -77 CURVE SMOOTH",
"620 -56 OFFCURVE",
"621 -36 OFFCURVE",
"621 -13 CURVE SMOOTH",
"621 647 LINE SMOOTH",
"621 672 OFFCURVE",
"642 681 OFFCURVE",
"681 681 CURVE SMOOTH",
"709 681 LINE",
"709 700 LINE",
"495 700 LINE",
"495 681 LINE",
"523 681 LINE SMOOTH",
"562 681 OFFCURVE",
"583 672 OFFCURVE",
"583 647 CURVE SMOOTH",
"583 75 LINE",
"189 700 LINE",
"27 700 LINE",
"27 681 LINE",
"55 681 LINE SMOOTH",
"94 681 OFFCURVE",
"115 672 OFFCURVE",
"115 647 CURVE SMOOTH",
"115 52 LINE SMOOTH",
"115 27 OFFCURVE",
"95 18 OFFCURVE",
"55 18 CURVE SMOOTH",
"27 18 LINE",
"27 0 LINE",
"241 0 LINE",
"241 18 LINE",
"213 18 LINE SMOOTH",
"174 18 OFFCURVE",
"153 27 OFFCURVE",
"153 52 CURVE SMOOTH",
"153 668 LINE",
"172 642 LINE",
"580 0 LINE",
"580 -68 LINE SMOOTH",
"580 -161 OFFCURVE",
"516 -220 OFFCURVE",
"439 -227 CURVE",
"443 -246 LINE"
);
}
);
width = 736;
}
);
note = Eng;
unicode = 014A;
},
{
glyphname = Nlinebelow;
lastChange = "2015-10-12 07:30:33 +0000";
layers = (
{
layerId = "F37480E8-8A59-4A4C-8214-0802ED2944DD";
name = Light;
paths = (
{
closed = 1;
nodes = (
"241 0 LINE",
"241 18 LINE",
"213 18 LINE SMOOTH",
"174 18 OFFCURVE",
"153 27 OFFCURVE",
"153 52 CURVE SMOOTH",
"153 666 LINE",
"581 0 LINE",
"621 0 LINE",
"621 647 LINE SMOOTH",
"621 672 OFFCURVE",
"642 681 OFFCURVE",
"681 681 CURVE SMOOTH",
"709 681 LINE",
"709 700 LINE",
"495 700 LINE",
"495 681 LINE",
"523 681 LINE SMOOTH",
"562 681 OFFCURVE",
"583 672 OFFCURVE",
"583 647 CURVE SMOOTH",
"583 76 LINE",
"188 700 LINE",
"27 700 LINE",
"27 681 LINE",
"55 681 LINE SMOOTH",
"94 681 OFFCURVE",
"115 672 OFFCURVE",
"115 647 CURVE SMOOTH",
"115 52 LINE SMOOTH",
"115 27 OFFCURVE",
"94 18 OFFCURVE",
"55 18 CURVE SMOOTH",
"27 18 LINE",
"27 0 LINE"
);
},
{
closed = 1;
nodes = (
"512 -102 LINE",
"512 -75 LINE",
"219 -75 LINE",
"219 -102 LINE"
);
}
);
width = 736;
}
);
note = Nlinebelow;
unicode = 1E48;
},
{
glyphname = Ntilde;
lastChange = "2015-10-12 07:30:33 +0000";
layers = (
{
layerId = "F37480E8-8A59-4A4C-8214-0802ED2944DD";
name = Light;
paths = (
{
closed = 1;
nodes = (
"241 0 LINE",
"241 18 LINE",
"213 18 LINE SMOOTH",
"174 18 OFFCURVE",
"153 27 OFFCURVE",
"153 52 CURVE SMOOTH",
"153 666 LINE",
"581 0 LINE",
"621 0 LINE",
"621 647 LINE SMOOTH",
"621 672 OFFCURVE",
"642 681 OFFCURVE",
"681 681 CURVE SMOOTH",
"709 681 LINE",
"709 700 LINE",
"495 700 LINE",
"495 681 LINE",
"523 681 LINE SMOOTH",
"562 681 OFFCURVE",
"583 672 OFFCURVE",
"583 647 CURVE SMOOTH",
"583 76 LINE",
"188 700 LINE",
"27 700 LINE",
"27 681 LINE",
"55 681 LINE SMOOTH",
"94 681 OFFCURVE",
"115 672 OFFCURVE",
"115 647 CURVE SMOOTH",
"115 52 LINE SMOOTH",
"115 27 OFFCURVE",
"94 18 OFFCURVE",
"55 18 CURVE SMOOTH",
"27 18 LINE",
"27 0 LINE"
);
},
{
closed = 1;
nodes = (
"255 822 OFFCURVE",
"274 845 OFFCURVE",
"304 845 CURVE SMOOTH",
"348 845 OFFCURVE",
"394 787 OFFCURVE",
"440 787 CURVE SMOOTH",
"486 787 OFFCURVE",
"514 821 OFFCURVE",
"524 875 CURVE",
"507 884 LINE",
"495 844 OFFCURVE",
"479 819 OFFCURVE",
"446 819 CURVE SMOOTH",
"404 819 OFFCURVE",
"355 876 OFFCURVE",
"309 876 CURVE SMOOTH",
"267 876 OFFCURVE",
"236 847 OFFCURVE",
"227 793 CURVE",
"244 784 LINE"
);
}
);
width = 736;
}
);
note = Ntilde;
unicode = 00D1;
},
{
glyphname = O;
lastChange = "2015-10-12 07:30:33 +0000";
layers = (
{
layerId = "F37480E8-8A59-4A4C-8214-0802ED2944DD";
name = Light;
paths = (
{
closed = 1;
nodes = (
"564 -10 OFFCURVE",
"682 119 OFFCURVE",
"682 350 CURVE SMOOTH",
"682 580 OFFCURVE",
"564 710 OFFCURVE",
"361 710 CURVE SMOOTH",
"157 710 OFFCURVE",
"39 580 OFFCURVE",
"39 350 CURVE SMOOTH",
"39 119 OFFCURVE",
"157 -10 OFFCURVE",
"361 -10 CURVE SMOOTH"
);
},
{
closed = 1;
nodes = (
"178 20 OFFCURVE",
"92 155 OFFCURVE",
"92 350 CURVE SMOOTH",
"92 544 OFFCURVE",
"178 680 OFFCURVE",
"360 680 CURVE SMOOTH",
"544 680 OFFCURVE",
"629 544 OFFCURVE",
"629 350 CURVE SMOOTH",
"629 155 OFFCURVE",
"544 20 OFFCURVE",
"360 20 CURVE SMOOTH"
);
}
);
width = 721;
}
);
leftKerningGroup = O;
note = O;
rightKerningGroup = O;
unicode = 004F;
},
{
glyphname = Oacute;
lastChange = "2015-10-12 07:30:33 +0000";
layers = (
{
layerId = "F37480E8-8A59-4A4C-8214-0802ED2944DD";
name = Light;
paths = (
{
closed = 1;
nodes = (
"564 -10 OFFCURVE",
"682 119 OFFCURVE",
"682 350 CURVE SMOOTH",
"682 580 OFFCURVE",
"564 710 OFFCURVE",
"361 710 CURVE SMOOTH",
"157 710 OFFCURVE",
"39 580 OFFCURVE",
"39 350 CURVE SMOOTH",
"39 119 OFFCURVE",
"157 -10 OFFCURVE",
"361 -10 CURVE SMOOTH"
);
},
{
closed = 1;
nodes = (
"178 20 OFFCURVE",
"92 155 OFFCURVE",
"92 350 CURVE SMOOTH",
"92 544 OFFCURVE",
"178 680 OFFCURVE",
"360 680 CURVE SMOOTH",
"544 680 OFFCURVE",
"629 544 OFFCURVE",
"629 350 CURVE SMOOTH",
"629 155 OFFCURVE",
"544 20 OFFCURVE",
"360 20 CURVE SMOOTH"
);
},
{
closed = 1;
nodes = (
"421 861 LINE SMOOTH",
"435 869 OFFCURVE",
"443 880 OFFCURVE",
"443 891 CURVE SMOOTH",
"443 902 OFFCURVE",
"435 910 OFFCURVE",
"423 910 CURVE SMOOTH",
"410 910 OFFCURVE",
"398 901 OFFCURVE",
"390 894 CURVE SMOOTH",
"280 801 LINE",
"291 786 LINE"
);
}
);
width = 721;
}
);
leftKerningGroup = O;
note = Oacute;
rightKerningGroup = O;
unicode = 00D3;
},
{
glyphname = Obreve;
lastChange = "2015-10-12 07:30:33 +0000";
layers = (
{
layerId = "F37480E8-8A59-4A4C-8214-0802ED2944DD";
name = Light;
paths = (
{
closed = 1;
nodes = (
"564 -10 OFFCURVE",
"682 119 OFFCURVE",
"682 350 CURVE SMOOTH",
"682 580 OFFCURVE",
"564 710 OFFCURVE",
"361 710 CURVE SMOOTH",
"157 710 OFFCURVE",
"39 580 OFFCURVE",
"39 350 CURVE SMOOTH",
"39 119 OFFCURVE",
"157 -10 OFFCURVE",
"361 -10 CURVE SMOOTH"
);
},
{
closed = 1;
nodes = (
"178 20 OFFCURVE",
"92 155 OFFCURVE",
"92 350 CURVE SMOOTH",
"92 544 OFFCURVE",
"178 680 OFFCURVE",
"360 680 CURVE SMOOTH",
"544 680 OFFCURVE",
"629 544 OFFCURVE",
"629 350 CURVE SMOOTH",
"629 155 OFFCURVE",
"544 20 OFFCURVE",
"360 20 CURVE SMOOTH"
);
},
{
closed = 1;
nodes = (
"441 774 OFFCURVE",
"490 816 OFFCURVE",
"495 893 CURVE",
"467 893 LINE",
"459 820 OFFCURVE",
"408 806 OFFCURVE",
"361 806 CURVE SMOOTH",
"313 806 OFFCURVE",
"262 820 OFFCURVE",
"253 893 CURVE",
"226 893 LINE",
"230 815 OFFCURVE",
"280 774 OFFCURVE",
"361 774 CURVE SMOOTH"
);
}
);
width = 721;
}
);
leftKerningGroup = O;
note = Obreve;
rightKerningGroup = O;
unicode = 014E;
},
{
glyphname = Ocaron;
lastChange = "2015-10-12 07:30:33 +0000";
layers = (
{
layerId = "F37480E8-8A59-4A4C-8214-0802ED2944DD";
name = Light;
paths = (
{
closed = 1;
nodes = (
"564 -10 OFFCURVE",
"682 119 OFFCURVE",
"682 350 CURVE SMOOTH",
"682 580 OFFCURVE",
"564 710 OFFCURVE",
"361 710 CURVE SMOOTH",
"157 710 OFFCURVE",
"39 580 OFFCURVE",
"39 350 CURVE SMOOTH",
"39 119 OFFCURVE",
"157 -10 OFFCURVE",
"361 -10 CURVE SMOOTH"
);
},
{
closed = 1;
nodes = (
"178 20 OFFCURVE",
"92 155 OFFCURVE",
"92 350 CURVE SMOOTH",
"92 544 OFFCURVE",
"178 680 OFFCURVE",
"360 680 CURVE SMOOTH",
"544 680 OFFCURVE",
"629 544 OFFCURVE",
"629 350 CURVE SMOOTH",
"629 155 OFFCURVE",
"544 20 OFFCURVE",
"360 20 CURVE SMOOTH"
);
},
{
closed = 1;
nodes = (
"377 785 LINE",
"486 892 LINE",
"470 910 LINE",
"376 831 LINE",
"370 827 OFFCURVE",
"365 824 OFFCURVE",
"361 824 CURVE SMOOTH",
"357 824 OFFCURVE",
"352 826 OFFCURVE",
"345 831 CURVE",
"251 910 LINE",
"235 892 LINE",
"344 785 LINE"
);
}
);
width = 721;
}
);
leftKerningGroup = O;
note = Ocaron;
rightKerningGroup = O;
unicode = 01D1;
},
{
glyphname = Ocircumflex;
lastChange = "2015-10-12 07:30:33 +0000";
layers = (
{
layerId = "F37480E8-8A59-4A4C-8214-0802ED2944DD";
name = Light;
paths = (
{
closed = 1;
nodes = (
"564 -10 OFFCURVE",
"682 119 OFFCURVE",
"682 350 CURVE SMOOTH",
"682 580 OFFCURVE",
"564 710 OFFCURVE",
"361 710 CURVE SMOOTH",
"157 710 OFFCURVE",
"39 580 OFFCURVE",
"39 350 CURVE SMOOTH",
"39 119 OFFCURVE",
"157 -10 OFFCURVE",
"361 -10 CURVE SMOOTH"
);
},
{
closed = 1;
nodes = (
"178 20 OFFCURVE",
"92 155 OFFCURVE",
"92 350 CURVE SMOOTH",
"92 544 OFFCURVE",
"178 680 OFFCURVE",
"360 680 CURVE SMOOTH",
"544 680 OFFCURVE",
"629 544 OFFCURVE",
"629 350 CURVE SMOOTH",
"629 155 OFFCURVE",
"544 20 OFFCURVE",
"360 20 CURVE SMOOTH"
);
},
{
closed = 1;
nodes = (
"345 864 LINE",
"351 868 OFFCURVE",
"357 871 OFFCURVE",
"361 871 CURVE SMOOTH",
"365 871 OFFCURVE",
"370 868 OFFCURVE",
"376 864 CURVE",
"470 785 LINE",
"486 803 LINE",
"377 910 LINE",
"344 910 LINE",
"235 803 LINE",
"251 785 LINE"
);
}
);
width = 721;
}
);
leftKerningGroup = O;
note = Ocircumflex;
rightKerningGroup = O;
unicode = 00D4;
},
{
glyphname = Ocircumflexacute;
lastChange = "2015-10-12 07:30:33 +0000";
layers = (
{
layerId = "F37480E8-8A59-4A4C-8214-0802ED2944DD";
name = Light;
paths = (
{
closed = 1;
nodes = (
"564 -10 OFFCURVE",
"682 119 OFFCURVE",
"682 350 CURVE SMOOTH",
"682 580 OFFCURVE",
"564 710 OFFCURVE",
"361 710 CURVE SMOOTH",
"157 710 OFFCURVE",
"39 580 OFFCURVE",
"39 350 CURVE SMOOTH",
"39 119 OFFCURVE",
"157 -10 OFFCURVE",
"361 -10 CURVE SMOOTH"
);
},
{
closed = 1;
nodes = (
"178 20 OFFCURVE",
"92 155 OFFCURVE",
"92 350 CURVE SMOOTH",
"92 544 OFFCURVE",
"178 680 OFFCURVE",
"360 680 CURVE SMOOTH",
"544 680 OFFCURVE",
"629 544 OFFCURVE",
"629 350 CURVE SMOOTH",
"629 155 OFFCURVE",
"544 20 OFFCURVE",
"360 20 CURVE SMOOTH"
);
},
{
closed = 1;
nodes = (
"343 861 LINE",
"349 865 OFFCURVE",
"355 869 OFFCURVE",
"360 869 CURVE SMOOTH",
"364 869 OFFCURVE",
"369 866 OFFCURVE",
"375 862 CURVE",
"469 784 LINE",
"484 802 LINE",
"376 909 LINE",
"343 909 LINE",
"235 802 LINE",
"251 784 LINE"
);
},
{
closed = 1;
nodes = (
"583 953 LINE SMOOTH",
"598 961 OFFCURVE",
"606 973 OFFCURVE",
"606 982 CURVE SMOOTH",
"606 993 OFFCURVE",
"598 1002 OFFCURVE",
"585 1002 CURVE SMOOTH",
"572 1002 OFFCURVE",
"559 993 OFFCURVE",
"551 985 CURVE",
"449 896 LINE",
"460 882 LINE"
);
}
);
width = 721;
}
);
leftKerningGroup = O;
note = Ocircumflexacute;
rightKerningGroup = O;
unicode = 1ED0;
},
{
glyphname = Ocircumflexdotbelow;
lastChange = "2015-12-01 06:36:24 +0000";
layers = (
{
layerId = "F37480E8-8A59-4A4C-8214-0802ED2944DD";
name = Light;
paths = (
{
closed = 1;
nodes = (
"39 119 OFFCURVE",
"157 -10 OFFCURVE",
"361 -10 CURVE SMOOTH",
"564 -10 OFFCURVE",
"682 119 OFFCURVE",
"682 350 CURVE SMOOTH",
"682 580 OFFCURVE",
"564 710 OFFCURVE",
"361 710 CURVE SMOOTH",
"157 710 OFFCURVE",
"39 580 OFFCURVE",
"39 350 CURVE SMOOTH"
);
},
{
closed = 1;
nodes = (
"92 544 OFFCURVE",
"178 680 OFFCURVE",
"360 680 CURVE SMOOTH",
"544 680 OFFCURVE",
"629 544 OFFCURVE",
"629 350 CURVE SMOOTH",
"629 155 OFFCURVE",
"544 20 OFFCURVE",
"360 20 CURVE SMOOTH",
"178 20 OFFCURVE",
"92 155 OFFCURVE",
"92 350 CURVE SMOOTH"
);
},
{
closed = 1;
nodes = (
"251 785 LINE",
"345 864 LINE",
"351 868 OFFCURVE",
"357 871 OFFCURVE",
"361 871 CURVE SMOOTH",
"365 871 OFFCURVE",
"370 868 OFFCURVE",
"376 864 CURVE",
"470 785 LINE",
"486 803 LINE",
"377 910 LINE",
"344 910 LINE",
"235 803 LINE"
);
},
{
closed = 1;
nodes = (
"322 -122 OFFCURVE",
"337 -136 OFFCURVE",
"357 -136 CURVE SMOOTH",
"378 -136 OFFCURVE",
"392 -122 OFFCURVE",
"392 -100 CURVE SMOOTH",
"392 -78 OFFCURVE",
"378 -64 OFFCURVE",
"357 -64 CURVE SMOOTH",
"337 -64 OFFCURVE",
"322 -78 OFFCURVE",
"322 -100 CURVE SMOOTH"
);
}
);
width = 721;
}
);
leftKerningGroup = O;
note = Ocircumflexdotbelow;
rightKerningGroup = O;
unicode = 1ED8;
},
{
glyphname = Ocircumflexgrave;
lastChange = "2015-10-12 07:30:33 +0000";
layers = (
{
layerId = "F37480E8-8A59-4A4C-8214-0802ED2944DD";
name = Light;
paths = (
{
closed = 1;
nodes = (
"564 -10 OFFCURVE",
"682 119 OFFCURVE",
"682 350 CURVE SMOOTH",
"682 580 OFFCURVE",
"564 710 OFFCURVE",
"361 710 CURVE SMOOTH",
"157 710 OFFCURVE",
"39 580 OFFCURVE",
"39 350 CURVE SMOOTH",
"39 119 OFFCURVE",
"157 -10 OFFCURVE",
"361 -10 CURVE SMOOTH"
);
},
{
closed = 1;
nodes = (
"178 20 OFFCURVE",
"92 155 OFFCURVE",
"92 350 CURVE SMOOTH",
"92 544 OFFCURVE",
"178 680 OFFCURVE",
"360 680 CURVE SMOOTH",
"544 680 OFFCURVE",
"629 544 OFFCURVE",
"629 350 CURVE SMOOTH",
"629 155 OFFCURVE",
"544 20 OFFCURVE",
"360 20 CURVE SMOOTH"
);
},
{
closed = 1;
nodes = (
"281 896 LINE",
"178 985 LINE",
"170 993 OFFCURVE",
"158 1002 OFFCURVE",
"145 1002 CURVE SMOOTH",
"132 1002 OFFCURVE",
"124 993 OFFCURVE",
"124 982 CURVE SMOOTH",
"124 973 OFFCURVE",
"131 961 OFFCURVE",
"146 953 CURVE SMOOTH",
"270 882 LINE"
);
},
{
closed = 1;
nodes = (
"343 861 LINE",
"349 865 OFFCURVE",
"355 869 OFFCURVE",
"360 869 CURVE SMOOTH",
"364 869 OFFCURVE",
"369 866 OFFCURVE",
"375 862 CURVE",
"469 784 LINE",
"484 802 LINE",
"376 909 LINE",
"343 909 LINE",
"235 802 LINE",
"251 784 LINE"
);
}
);
width = 721;
}
);
leftKerningGroup = O;
note = Ocircumflexgrave;
rightKerningGroup = O;
unicode = 1ED2;
},
{
glyphname = Ocircumflexhookabove;
lastChange = "2015-10-12 07:30:32 +0000";
layers = (
{
layerId = "F37480E8-8A59-4A4C-8214-0802ED2944DD";
name = Light;
paths = (
{
closed = 1;
nodes = (
"564 -10 OFFCURVE",
"682 119 OFFCURVE",
"682 350 CURVE SMOOTH",
"682 580 OFFCURVE",
"564 710 OFFCURVE",
"361 710 CURVE SMOOTH",
"157 710 OFFCURVE",
"39 580 OFFCURVE",
"39 350 CURVE SMOOTH",
"39 119 OFFCURVE",
"157 -10 OFFCURVE",
"361 -10 CURVE SMOOTH"
);
},
{
closed = 1;
nodes = (
"178 20 OFFCURVE",
"92 155 OFFCURVE",
"92 350 CURVE SMOOTH",
"92 544 OFFCURVE",
"178 680 OFFCURVE",
"360 680 CURVE SMOOTH",
"544 680 OFFCURVE",
"629 544 OFFCURVE",
"629 350 CURVE SMOOTH",
"629 155 OFFCURVE",
"544 20 OFFCURVE",
"360 20 CURVE SMOOTH"
);
},
{
closed = 1;
nodes = (
"332 852 LINE",
"341 860 OFFCURVE",
"351 870 OFFCURVE",
"360 870 CURVE SMOOTH",
"364 870 OFFCURVE",
"369 867 OFFCURVE",
"375 863 CURVE",
"469 785 LINE",
"484 803 LINE",
"376 910 LINE",
"343 910 LINE",
"235 803 LINE",
"251 785 LINE"
);
},
{
closed = 1;
nodes = (
"513 881 LINE",
"496 886 OFFCURVE",
"485 891 OFFCURVE",
"485 908 CURVE SMOOTH",
"485 934 OFFCURVE",
"559 943 OFFCURVE",
"559 984 CURVE SMOOTH",
"559 1017 OFFCURVE",
"522 1032 OFFCURVE",
"484 1032 CURVE SMOOTH",
"456 1032 OFFCURVE",
"414 1023 OFFCURVE",
"414 995 CURVE SMOOTH",
"414 984 OFFCURVE",
"423 976 OFFCURVE",
"433 976 CURVE SMOOTH",
"462 976 OFFCURVE",
"448 1011 OFFCURVE",
"488 1011 CURVE SMOOTH",
"505 1011 OFFCURVE",
"518 1000 OFFCURVE",
"518 987 CURVE SMOOTH",
"518 951 OFFCURVE",
"449 943 OFFCURVE",
"449 907 CURVE SMOOTH",
"449 885 OFFCURVE",
"465 866 OFFCURVE",
"505 866 CURVE"
);
}
);
width = 721;
}
);
leftKerningGroup = O;
note = Ocircumflexhookabove;
rightKerningGroup = O;
unicode = 1ED4;
},
{
glyphname = Ocircumflextilde;
lastChange = "2015-10-12 07:30:33 +0000";
layers = (
{
layerId = "F37480E8-8A59-4A4C-8214-0802ED2944DD";
name = Light;
paths = (
{
closed = 1;
nodes = (
"564 -10 OFFCURVE",
"682 119 OFFCURVE",
"682 350 CURVE SMOOTH",
"682 580 OFFCURVE",
"564 710 OFFCURVE",
"361 710 CURVE SMOOTH",
"157 710 OFFCURVE",
"39 580 OFFCURVE",
"39 350 CURVE SMOOTH",
"39 119 OFFCURVE",
"157 -10 OFFCURVE",
"361 -10 CURVE SMOOTH"
);
},
{
closed = 1;
nodes = (
"178 20 OFFCURVE",
"92 155 OFFCURVE",
"92 350 CURVE SMOOTH",
"92 544 OFFCURVE",
"178 680 OFFCURVE",
"360 680 CURVE SMOOTH",
"544 680 OFFCURVE",
"629 544 OFFCURVE",
"629 350 CURVE SMOOTH",
"629 155 OFFCURVE",
"544 20 OFFCURVE",
"360 20 CURVE SMOOTH"
);
},
{
closed = 1;
nodes = (
"343 862 LINE",
"349 866 OFFCURVE",
"355 870 OFFCURVE",
"360 870 CURVE SMOOTH",
"364 870 OFFCURVE",
"369 867 OFFCURVE",
"375 863 CURVE",
"469 785 LINE",
"484 803 LINE",
"376 910 LINE",
"343 910 LINE",
"235 803 LINE",
"251 785 LINE"
);
},
{
closed = 1;
nodes = (
"245 979 OFFCURVE",
"263 1002 OFFCURVE",
"293 1002 CURVE SMOOTH",
"337 1002 OFFCURVE",
"382 944 OFFCURVE",
"427 944 CURVE SMOOTH",
"472 944 OFFCURVE",
"499 978 OFFCURVE",
"509 1032 CURVE",
"492 1041 LINE",
"481 1001 OFFCURVE",
"465 976 OFFCURVE",
"432 976 CURVE SMOOTH",
"391 976 OFFCURVE",
"343 1033 OFFCURVE",
"298 1033 CURVE SMOOTH",
"257 1033 OFFCURVE",
"226 1003 OFFCURVE",
"218 950 CURVE",
"234 940 LINE"
);
}
);
width = 721;
}
);
leftKerningGroup = O;
note = Ocircumflextilde;
rightKerningGroup = O;
unicode = 1ED6;
},
{
glyphname = Odieresis;
lastChange = "2015-10-12 07:30:33 +0000";
layers = (
{
layerId = "F37480E8-8A59-4A4C-8214-0802ED2944DD";
name = Light;
paths = (
{
closed = 1;
nodes = (
"564 -10 OFFCURVE",
"682 119 OFFCURVE",
"682 350 CURVE SMOOTH",
"682 580 OFFCURVE",
"564 710 OFFCURVE",
"361 710 CURVE SMOOTH",
"157 710 OFFCURVE",
"39 580 OFFCURVE",
"39 350 CURVE SMOOTH",
"39 119 OFFCURVE",
"157 -10 OFFCURVE",
"361 -10 CURVE SMOOTH"
);
},
{
closed = 1;
nodes = (
"178 20 OFFCURVE",
"92 155 OFFCURVE",
"92 350 CURVE SMOOTH",
"92 544 OFFCURVE",
"178 680 OFFCURVE",
"360 680 CURVE SMOOTH",
"544 680 OFFCURVE",
"629 544 OFFCURVE",
"629 350 CURVE SMOOTH",
"629 155 OFFCURVE",
"544 20 OFFCURVE",
"360 20 CURVE SMOOTH"
);
},
{
closed = 1;
nodes = (
"280 783 OFFCURVE",
"294 797 OFFCURVE",
"294 819 CURVE SMOOTH",
"294 841 OFFCURVE",
"280 855 OFFCURVE",
"259 855 CURVE SMOOTH",
"238 855 OFFCURVE",
"224 841 OFFCURVE",
"224 819 CURVE SMOOTH",
"224 797 OFFCURVE",
"238 783 OFFCURVE",
"259 783 CURVE SMOOTH"
);
},
{
closed = 1;
nodes = (
"483 783 OFFCURVE",
"497 797 OFFCURVE",
"497 819 CURVE SMOOTH",
"497 841 OFFCURVE",
"483 855 OFFCURVE",
"462 855 CURVE SMOOTH",
"441 855 OFFCURVE",
"427 841 OFFCURVE",
"427 819 CURVE SMOOTH",
"427 797 OFFCURVE",
"441 783 OFFCURVE",
"462 783 CURVE SMOOTH"
);
}
);
width = 721;
}
);
leftKerningGroup = O;
note = Odieresis;
rightKerningGroup = O;
unicode = 00D6;
},
{
glyphname = Odotbelow;
lastChange = "2015-12-01 06:36:26 +0000";
layers = (
{
layerId = "F37480E8-8A59-4A4C-8214-0802ED2944DD";
name = Light;
paths = (
{
closed = 1;
nodes = (
"39 119 OFFCURVE",
"157 -10 OFFCURVE",
"361 -10 CURVE SMOOTH",
"564 -10 OFFCURVE",
"682 119 OFFCURVE",
"682 350 CURVE SMOOTH",
"682 580 OFFCURVE",
"564 710 OFFCURVE",
"361 710 CURVE SMOOTH",
"157 710 OFFCURVE",
"39 580 OFFCURVE",
"39 350 CURVE SMOOTH"
);
},
{
closed = 1;
nodes = (
"92 544 OFFCURVE",
"178 680 OFFCURVE",
"360 680 CURVE SMOOTH",
"544 680 OFFCURVE",
"629 544 OFFCURVE",
"629 350 CURVE SMOOTH",
"629 155 OFFCURVE",
"544 20 OFFCURVE",
"360 20 CURVE SMOOTH",
"178 20 OFFCURVE",
"92 155 OFFCURVE",
"92 350 CURVE SMOOTH"
);
},
{
closed = 1;
nodes = (
"325 -122 OFFCURVE",
"340 -136 OFFCURVE",
"360 -136 CURVE SMOOTH",
"381 -136 OFFCURVE",
"395 -122 OFFCURVE",
"395 -100 CURVE SMOOTH",
"395 -78 OFFCURVE",
"381 -64 OFFCURVE",
"360 -64 CURVE SMOOTH",
"340 -64 OFFCURVE",
"325 -78 OFFCURVE",
"325 -100 CURVE SMOOTH"
);
}
);
width = 721;
}
);
leftKerningGroup = O;
note = Odotbelow;
rightKerningGroup = O;
unicode = 1ECC;
},
{
glyphname = Ograve;
lastChange = "2015-10-12 07:30:33 +0000";
layers = (
{
layerId = "F37480E8-8A59-4A4C-8214-0802ED2944DD";
name = Light;
paths = (
{
closed = 1;
nodes = (
"564 -10 OFFCURVE",
"682 119 OFFCURVE",
"682 350 CURVE SMOOTH",
"682 580 OFFCURVE",
"564 710 OFFCURVE",
"361 710 CURVE SMOOTH",
"157 710 OFFCURVE",
"39 580 OFFCURVE",
"39 350 CURVE SMOOTH",
"39 119 OFFCURVE",
"157 -10 OFFCURVE",
"361 -10 CURVE SMOOTH"
);
},
{
closed = 1;
nodes = (
"178 20 OFFCURVE",
"92 155 OFFCURVE",
"92 350 CURVE SMOOTH",
"92 544 OFFCURVE",
"178 680 OFFCURVE",
"360 680 CURVE SMOOTH",
"544 680 OFFCURVE",
"629 544 OFFCURVE",
"629 350 CURVE SMOOTH",
"629 155 OFFCURVE",
"544 20 OFFCURVE",
"360 20 CURVE SMOOTH"
);
},
{
closed = 1;
nodes = (
"422 801 LINE",
"312 894 LINE SMOOTH",
"303 902 OFFCURVE",
"292 910 OFFCURVE",
"280 910 CURVE SMOOTH",
"270 910 OFFCURVE",
"260 903 OFFCURVE",
"260 891 CURVE SMOOTH",
"260 879 OFFCURVE",
"269 868 OFFCURVE",
"281 861 CURVE SMOOTH",
"411 786 LINE"
);
}
);
width = 721;
}
);
leftKerningGroup = O;
note = Ograve;
rightKerningGroup = O;
unicode = 00D2;
},
{
glyphname = Ohookabove;
lastChange = "2015-10-12 07:30:33 +0000";
layers = (
{
layerId = "F37480E8-8A59-4A4C-8214-0802ED2944DD";
name = Light;
paths = (
{
closed = 1;
nodes = (
"564 -10 OFFCURVE",
"682 119 OFFCURVE",
"682 350 CURVE SMOOTH",
"682 580 OFFCURVE",
"564 710 OFFCURVE",
"361 710 CURVE SMOOTH",
"157 710 OFFCURVE",
"39 580 OFFCURVE",
"39 350 CURVE SMOOTH",
"39 119 OFFCURVE",
"157 -10 OFFCURVE",
"361 -10 CURVE SMOOTH"
);
},
{
closed = 1;
nodes = (
"178 20 OFFCURVE",
"92 155 OFFCURVE",
"92 350 CURVE SMOOTH",
"92 544 OFFCURVE",
"178 680 OFFCURVE",
"360 680 CURVE SMOOTH",
"544 680 OFFCURVE",
"629 544 OFFCURVE",
"629 350 CURVE SMOOTH",
"629 155 OFFCURVE",
"544 20 OFFCURVE",
"360 20 CURVE SMOOTH"
);
},
{
closed = 1;
nodes = (
"380 795 LINE",
"362 800 OFFCURVE",
"352 804 OFFCURVE",
"352 823 CURVE SMOOTH",
"352 854 OFFCURVE",
"432 871 OFFCURVE",
"432 918 CURVE SMOOTH",
"432 956 OFFCURVE",
"399 974 OFFCURVE",
"356 974 CURVE SMOOTH",
"313 974 OFFCURVE",
"280 957 OFFCURVE",
"280 929 CURVE SMOOTH",
"280 914 OFFCURVE",
"286 908 OFFCURVE",
"297 908 CURVE SMOOTH",
"312 908 OFFCURVE",
"314 917 OFFCURVE",
"319 931 CURVE SMOOTH",
"324 946 OFFCURVE",
"341 951 OFFCURVE",
"357 951 CURVE SMOOTH",
"383 951 OFFCURVE",
"393 937 OFFCURVE",
"393 921 CURVE SMOOTH",
"393 878 OFFCURVE",
"316 866 OFFCURVE",
"316 823 CURVE SMOOTH",
"316 798 OFFCURVE",
"334 778 OFFCURVE",
"372 778 CURVE"
);
}
);
width = 721;
}
);
leftKerningGroup = O;
note = Ohookabove;
rightKerningGroup = O;
unicode = 1ECE;
},
{
glyphname = Ohorn;
lastChange = "2015-10-12 07:30:33 +0000";
layers = (
{
layerId = "F37480E8-8A59-4A4C-8214-0802ED2944DD";
name = Light;
paths = (
{
closed = 1;
nodes = (
"564 -10 OFFCURVE",
"682 119 OFFCURVE",
"682 350 CURVE SMOOTH",
"682 580 OFFCURVE",
"564 710 OFFCURVE",
"361 710 CURVE SMOOTH",
"157 710 OFFCURVE",
"39 580 OFFCURVE",
"39 350 CURVE SMOOTH",
"39 119 OFFCURVE",
"157 -10 OFFCURVE",
"361 -10 CURVE SMOOTH"
);
},
{
closed = 1;
nodes = (
"178 20 OFFCURVE",
"92 155 OFFCURVE",
"92 350 CURVE SMOOTH",
"92 544 OFFCURVE",
"178 680 OFFCURVE",
"360 680 CURVE SMOOTH",
"544 680 OFFCURVE",
"629 544 OFFCURVE",
"629 350 CURVE SMOOTH",
"629 155 OFFCURVE",
"544 20 OFFCURVE",
"360 20 CURVE SMOOTH"
);
},
{
closed = 1;
nodes = (
"659 608 OFFCURVE",
"700 662 OFFCURVE",
"700 719 CURVE SMOOTH",
"700 758 OFFCURVE",
"679 770 OFFCURVE",
"660 770 CURVE SMOOTH",
"639 770 OFFCURVE",
"628 754 OFFCURVE",
"628 737 CURVE SMOOTH",
"628 707 OFFCURVE",
"656 705 OFFCURVE",
"656 675 CURVE SMOOTH",
"656 643 OFFCURVE",
"626 616 OFFCURVE",
"600 599 CURVE",
"600 579 LINE"
);
}
);
width = 723;
}
);
leftKerningGroup = O;
note = Ohorn;
rightKerningGroup = O;
unicode = 01A0;
},
{
glyphname = Ohornacute;
lastChange = "2015-12-01 06:36:39 +0000";
layers = (
{
layerId = "F37480E8-8A59-4A4C-8214-0802ED2944DD";
name = Light;
paths = (
{
closed = 1;
nodes = (
"564 -10 OFFCURVE",
"682 119 OFFCURVE",
"682 350 CURVE SMOOTH",
"682 580 OFFCURVE",
"564 710 OFFCURVE",
"361 710 CURVE SMOOTH",
"157 710 OFFCURVE",
"39 580 OFFCURVE",
"39 350 CURVE SMOOTH",
"39 119 OFFCURVE",
"157 -10 OFFCURVE",
"361 -10 CURVE SMOOTH"
);
},
{
closed = 1;
nodes = (
"178 20 OFFCURVE",
"92 155 OFFCURVE",
"92 350 CURVE SMOOTH",
"92 544 OFFCURVE",
"178 680 OFFCURVE",
"360 680 CURVE SMOOTH",
"544 680 OFFCURVE",
"629 544 OFFCURVE",
"629 350 CURVE SMOOTH",
"629 155 OFFCURVE",
"544 20 OFFCURVE",
"360 20 CURVE SMOOTH"
);
},
{
closed = 1;
nodes = (
"401 860 LINE SMOOTH",
"415 868 OFFCURVE",
"423 879 OFFCURVE",
"423 890 CURVE SMOOTH",
"423 901 OFFCURVE",
"415 909 OFFCURVE",
"403 909 CURVE SMOOTH",
"390 909 OFFCURVE",
"378 900 OFFCURVE",
"370 893 CURVE SMOOTH",
"260 800 LINE",
"271 785 LINE"
);
},
{
closed = 1;
nodes = (
"659 608 OFFCURVE",
"700 662 OFFCURVE",
"700 719 CURVE SMOOTH",
"700 758 OFFCURVE",
"679 770 OFFCURVE",
"660 770 CURVE SMOOTH",
"639 770 OFFCURVE",
"628 754 OFFCURVE",
"628 737 CURVE SMOOTH",
"628 707 OFFCURVE",
"656 705 OFFCURVE",
"656 675 CURVE SMOOTH",
"656 643 OFFCURVE",
"626 616 OFFCURVE",
"600 599 CURVE",
"600 579 LINE"
);
}
);
width = 723;
}
);
leftKerningGroup = O;
note = Ohornacute;
rightKerningGroup = O;
unicode = 1EDA;
},
{
glyphname = Ohorndotbelow;
lastChange = "2015-12-01 06:36:41 +0000";
layers = (
{
layerId = "F37480E8-8A59-4A4C-8214-0802ED2944DD";
name = Light;
paths = (
{
closed = 1;
nodes = (
"564 -10 OFFCURVE",
"682 119 OFFCURVE",
"682 350 CURVE SMOOTH",
"682 580 OFFCURVE",
"564 710 OFFCURVE",
"361 710 CURVE SMOOTH",
"157 710 OFFCURVE",
"39 580 OFFCURVE",
"39 350 CURVE SMOOTH",
"39 119 OFFCURVE",
"157 -10 OFFCURVE",
"361 -10 CURVE SMOOTH"
);
},
{
closed = 1;
nodes = (
"178 20 OFFCURVE",
"92 155 OFFCURVE",
"92 350 CURVE SMOOTH",
"92 544 OFFCURVE",
"178 680 OFFCURVE",
"360 680 CURVE SMOOTH",
"544 680 OFFCURVE",
"629 544 OFFCURVE",
"629 350 CURVE SMOOTH",
"629 155 OFFCURVE",
"544 20 OFFCURVE",
"360 20 CURVE SMOOTH"
);
},
{
closed = 1;
nodes = (
"362 -136 OFFCURVE",
"376 -122 OFFCURVE",
"376 -100 CURVE SMOOTH",
"376 -78 OFFCURVE",
"362 -64 OFFCURVE",
"341 -64 CURVE SMOOTH",
"321 -64 OFFCURVE",
"306 -78 OFFCURVE",
"306 -100 CURVE SMOOTH",
"306 -122 OFFCURVE",
"321 -136 OFFCURVE",
"341 -136 CURVE SMOOTH"
);
},
{
closed = 1;
nodes = (
"659 608 OFFCURVE",
"700 662 OFFCURVE",
"700 719 CURVE SMOOTH",
"700 758 OFFCURVE",
"679 770 OFFCURVE",
"660 770 CURVE SMOOTH",
"639 770 OFFCURVE",
"628 754 OFFCURVE",
"628 737 CURVE SMOOTH",
"628 707 OFFCURVE",
"656 705 OFFCURVE",
"656 675 CURVE SMOOTH",
"656 643 OFFCURVE",
"626 616 OFFCURVE",
"600 599 CURVE",
"600 579 LINE"
);
}
);
width = 723;
}
);
leftKerningGroup = O;
note = Ohorndotbelow;
rightKerningGroup = O;
unicode = 1EE2;
},
{
glyphname = Ohorngrave;
lastChange = "2015-12-01 06:36:43 +0000";
layers = (
{
layerId = "F37480E8-8A59-4A4C-8214-0802ED2944DD";
name = Light;
paths = (
{
closed = 1;
nodes = (
"564 -10 OFFCURVE",
"682 119 OFFCURVE",
"682 350 CURVE SMOOTH",
"682 580 OFFCURVE",
"564 710 OFFCURVE",
"361 710 CURVE SMOOTH",
"157 710 OFFCURVE",
"39 580 OFFCURVE",
"39 350 CURVE SMOOTH",
"39 119 OFFCURVE",
"157 -10 OFFCURVE",
"361 -10 CURVE SMOOTH"
);
},
{
closed = 1;
nodes = (
"178 20 OFFCURVE",
"92 155 OFFCURVE",
"92 350 CURVE SMOOTH",
"92 544 OFFCURVE",
"178 680 OFFCURVE",
"360 680 CURVE SMOOTH",
"544 680 OFFCURVE",
"629 544 OFFCURVE",
"629 350 CURVE SMOOTH",
"629 155 OFFCURVE",
"544 20 OFFCURVE",
"360 20 CURVE SMOOTH"
);
},
{
closed = 1;
nodes = (
"424 803 LINE",
"314 896 LINE SMOOTH",
"305 904 OFFCURVE",
"294 912 OFFCURVE",
"282 912 CURVE SMOOTH",
"272 912 OFFCURVE",
"262 905 OFFCURVE",
"262 893 CURVE SMOOTH",
"262 881 OFFCURVE",
"271 870 OFFCURVE",
"283 863 CURVE SMOOTH",
"413 788 LINE"
);
},
{
closed = 1;
nodes = (
"659 608 OFFCURVE",
"700 662 OFFCURVE",
"700 719 CURVE SMOOTH",
"700 758 OFFCURVE",
"679 770 OFFCURVE",
"660 770 CURVE SMOOTH",
"639 770 OFFCURVE",
"628 754 OFFCURVE",
"628 737 CURVE SMOOTH",
"628 707 OFFCURVE",
"656 705 OFFCURVE",
"656 675 CURVE SMOOTH",
"656 643 OFFCURVE",
"626 616 OFFCURVE",
"600 599 CURVE",
"600 579 LINE"
);
}
);
width = 723;
}
);
leftKerningGroup = O;
note = Ohorngrave;
rightKerningGroup = O;
unicode = 1EDC;
},
{
glyphname = Ohornhookabove;
lastChange = "2015-12-01 06:36:45 +0000";
layers = (
{
layerId = "F37480E8-8A59-4A4C-8214-0802ED2944DD";
name = Light;
paths = (
{
closed = 1;
nodes = (
"564 -10 OFFCURVE",
"682 119 OFFCURVE",
"682 350 CURVE SMOOTH",
"682 580 OFFCURVE",
"564 710 OFFCURVE",
"361 710 CURVE SMOOTH",
"157 710 OFFCURVE",
"39 580 OFFCURVE",
"39 350 CURVE SMOOTH",
"39 119 OFFCURVE",
"157 -10 OFFCURVE",
"361 -10 CURVE SMOOTH"
);
},
{
closed = 1;
nodes = (
"178 20 OFFCURVE",
"92 155 OFFCURVE",
"92 350 CURVE SMOOTH",
"92 544 OFFCURVE",
"178 680 OFFCURVE",
"360 680 CURVE SMOOTH",
"544 680 OFFCURVE",
"629 544 OFFCURVE",
"629 350 CURVE SMOOTH",
"629 155 OFFCURVE",
"544 20 OFFCURVE",
"360 20 CURVE SMOOTH"
);
},
{
closed = 1;
nodes = (
"391 799 LINE",
"373 804 OFFCURVE",
"363 808 OFFCURVE",
"363 827 CURVE SMOOTH",
"363 858 OFFCURVE",
"443 875 OFFCURVE",
"443 922 CURVE SMOOTH",
"443 960 OFFCURVE",
"410 978 OFFCURVE",
"367 978 CURVE SMOOTH",
"324 978 OFFCURVE",
"291 961 OFFCURVE",
"291 933 CURVE SMOOTH",
"291 918 OFFCURVE",
"297 912 OFFCURVE",
"308 912 CURVE SMOOTH",
"323 912 OFFCURVE",
"325 921 OFFCURVE",
"330 935 CURVE SMOOTH",
"335 950 OFFCURVE",
"352 955 OFFCURVE",
"368 955 CURVE SMOOTH",
"394 955 OFFCURVE",
"404 941 OFFCURVE",
"404 925 CURVE SMOOTH",
"404 882 OFFCURVE",
"327 870 OFFCURVE",
"327 827 CURVE SMOOTH",
"327 802 OFFCURVE",
"345 782 OFFCURVE",
"383 782 CURVE"
);
},
{
closed = 1;
nodes = (
"659 608 OFFCURVE",
"700 662 OFFCURVE",
"700 719 CURVE SMOOTH",
"700 758 OFFCURVE",
"679 770 OFFCURVE",
"660 770 CURVE SMOOTH",
"639 770 OFFCURVE",
"628 754 OFFCURVE",
"628 737 CURVE SMOOTH",
"628 707 OFFCURVE",
"656 705 OFFCURVE",
"656 675 CURVE SMOOTH",
"656 643 OFFCURVE",
"626 616 OFFCURVE",
"600 599 CURVE",
"600 579 LINE"
);
}
);
width = 723;
}
);
leftKerningGroup = O;
note = Ohornhookabove;
rightKerningGroup = O;
unicode = 1EDE;
},
{
glyphname = Ohorntilde;
lastChange = "2015-12-01 06:36:47 +0000";
layers = (
{
layerId = "F37480E8-8A59-4A4C-8214-0802ED2944DD";
name = Light;
paths = (
{
closed = 1;
nodes = (
"564 -10 OFFCURVE",
"682 119 OFFCURVE",
"682 350 CURVE SMOOTH",
"682 580 OFFCURVE",
"564 710 OFFCURVE",
"361 710 CURVE SMOOTH",
"157 710 OFFCURVE",
"39 580 OFFCURVE",
"39 350 CURVE SMOOTH",
"39 119 OFFCURVE",
"157 -10 OFFCURVE",
"361 -10 CURVE SMOOTH"
);
},
{
closed = 1;
nodes = (
"178 20 OFFCURVE",
"92 155 OFFCURVE",
"92 350 CURVE SMOOTH",
"92 544 OFFCURVE",
"178 680 OFFCURVE",
"360 680 CURVE SMOOTH",
"544 680 OFFCURVE",
"629 544 OFFCURVE",
"629 350 CURVE SMOOTH",
"629 155 OFFCURVE",
"544 20 OFFCURVE",
"360 20 CURVE SMOOTH"
);
},
{
closed = 1;
nodes = (
"222 825 OFFCURVE",
"241 848 OFFCURVE",
"271 848 CURVE SMOOTH",
"315 848 OFFCURVE",
"361 790 OFFCURVE",
"407 790 CURVE SMOOTH",
"453 790 OFFCURVE",
"481 824 OFFCURVE",
"491 878 CURVE",
"474 887 LINE",
"462 847 OFFCURVE",
"446 822 OFFCURVE",
"413 822 CURVE SMOOTH",
"371 822 OFFCURVE",
"322 879 OFFCURVE",
"276 879 CURVE SMOOTH",
"234 879 OFFCURVE",
"203 850 OFFCURVE",
"194 796 CURVE",
"211 787 LINE"
);
},
{
closed = 1;
nodes = (
"659 608 OFFCURVE",
"700 662 OFFCURVE",
"700 719 CURVE SMOOTH",
"700 758 OFFCURVE",
"679 770 OFFCURVE",
"660 770 CURVE SMOOTH",
"639 770 OFFCURVE",
"628 754 OFFCURVE",
"628 737 CURVE SMOOTH",
"628 707 OFFCURVE",
"656 705 OFFCURVE",
"656 675 CURVE SMOOTH",
"656 643 OFFCURVE",
"626 616 OFFCURVE",
"600 599 CURVE",
"600 579 LINE"
);
}
);
width = 723;
}
);
leftKerningGroup = O;
note = Ohorntilde;
rightKerningGroup = O;
unicode = 1EE0;
},
{
glyphname = Ohungarumlaut;
lastChange = "2015-10-12 07:30:33 +0000";
layers = (
{
layerId = "F37480E8-8A59-4A4C-8214-0802ED2944DD";
name = Light;
paths = (
{
closed = 1;
nodes = (
"564 -10 OFFCURVE",
"682 119 OFFCURVE",
"682 350 CURVE SMOOTH",
"682 580 OFFCURVE",
"564 710 OFFCURVE",
"361 710 CURVE SMOOTH",
"157 710 OFFCURVE",
"39 580 OFFCURVE",
"39 350 CURVE SMOOTH",
"39 119 OFFCURVE",
"157 -10 OFFCURVE",
"361 -10 CURVE SMOOTH"
);
},
{
closed = 1;
nodes = (
"178 20 OFFCURVE",
"92 155 OFFCURVE",
"92 350 CURVE SMOOTH",
"92 544 OFFCURVE",
"178 680 OFFCURVE",
"360 680 CURVE SMOOTH",
"544 680 OFFCURVE",
"629 544 OFFCURVE",
"629 350 CURVE SMOOTH",
"629 155 OFFCURVE",
"544 20 OFFCURVE",
"360 20 CURVE SMOOTH"
);
},
{
closed = 1;
nodes = (
"386 862 LINE SMOOTH",
"400 870 OFFCURVE",
"408 881 OFFCURVE",
"408 892 CURVE SMOOTH",
"408 902 OFFCURVE",
"400 911 OFFCURVE",
"388 911 CURVE SMOOTH",
"374 911 OFFCURVE",
"362 901 OFFCURVE",
"355 895 CURVE SMOOTH",
"245 801 LINE",
"256 786 LINE"
);
},
{
closed = 1;
nodes = (
"519 862 LINE SMOOTH",
"533 870 OFFCURVE",
"540 881 OFFCURVE",
"540 892 CURVE SMOOTH",
"540 902 OFFCURVE",
"532 911 OFFCURVE",
"520 911 CURVE SMOOTH",
"506 911 OFFCURVE",
"495 901 OFFCURVE",
"487 895 CURVE",
"378 801 LINE",
"389 786 LINE"
);
}
);
width = 721;
}
);
leftKerningGroup = O;
note = Ohungarumlaut;
rightKerningGroup = O;
unicode = 0150;
},
{
glyphname = Omacron;
lastChange = "2015-10-12 07:30:32 +0000";
layers = (
{
layerId = "F37480E8-8A59-4A4C-8214-0802ED2944DD";
name = Light;
paths = (
{
closed = 1;
nodes = (
"564 -10 OFFCURVE",
"682 119 OFFCURVE",
"682 350 CURVE SMOOTH",
"682 580 OFFCURVE",
"564 710 OFFCURVE",
"361 710 CURVE SMOOTH",
"157 710 OFFCURVE",
"39 580 OFFCURVE",
"39 350 CURVE SMOOTH",
"39 119 OFFCURVE",
"157 -10 OFFCURVE",
"361 -10 CURVE SMOOTH"
);
},
{
closed = 1;
nodes = (
"178 20 OFFCURVE",
"92 155 OFFCURVE",
"92 350 CURVE SMOOTH",
"92 544 OFFCURVE",
"178 680 OFFCURVE",
"360 680 CURVE SMOOTH",
"544 680 OFFCURVE",
"629 544 OFFCURVE",
"629 350 CURVE SMOOTH",
"629 155 OFFCURVE",
"544 20 OFFCURVE",
"360 20 CURVE SMOOTH"
);
},
{
closed = 1;
nodes = (
"506 785 LINE",
"506 814 LINE",
"213 814 LINE",
"213 785 LINE"
);
}
);
width = 721;
}
);
leftKerningGroup = O;
note = Omacron;
rightKerningGroup = O;
unicode = 014C;
},
{
glyphname = Oslash;
lastChange = "2015-10-12 07:30:33 +0000";
layers = (
{
layerId = "F37480E8-8A59-4A4C-8214-0802ED2944DD";
name = Light;
paths = (
{
closed = 1;
nodes = (
"564 -10 OFFCURVE",
"682 119 OFFCURVE",
"682 350 CURVE SMOOTH",
"682 580 OFFCURVE",
"564 710 OFFCURVE",
"361 710 CURVE SMOOTH",
"157 710 OFFCURVE",
"39 580 OFFCURVE",
"39 350 CURVE SMOOTH",
"39 119 OFFCURVE",
"157 -10 OFFCURVE",
"361 -10 CURVE SMOOTH"
);
},
{
closed = 1;
nodes = (
"178 20 OFFCURVE",
"92 155 OFFCURVE",
"92 350 CURVE SMOOTH",
"92 544 OFFCURVE",
"178 680 OFFCURVE",
"360 680 CURVE SMOOTH",
"544 680 OFFCURVE",
"629 544 OFFCURVE",
"629 350 CURVE SMOOTH",
"629 155 OFFCURVE",
"544 20 OFFCURVE",
"360 20 CURVE SMOOTH"
);
},
{
closed = 1;
nodes = (
"646 705 LINE",
"614 723 LINE",
"67 4 LINE",
"98 -14 LINE"
);
}
);
width = 721;
}
);
leftKerningGroup = O;
note = Oslash;
rightKerningGroup = O;
unicode = 00D8;
},
{
glyphname = Oslashacute;
lastChange = "2015-10-12 07:30:33 +0000";
layers = (
{
layerId = "F37480E8-8A59-4A4C-8214-0802ED2944DD";
name = Light;
paths = (
{
closed = 1;
nodes = (
"564 -10 OFFCURVE",
"682 119 OFFCURVE",
"682 350 CURVE SMOOTH",
"682 580 OFFCURVE",
"564 710 OFFCURVE",
"361 710 CURVE SMOOTH",
"157 710 OFFCURVE",
"39 580 OFFCURVE",
"39 350 CURVE SMOOTH",
"39 119 OFFCURVE",
"157 -10 OFFCURVE",
"361 -10 CURVE SMOOTH"
);
},
{
closed = 1;
nodes = (
"178 20 OFFCURVE",
"92 155 OFFCURVE",
"92 350 CURVE SMOOTH",
"92 544 OFFCURVE",
"178 680 OFFCURVE",
"360 680 CURVE SMOOTH",
"544 680 OFFCURVE",
"629 544 OFFCURVE",
"629 350 CURVE SMOOTH",
"629 155 OFFCURVE",
"544 20 OFFCURVE",
"360 20 CURVE SMOOTH"
);
},
{
closed = 1;
nodes = (
"646 705 LINE",
"614 723 LINE",
"67 4 LINE",
"98 -14 LINE"
);
},
{
closed = 1;
nodes = (
"427 861 LINE SMOOTH",
"441 869 OFFCURVE",
"449 880 OFFCURVE",
"449 891 CURVE SMOOTH",
"449 902 OFFCURVE",
"441 910 OFFCURVE",
"429 910 CURVE SMOOTH",
"416 910 OFFCURVE",
"404 901 OFFCURVE",
"396 894 CURVE SMOOTH",
"286 801 LINE",
"297 786 LINE"
);
}
);
width = 721;
}
);
leftKerningGroup = O;
note = Oslashacute;
rightKerningGroup = O;
unicode = 01FE;
},
{
glyphname = Otilde;
lastChange = "2015-10-12 07:30:32 +0000";
layers = (
{
layerId = "F37480E8-8A59-4A4C-8214-0802ED2944DD";
name = Light;
paths = (
{
closed = 1;
nodes = (
"564 -10 OFFCURVE",
"682 119 OFFCURVE",
"682 350 CURVE SMOOTH",
"682 580 OFFCURVE",
"564 710 OFFCURVE",
"361 710 CURVE SMOOTH",
"157 710 OFFCURVE",
"39 580 OFFCURVE",
"39 350 CURVE SMOOTH",
"39 119 OFFCURVE",
"157 -10 OFFCURVE",
"361 -10 CURVE SMOOTH"
);
},
{
closed = 1;
nodes = (
"178 20 OFFCURVE",
"92 155 OFFCURVE",
"92 350 CURVE SMOOTH",
"92 544 OFFCURVE",
"178 680 OFFCURVE",
"360 680 CURVE SMOOTH",
"544 680 OFFCURVE",
"629 544 OFFCURVE",
"629 350 CURVE SMOOTH",
"629 155 OFFCURVE",
"544 20 OFFCURVE",
"360 20 CURVE SMOOTH"
);
},
{
closed = 1;
nodes = (
"239 822 OFFCURVE",
"258 845 OFFCURVE",
"288 845 CURVE SMOOTH",
"332 845 OFFCURVE",
"378 787 OFFCURVE",
"424 787 CURVE SMOOTH",
"470 787 OFFCURVE",
"498 821 OFFCURVE",
"508 875 CURVE",
"491 884 LINE",
"479 844 OFFCURVE",
"463 819 OFFCURVE",
"430 819 CURVE SMOOTH",
"388 819 OFFCURVE",
"339 876 OFFCURVE",
"293 876 CURVE SMOOTH",
"251 876 OFFCURVE",
"220 847 OFFCURVE",
"211 793 CURVE",
"228 784 LINE"
);
}
);
width = 721;
}
);
leftKerningGroup = O;
note = Otilde;
rightKerningGroup = O;
unicode = 00D5;
},
{
glyphname = OE;
lastChange = "2015-10-12 07:30:32 +0000";
layers = (
{
layerId = "F37480E8-8A59-4A4C-8214-0802ED2944DD";
name = Light;
paths = (
{
closed = 1;
nodes = (
"458 -10 OFFCURVE",
"535 22 OFFCURVE",
"588 81 CURVE",
"571 116 LINE",
"526 55 OFFCURVE",
"457 19 OFFCURVE",
"365 19 CURVE SMOOTH",
"182 19 OFFCURVE",
"92 155 OFFCURVE",
"92 350 CURVE SMOOTH",
"92 544 OFFCURVE",
"182 680 OFFCURVE",
"365 680 CURVE SMOOTH",
"456 680 OFFCURVE",
"525 644 OFFCURVE",
"570 584 CURVE",
"584 623 LINE",
"531 679 OFFCURVE",
"456 710 OFFCURVE",
"362 710 CURVE SMOOTH",
"162 710 OFFCURVE",
"39 580 OFFCURVE",
"39 350 CURVE SMOOTH",
"39 119 OFFCURVE",
"162 -10 OFFCURVE",
"362 -10 CURVE SMOOTH"
);
},
{
closed = 1;
nodes = (
"859 255 LINE",
"859 487 LINE",
"842 487 LINE",
"838 434 OFFCURVE",
"835 386 OFFCURVE",
"791 386 CURVE SMOOTH",
"595 386 LINE",
"595 356 LINE",
"791 356 LINE SMOOTH",
"835 356 OFFCURVE",
"838 308 OFFCURVE",
"842 255 CURVE"
);
},
{
closed = 1;
nodes = (
"945 0 LINE",
"960 170 LINE",
"943 170 LINE",
"938 123 OFFCURVE",
"921 29 OFFCURVE",
"861 29 CURVE SMOOTH",
"611 29 LINE",
"611 670 LINE",
"853 670 LINE SMOOTH",
"918 670 OFFCURVE",
"925 581 OFFCURVE",
"928 539 CURVE",
"945 539 LINE",
"945 700 LINE",
"557 700 LINE",
"557 0 LINE"
);
}
);
width = 999;
}
);
note = OE;
unicode = 0152;
},
{
glyphname = P;
lastChange = "2015-10-12 07:30:33 +0000";
layers = (
{
layerId = "F37480E8-8A59-4A4C-8214-0802ED2944DD";
name = Light;
paths = (
{
closed = 1;
nodes = (
"257 0 LINE",
"257 18 LINE",
"229 18 LINE SMOOTH",
"190 18 OFFCURVE",
"169 27 OFFCURVE",
"169 52 CURVE SMOOTH",
"169 278 LINE",
"342 278 LINE SMOOTH",
"491 278 OFFCURVE",
"546 367 OFFCURVE",
"546 489 CURVE SMOOTH",
"546 613 OFFCURVE",
"491 700 OFFCURVE",
"342 700 CURVE SMOOTH",
"27 700 LINE",
"27 681 LINE",
"55 681 LINE SMOOTH",
"94 681 OFFCURVE",
"115 672 OFFCURVE",
"115 647 CURVE SMOOTH",
"115 52 LINE SMOOTH",
"115 27 OFFCURVE",
"94 18 OFFCURVE",
"55 18 CURVE SMOOTH",
"27 18 LINE",
"27 0 LINE"
);
},
{
closed = 1;
nodes = (
"169 670 LINE",
"336 670 LINE SMOOTH",
"449 670 OFFCURVE",
"493 596 OFFCURVE",
"493 489 CURVE SMOOTH",
"493 383 OFFCURVE",
"449 308 OFFCURVE",
"336 308 CURVE SMOOTH",
"169 308 LINE"
);
}
);
width = 565;
}
);
note = P;
unicode = 0050;
},
{
glyphname = Thorn;
lastChange = "2015-10-12 07:30:33 +0000";
layers = (
{
layerId = "F37480E8-8A59-4A4C-8214-0802ED2944DD";
name = Light;
paths = (
{
closed = 1;
nodes = (
"257 0 LINE",
"257 18 LINE",
"229 18 LINE SMOOTH",
"190 18 OFFCURVE",
"169 27 OFFCURVE",
"169 52 CURVE SMOOTH",
"169 164 LINE",
"342 164 LINE SMOOTH",
"491 164 OFFCURVE",
"546 252 OFFCURVE",
"546 375 CURVE SMOOTH",
"546 499 OFFCURVE",
"491 585 OFFCURVE",
"342 585 CURVE SMOOTH",
"169 585 LINE",
"169 700 LINE",
"27 700 LINE",
"27 681 LINE",
"55 681 LINE SMOOTH",
"94 681 OFFCURVE",
"115 672 OFFCURVE",
"115 647 CURVE SMOOTH",
"115 52 LINE SMOOTH",
"115 27 OFFCURVE",
"94 18 OFFCURVE",
"55 18 CURVE SMOOTH",
"27 18 LINE",
"27 0 LINE"
);
},
{
closed = 1;
nodes = (
"169 556 LINE",
"336 556 LINE SMOOTH",
"449 556 OFFCURVE",
"493 482 OFFCURVE",
"493 375 CURVE SMOOTH",
"493 269 OFFCURVE",
"449 193 OFFCURVE",
"336 193 CURVE SMOOTH",
"169 193 LINE"
);
}
);
width = 565;
}
);
note = Thorn;
unicode = 00DE;
},
{
glyphname = Q;
lastChange = "2015-12-01 06:36:55 +0000";
layers = (
{
layerId = "F37480E8-8A59-4A4C-8214-0802ED2944DD";
name = Light;
paths = (
{
closed = 1;
nodes = (
"564 -10 OFFCURVE",
"682 119 OFFCURVE",
"682 350 CURVE SMOOTH",
"682 580 OFFCURVE",
"564 710 OFFCURVE",
"361 710 CURVE SMOOTH",
"157 710 OFFCURVE",
"39 580 OFFCURVE",
"39 350 CURVE SMOOTH",
"39 119 OFFCURVE",
"157 -10 OFFCURVE",
"361 -10 CURVE SMOOTH"
);
},
{
closed = 1;
nodes = (
"178 20 OFFCURVE",
"92 155 OFFCURVE",
"92 350 CURVE SMOOTH",
"92 544 OFFCURVE",
"178 680 OFFCURVE",
"360 680 CURVE SMOOTH",
"544 680 OFFCURVE",
"629 544 OFFCURVE",
"629 350 CURVE SMOOTH",
"629 155 OFFCURVE",
"544 20 OFFCURVE",
"360 20 CURVE SMOOTH"
);
},
{
closed = 1;
nodes = (
"627 -149 OFFCURVE",
"670 -98 OFFCURVE",
"680 -44 CURVE SMOOTH",
"681 -38 OFFCURVE",
"682 -30 OFFCURVE",
"682 -23 CURVE",
"663 -23 LINE",
"649 -74 OFFCURVE",
"611 -113 OFFCURVE",
"565 -113 CURVE SMOOTH",
"479 -113 OFFCURVE",
"396 -33 OFFCURVE",
"319 -33 CURVE SMOOTH",
"307 -33 LINE",
"329 -17 OFFCURVE",
"345 -9 OFFCURVE",
"365 -1 CURVE",
"365 3 LINE",
"325 3 LINE",
"266 -20 OFFCURVE",
"226 -50 OFFCURVE",
"190 -81 CURVE",
"198 -95 LINE",
"228 -74 OFFCURVE",
"266 -54 OFFCURVE",
"294 -54 CURVE SMOOTH",
"370 -54 OFFCURVE",
"443 -149 OFFCURVE",
"553 -149 CURVE SMOOTH"
);
}
);
width = 721;
}
);
leftKerningGroup = O;
note = Q;
rightKerningGroup = O;
unicode = 0051;
},
{
glyphname = R;
lastChange = "2015-12-01 06:36:58 +0000";
layers = (
{
layerId = "F37480E8-8A59-4A4C-8214-0802ED2944DD";
name = Light;
paths = (
{
closed = 1;
nodes = (
"257 0 LINE",
"257 18 LINE",
"229 18 LINE SMOOTH",
"190 18 OFFCURVE",
"169 27 OFFCURVE",
"169 52 CURVE SMOOTH",
"169 293 LINE",
"336 293 LINE SMOOTH",
"485 293 OFFCURVE",
"542 374 OFFCURVE",
"542 497 CURVE SMOOTH",
"542 620 OFFCURVE",
"485 700 OFFCURVE",
"336 700 CURVE SMOOTH",
"27 700 LINE",
"27 681 LINE",
"55 681 LINE SMOOTH",
"94 681 OFFCURVE",
"115 672 OFFCURVE",
"115 647 CURVE SMOOTH",
"115 52 LINE SMOOTH",
"115 27 OFFCURVE",
"94 18 OFFCURVE",
"55 18 CURVE SMOOTH",
"27 18 LINE",
"27 0 LINE"
);
},
{
closed = 1;
nodes = (
"169 670 LINE",
"330 670 LINE SMOOTH",
"443 670 OFFCURVE",
"490 604 OFFCURVE",
"490 497 CURVE SMOOTH",
"490 391 OFFCURVE",
"443 323 OFFCURVE",
"330 323 CURVE SMOOTH",
"169 323 LINE"
);
},
{
closed = 1;
nodes = (
"593 0 LINE",
"593 18 LINE",
"515 18 OFFCURVE",
"494 97 OFFCURVE",
"473 173 CURVE SMOOTH",
"458 229 OFFCURVE",
"443 285 OFFCURVE",
"398 305 CURVE",
"354 305 LINE",
"354 301 LINE",
"402 266 OFFCURVE",
"415 177 OFFCURVE",
"435 104 CURVE SMOOTH",
"452 44 OFFCURVE",
"484 0 OFFCURVE",
"539 0 CURVE SMOOTH"
);
}
);
width = 631;
}
);
note = R;
rightKerningGroup = R;
unicode = 0052;
},
{
glyphname = Racute;
lastChange = "2015-12-01 06:37:03 +0000";
layers = (
{
layerId = "F37480E8-8A59-4A4C-8214-0802ED2944DD";
name = Light;
paths = (
{
closed = 1;
nodes = (
"257 0 LINE",
"257 18 LINE",
"229 18 LINE SMOOTH",
"190 18 OFFCURVE",
"169 27 OFFCURVE",
"169 52 CURVE SMOOTH",
"169 293 LINE",
"336 293 LINE SMOOTH",
"485 293 OFFCURVE",
"542 374 OFFCURVE",
"542 497 CURVE SMOOTH",
"542 620 OFFCURVE",
"485 700 OFFCURVE",
"336 700 CURVE SMOOTH",
"27 700 LINE",
"27 681 LINE",
"55 681 LINE SMOOTH",
"94 681 OFFCURVE",
"115 672 OFFCURVE",
"115 647 CURVE SMOOTH",
"115 52 LINE SMOOTH",
"115 27 OFFCURVE",
"94 18 OFFCURVE",
"55 18 CURVE SMOOTH",
"27 18 LINE",
"27 0 LINE"
);
},
{
closed = 1;
nodes = (
"169 670 LINE",
"330 670 LINE SMOOTH",
"443 670 OFFCURVE",
"490 604 OFFCURVE",
"490 497 CURVE SMOOTH",
"490 391 OFFCURVE",
"443 323 OFFCURVE",
"330 323 CURVE SMOOTH",
"169 323 LINE"
);
},
{
closed = 1;
nodes = (
"593 0 LINE",
"593 18 LINE",
"515 18 OFFCURVE",
"494 97 OFFCURVE",
"473 173 CURVE SMOOTH",
"458 229 OFFCURVE",
"443 285 OFFCURVE",
"398 305 CURVE",
"354 305 LINE",
"354 301 LINE",
"402 266 OFFCURVE",
"415 177 OFFCURVE",
"435 104 CURVE SMOOTH",
"452 44 OFFCURVE",
"484 0 OFFCURVE",
"539 0 CURVE SMOOTH"
);
},
{
closed = 1;
nodes = (
"380 861 LINE SMOOTH",
"394 869 OFFCURVE",
"402 880 OFFCURVE",
"402 891 CURVE SMOOTH",
"402 902 OFFCURVE",
"394 910 OFFCURVE",
"382 910 CURVE SMOOTH",
"369 910 OFFCURVE",
"357 901 OFFCURVE",
"349 894 CURVE SMOOTH",
"239 801 LINE",
"250 786 LINE"
);
}
);
width = 631;
}
);
note = Racute;
rightKerningGroup = R;
unicode = 0154;
},
{
glyphname = Rcaron;
lastChange = "2015-12-01 06:37:13 +0000";
layers = (
{
layerId = "F37480E8-8A59-4A4C-8214-0802ED2944DD";
name = Light;
paths = (
{
closed = 1;
nodes = (
"257 0 LINE",
"257 18 LINE",
"229 18 LINE SMOOTH",
"190 18 OFFCURVE",
"169 27 OFFCURVE",
"169 52 CURVE SMOOTH",
"169 293 LINE",
"336 293 LINE SMOOTH",
"485 293 OFFCURVE",
"542 374 OFFCURVE",
"542 497 CURVE SMOOTH",
"542 620 OFFCURVE",
"485 700 OFFCURVE",
"336 700 CURVE SMOOTH",
"27 700 LINE",
"27 681 LINE",
"55 681 LINE SMOOTH",
"94 681 OFFCURVE",
"115 672 OFFCURVE",
"115 647 CURVE SMOOTH",
"115 52 LINE SMOOTH",
"115 27 OFFCURVE",
"94 18 OFFCURVE",
"55 18 CURVE SMOOTH",
"27 18 LINE",
"27 0 LINE"
);
},
{
closed = 1;
nodes = (
"169 670 LINE",
"330 670 LINE SMOOTH",
"443 670 OFFCURVE",
"490 604 OFFCURVE",
"490 497 CURVE SMOOTH",
"490 391 OFFCURVE",
"443 323 OFFCURVE",
"330 323 CURVE SMOOTH",
"169 323 LINE"
);
},
{
closed = 1;
nodes = (
"593 0 LINE",
"593 18 LINE",
"515 18 OFFCURVE",
"494 97 OFFCURVE",
"473 173 CURVE SMOOTH",
"458 229 OFFCURVE",
"443 285 OFFCURVE",
"398 305 CURVE",
"354 305 LINE",
"354 301 LINE",
"402 266 OFFCURVE",
"415 177 OFFCURVE",
"435 104 CURVE SMOOTH",
"452 44 OFFCURVE",
"484 0 OFFCURVE",
"539 0 CURVE SMOOTH"
);
},
{
closed = 1;
nodes = (
"337 785 LINE",
"446 892 LINE",
"430 910 LINE",
"336 831 LINE",
"330 827 OFFCURVE",
"325 824 OFFCURVE",
"321 824 CURVE SMOOTH",
"317 824 OFFCURVE",
"312 826 OFFCURVE",
"305 831 CURVE",
"211 910 LINE",
"195 892 LINE",
"304 785 LINE"
);
}
);
width = 631;
}
);
note = Rcaron;
rightKerningGroup = R;
unicode = 0158;
},
{
glyphname = Rcommaaccent;
lastChange = "2015-12-01 06:37:22 +0000";
layers = (
{
layerId = "F37480E8-8A59-4A4C-8214-0802ED2944DD";
name = Light;
paths = (
{
closed = 1;
nodes = (
"257 0 LINE",
"257 18 LINE",
"229 18 LINE SMOOTH",
"190 18 OFFCURVE",
"169 27 OFFCURVE",
"169 52 CURVE SMOOTH",
"169 293 LINE",
"336 293 LINE SMOOTH",
"485 293 OFFCURVE",
"542 374 OFFCURVE",
"542 497 CURVE SMOOTH",
"542 620 OFFCURVE",
"485 700 OFFCURVE",
"336 700 CURVE SMOOTH",
"27 700 LINE",
"27 681 LINE",
"55 681 LINE SMOOTH",
"94 681 OFFCURVE",
"115 672 OFFCURVE",
"115 647 CURVE SMOOTH",
"115 52 LINE SMOOTH",
"115 27 OFFCURVE",
"94 18 OFFCURVE",
"55 18 CURVE SMOOTH",
"27 18 LINE",
"27 0 LINE"
);
},
{
closed = 1;
nodes = (
"169 670 LINE",
"330 670 LINE SMOOTH",
"443 670 OFFCURVE",
"490 604 OFFCURVE",
"490 497 CURVE SMOOTH",
"490 391 OFFCURVE",
"443 323 OFFCURVE",
"330 323 CURVE SMOOTH",
"169 323 LINE"
);
},
{
closed = 1;
nodes = (
"335 -216 OFFCURVE",
"363 -166 OFFCURVE",
"363 -113 CURVE SMOOTH",
"363 -74 OFFCURVE",
"345 -63 OFFCURVE",
"326 -63 CURVE SMOOTH",
"305 -63 OFFCURVE",
"293 -77 OFFCURVE",
"293 -97 CURVE SMOOTH",
"293 -126 OFFCURVE",
"323 -128 OFFCURVE",
"323 -159 CURVE SMOOTH",
"323 -191 OFFCURVE",
"297 -220 OFFCURVE",
"274 -242 CURVE",
"285 -255 LINE"
);
},
{
closed = 1;
nodes = (
"593 0 LINE",
"593 18 LINE",
"515 18 OFFCURVE",
"494 97 OFFCURVE",
"473 173 CURVE SMOOTH",
"458 229 OFFCURVE",
"443 285 OFFCURVE",
"398 305 CURVE",
"354 305 LINE",
"354 301 LINE",
"402 266 OFFCURVE",
"415 177 OFFCURVE",
"435 104 CURVE SMOOTH",
"452 44 OFFCURVE",
"484 0 OFFCURVE",
"539 0 CURVE SMOOTH"
);
}
);
width = 631;
}
);
note = Rcommaaccent;
rightKerningGroup = R;
unicode = 0156;
},
{
glyphname = Rdotbelow;
lastChange = "2015-12-01 06:37:25 +0000";
layers = (
{
layerId = "F37480E8-8A59-4A4C-8214-0802ED2944DD";
name = Light;
paths = (
{
closed = 1;
nodes = (
"257 0 LINE",
"257 18 LINE",
"229 18 LINE SMOOTH",
"190 18 OFFCURVE",
"169 27 OFFCURVE",
"169 52 CURVE SMOOTH",
"169 293 LINE",
"336 293 LINE SMOOTH",
"485 293 OFFCURVE",
"542 374 OFFCURVE",
"542 497 CURVE SMOOTH",
"542 620 OFFCURVE",
"485 700 OFFCURVE",
"336 700 CURVE SMOOTH",
"27 700 LINE",
"27 681 LINE",
"55 681 LINE SMOOTH",
"94 681 OFFCURVE",
"115 672 OFFCURVE",
"115 647 CURVE SMOOTH",
"115 52 LINE SMOOTH",
"115 27 OFFCURVE",
"94 18 OFFCURVE",
"55 18 CURVE SMOOTH",
"27 18 LINE",
"27 0 LINE"
);
},
{
closed = 1;
nodes = (
"169 670 LINE",
"330 670 LINE SMOOTH",
"443 670 OFFCURVE",
"490 604 OFFCURVE",
"490 497 CURVE SMOOTH",
"490 391 OFFCURVE",
"443 323 OFFCURVE",
"330 323 CURVE SMOOTH",
"169 323 LINE"
);
},
{
closed = 1;
nodes = (
"357 -136 OFFCURVE",
"371 -122 OFFCURVE",
"371 -100 CURVE SMOOTH",
"371 -78 OFFCURVE",
"357 -64 OFFCURVE",
"336 -64 CURVE SMOOTH",
"316 -64 OFFCURVE",
"301 -78 OFFCURVE",
"301 -100 CURVE SMOOTH",
"301 -122 OFFCURVE",
"316 -136 OFFCURVE",
"336 -136 CURVE SMOOTH"
);
},
{
closed = 1;
nodes = (
"593 0 LINE",
"593 18 LINE",
"515 18 OFFCURVE",
"494 97 OFFCURVE",
"473 173 CURVE SMOOTH",
"458 229 OFFCURVE",
"443 285 OFFCURVE",
"398 305 CURVE",
"354 305 LINE",
"354 301 LINE",
"402 266 OFFCURVE",
"415 177 OFFCURVE",
"435 104 CURVE SMOOTH",
"452 44 OFFCURVE",
"484 0 OFFCURVE",
"539 0 CURVE SMOOTH"
);
}
);
width = 631;
}
);
note = Rdotbelow;
rightKerningGroup = R;
unicode = 1E5A;
},
{
glyphname = Rdotbelowmacron;
lastChange = "2015-12-01 06:37:29 +0000";
layers = (
{
layerId = "F37480E8-8A59-4A4C-8214-0802ED2944DD";
name = Light;
paths = (
{
closed = 1;
nodes = (
"257 0 LINE",
"257 18 LINE",
"229 18 LINE SMOOTH",
"190 18 OFFCURVE",
"169 27 OFFCURVE",
"169 52 CURVE SMOOTH",
"169 293 LINE",
"336 293 LINE SMOOTH",
"485 293 OFFCURVE",
"542 374 OFFCURVE",
"542 497 CURVE SMOOTH",
"542 620 OFFCURVE",
"485 700 OFFCURVE",
"336 700 CURVE SMOOTH",
"27 700 LINE",
"27 681 LINE",
"55 681 LINE SMOOTH",
"94 681 OFFCURVE",
"115 672 OFFCURVE",
"115 647 CURVE SMOOTH",
"115 52 LINE SMOOTH",
"115 27 OFFCURVE",
"94 18 OFFCURVE",
"55 18 CURVE SMOOTH",
"27 18 LINE",
"27 0 LINE"
);
},
{
closed = 1;
nodes = (
"169 670 LINE",
"330 670 LINE SMOOTH",
"443 670 OFFCURVE",
"490 604 OFFCURVE",
"490 497 CURVE SMOOTH",
"490 391 OFFCURVE",
"443 323 OFFCURVE",
"330 323 CURVE SMOOTH",
"169 323 LINE"
);
},
{
closed = 1;
nodes = (
"357 -136 OFFCURVE",
"371 -122 OFFCURVE",
"371 -100 CURVE SMOOTH",
"371 -78 OFFCURVE",
"357 -64 OFFCURVE",
"336 -64 CURVE SMOOTH",
"316 -64 OFFCURVE",
"301 -78 OFFCURVE",
"301 -100 CURVE SMOOTH",
"301 -122 OFFCURVE",
"316 -136 OFFCURVE",
"336 -136 CURVE SMOOTH"
);
},
{
closed = 1;
nodes = (
"593 0 LINE",
"593 18 LINE",
"515 18 OFFCURVE",
"494 97 OFFCURVE",
"473 173 CURVE SMOOTH",
"458 229 OFFCURVE",
"443 285 OFFCURVE",
"398 305 CURVE",
"354 305 LINE",
"354 301 LINE",
"402 266 OFFCURVE",
"415 177 OFFCURVE",
"435 104 CURVE SMOOTH",
"452 44 OFFCURVE",
"484 0 OFFCURVE",
"539 0 CURVE SMOOTH"
);
},
{
closed = 1;
nodes = (
"434 782 LINE",
"434 811 LINE",
"141 811 LINE",
"141 782 LINE"
);
}
);
width = 631;
}
);
note = Rdotbelowmacron;
rightKerningGroup = R;
unicode = 1E5C;
},
{
glyphname = Rlinebelow;
lastChange = "2015-12-01 06:37:32 +0000";
layers = (
{
layerId = "F37480E8-8A59-4A4C-8214-0802ED2944DD";
name = Light;
paths = (
{
closed = 1;
nodes = (
"257 0 LINE",
"257 18 LINE",
"229 18 LINE SMOOTH",
"190 18 OFFCURVE",
"169 27 OFFCURVE",
"169 52 CURVE SMOOTH",
"169 293 LINE",
"336 293 LINE SMOOTH",
"485 293 OFFCURVE",
"542 374 OFFCURVE",
"542 497 CURVE SMOOTH",
"542 620 OFFCURVE",
"485 700 OFFCURVE",
"336 700 CURVE SMOOTH",
"27 700 LINE",
"27 681 LINE",
"55 681 LINE SMOOTH",
"94 681 OFFCURVE",
"115 672 OFFCURVE",
"115 647 CURVE SMOOTH",
"115 52 LINE SMOOTH",
"115 27 OFFCURVE",
"94 18 OFFCURVE",
"55 18 CURVE SMOOTH",
"27 18 LINE",
"27 0 LINE"
);
},
{
closed = 1;
nodes = (
"169 670 LINE",
"330 670 LINE SMOOTH",
"443 670 OFFCURVE",
"490 604 OFFCURVE",
"490 497 CURVE SMOOTH",
"490 391 OFFCURVE",
"443 323 OFFCURVE",
"330 323 CURVE SMOOTH",
"169 323 LINE"
);
},
{
closed = 1;
nodes = (
"450 -102 LINE",
"450 -75 LINE",
"157 -75 LINE",
"157 -102 LINE"
);
},
{
closed = 1;
nodes = (
"593 0 LINE",
"593 18 LINE",
"515 18 OFFCURVE",
"494 97 OFFCURVE",
"473 173 CURVE SMOOTH",
"458 229 OFFCURVE",
"443 285 OFFCURVE",
"398 305 CURVE",
"354 305 LINE",
"354 301 LINE",
"402 266 OFFCURVE",
"415 177 OFFCURVE",
"435 104 CURVE SMOOTH",
"452 44 OFFCURVE",
"484 0 OFFCURVE",
"539 0 CURVE SMOOTH"
);
}
);
width = 631;
}
);
note = Rlinebelow;
rightKerningGroup = R;
unicode = 1E5E;
},
{
glyphname = S;
lastChange = "2015-10-12 07:30:31 +0000";
layers = (
{
layerId = "F37480E8-8A59-4A4C-8214-0802ED2944DD";
name = Light;
paths = (
{
closed = 1;
nodes = (
"409 -10 OFFCURVE",
"504 62 OFFCURVE",
"504 178 CURVE SMOOTH",
"504 405 OFFCURVE",
"109 378 OFFCURVE",
"109 557 CURVE SMOOTH",
"109 630 OFFCURVE",
"165 680 OFFCURVE",
"278 680 CURVE SMOOTH",
"378 680 OFFCURVE",
"447 617 OFFCURVE",
"456 527 CURVE",
"475 527 LINE",
"475 706 LINE",
"449 706 LINE",
"449 667 LINE SMOOTH",
"449 656 OFFCURVE",
"446 653 OFFCURVE",
"441 653 CURVE SMOOTH",
"439 653 OFFCURVE",
"436 655 OFFCURVE",
"432 658 CURVE SMOOTH",
"408 676 OFFCURVE",
"351 710 OFFCURVE",
"268 710 CURVE SMOOTH",
"146 710 OFFCURVE",
"56 658 OFFCURVE",
"56 553 CURVE SMOOTH",
"56 345 OFFCURVE",
"449 364 OFFCURVE",
"449 172 CURVE SMOOTH",
"449 78 OFFCURVE",
"377 19 OFFCURVE",
"266 19 CURVE SMOOTH",
"166 19 OFFCURVE",
"68 92 OFFCURVE",
"58 181 CURVE",
"39 181 LINE",
"39 2 LINE",
"65 2 LINE",
"65 46 LINE SMOOTH",
"65 59 OFFCURVE",
"69 65 OFFCURVE",
"74 65 CURVE SMOOTH",
"77 65 OFFCURVE",
"83 59 OFFCURVE",
"92 52 CURVE SMOOTH",
"126 25 OFFCURVE",
"188 -10 OFFCURVE",
"283 -10 CURVE SMOOTH"
);
}
);
width = 544;
}
);
leftKerningGroup = S;
note = S;
rightKerningGroup = S;
unicode = 0053;
},
{
glyphname = Sacute;
lastChange = "2015-10-12 07:30:33 +0000";
layers = (
{
layerId = "F37480E8-8A59-4A4C-8214-0802ED2944DD";
name = Light;
paths = (
{
closed = 1;
nodes = (
"409 -10 OFFCURVE",
"504 62 OFFCURVE",
"504 178 CURVE SMOOTH",
"504 405 OFFCURVE",
"109 378 OFFCURVE",
"109 557 CURVE SMOOTH",
"109 630 OFFCURVE",
"165 680 OFFCURVE",
"278 680 CURVE SMOOTH",
"378 680 OFFCURVE",
"447 617 OFFCURVE",
"456 527 CURVE",
"475 527 LINE",
"475 706 LINE",
"449 706 LINE",
"449 667 LINE SMOOTH",
"449 656 OFFCURVE",
"446 653 OFFCURVE",
"441 653 CURVE SMOOTH",
"439 653 OFFCURVE",
"436 655 OFFCURVE",
"432 658 CURVE SMOOTH",
"408 676 OFFCURVE",
"351 710 OFFCURVE",
"268 710 CURVE SMOOTH",
"146 710 OFFCURVE",
"56 658 OFFCURVE",
"56 553 CURVE SMOOTH",
"56 345 OFFCURVE",
"449 364 OFFCURVE",
"449 172 CURVE SMOOTH",
"449 78 OFFCURVE",
"377 19 OFFCURVE",
"266 19 CURVE SMOOTH",
"166 19 OFFCURVE",
"68 92 OFFCURVE",
"58 181 CURVE",
"39 181 LINE",
"39 2 LINE",
"65 2 LINE",
"65 46 LINE SMOOTH",
"65 59 OFFCURVE",
"69 65 OFFCURVE",
"74 65 CURVE SMOOTH",
"77 65 OFFCURVE",
"83 59 OFFCURVE",
"92 52 CURVE SMOOTH",
"126 25 OFFCURVE",
"188 -10 OFFCURVE",
"283 -10 CURVE SMOOTH"
);
},
{
closed = 1;
nodes = (
"331 861 LINE SMOOTH",
"345 869 OFFCURVE",
"353 880 OFFCURVE",
"353 891 CURVE SMOOTH",
"353 902 OFFCURVE",
"345 910 OFFCURVE",
"333 910 CURVE SMOOTH",
"320 910 OFFCURVE",
"308 901 OFFCURVE",
"300 894 CURVE SMOOTH",
"190 801 LINE",
"201 786 LINE"
);
}
);
width = 544;
}
);
leftKerningGroup = S;
note = Sacute;
rightKerningGroup = S;
unicode = 015A;
},
{
glyphname = Scaron;
lastChange = "2015-10-12 07:30:33 +0000";
layers = (
{
layerId = "F37480E8-8A59-4A4C-8214-0802ED2944DD";
name = Light;
paths = (
{
closed = 1;
nodes = (
"409 -10 OFFCURVE",
"504 62 OFFCURVE",
"504 178 CURVE SMOOTH",
"504 405 OFFCURVE",
"109 378 OFFCURVE",
"109 557 CURVE SMOOTH",
"109 630 OFFCURVE",
"165 680 OFFCURVE",
"278 680 CURVE SMOOTH",
"378 680 OFFCURVE",
"447 617 OFFCURVE",
"456 527 CURVE",
"475 527 LINE",
"475 706 LINE",
"449 706 LINE",
"449 667 LINE SMOOTH",
"449 656 OFFCURVE",
"446 653 OFFCURVE",
"441 653 CURVE SMOOTH",
"439 653 OFFCURVE",
"436 655 OFFCURVE",
"432 658 CURVE SMOOTH",
"408 676 OFFCURVE",
"351 710 OFFCURVE",
"268 710 CURVE SMOOTH",
"146 710 OFFCURVE",
"56 658 OFFCURVE",
"56 553 CURVE SMOOTH",
"56 345 OFFCURVE",
"449 364 OFFCURVE",
"449 172 CURVE SMOOTH",
"449 78 OFFCURVE",
"377 19 OFFCURVE",
"266 19 CURVE SMOOTH",
"166 19 OFFCURVE",
"68 92 OFFCURVE",
"58 181 CURVE",
"39 181 LINE",
"39 2 LINE",
"65 2 LINE",
"65 46 LINE SMOOTH",
"65 59 OFFCURVE",
"69 65 OFFCURVE",
"74 65 CURVE SMOOTH",
"77 65 OFFCURVE",
"83 59 OFFCURVE",
"92 52 CURVE SMOOTH",
"126 25 OFFCURVE",
"188 -10 OFFCURVE",
"283 -10 CURVE SMOOTH"
);
},
{
closed = 1;
nodes = (
"278 785 LINE",
"387 892 LINE",
"371 910 LINE",
"277 831 LINE",
"271 827 OFFCURVE",
"266 824 OFFCURVE",
"262 824 CURVE SMOOTH",
"258 824 OFFCURVE",
"253 826 OFFCURVE",
"246 831 CURVE",
"152 910 LINE",
"136 892 LINE",
"245 785 LINE"
);
}
);
width = 544;
}
);
leftKerningGroup = S;
note = Scaron;
rightKerningGroup = S;
unicode = 0160;
},
{
glyphname = Scedilla;
lastChange = "2015-10-12 07:30:33 +0000";
layers = (
{
layerId = "F37480E8-8A59-4A4C-8214-0802ED2944DD";
name = Light;
paths = (
{
closed = 1;
nodes = (
"409 -10 OFFCURVE",
"504 62 OFFCURVE",
"504 178 CURVE SMOOTH",
"504 405 OFFCURVE",
"109 378 OFFCURVE",
"109 557 CURVE SMOOTH",
"109 630 OFFCURVE",
"165 680 OFFCURVE",
"278 680 CURVE SMOOTH",
"378 680 OFFCURVE",
"447 617 OFFCURVE",
"456 527 CURVE",
"475 527 LINE",
"475 706 LINE",
"449 706 LINE",
"449 667 LINE SMOOTH",
"449 656 OFFCURVE",
"446 653 OFFCURVE",
"441 653 CURVE SMOOTH",
"439 653 OFFCURVE",
"436 655 OFFCURVE",
"432 658 CURVE SMOOTH",
"408 676 OFFCURVE",
"351 710 OFFCURVE",
"268 710 CURVE SMOOTH",
"146 710 OFFCURVE",
"56 658 OFFCURVE",
"56 553 CURVE SMOOTH",
"56 345 OFFCURVE",
"449 364 OFFCURVE",
"449 172 CURVE SMOOTH",
"449 78 OFFCURVE",
"377 19 OFFCURVE",
"266 19 CURVE SMOOTH",
"166 19 OFFCURVE",
"68 92 OFFCURVE",
"58 181 CURVE",
"39 181 LINE",
"39 2 LINE",
"65 2 LINE",
"65 46 LINE SMOOTH",
"65 59 OFFCURVE",
"69 65 OFFCURVE",
"74 65 CURVE SMOOTH",
"77 65 OFFCURVE",
"83 59 OFFCURVE",
"92 52 CURVE SMOOTH",
"126 25 OFFCURVE",
"188 -10 OFFCURVE",
"283 -10 CURVE SMOOTH"
);
},
{
closed = 1;
nodes = (
"288 -196 OFFCURVE",
"341 -177 OFFCURVE",
"341 -122 CURVE SMOOTH",
"341 -82 OFFCURVE",
"305 -65 OFFCURVE",
"267 -64 CURVE",
"260 -63 OFFCURVE",
"252 -63 OFFCURVE",
"246 -64 CURVE",
"278 4 LINE",
"245 4 LINE",
"205 -74 LINE",
"217 -89 LINE",
"227 -88 OFFCURVE",
"240 -88 OFFCURVE",
"254 -89 CURVE SMOOTH",
"278 -90 OFFCURVE",
"301 -98 OFFCURVE",
"301 -122 CURVE SMOOTH",
"301 -162 OFFCURVE",
"268 -171 OFFCURVE",
"222 -171 CURVE",
"211 -170 OFFCURVE",
"197 -170 OFFCURVE",
"186 -168 CURVE",
"178 -190 LINE",
"191 -193 OFFCURVE",
"206 -196 OFFCURVE",
"222 -196 CURVE SMOOTH"
);
}
);
width = 544;
}
);
leftKerningGroup = S;
note = Scedilla;
rightKerningGroup = S;
unicode = 015E;
},
{
glyphname = Scircumflex;
lastChange = "2015-10-12 07:30:33 +0000";
layers = (
{
layerId = "F37480E8-8A59-4A4C-8214-0802ED2944DD";
name = Light;
paths = (
{
closed = 1;
nodes = (
"409 -10 OFFCURVE",
"504 62 OFFCURVE",
"504 178 CURVE SMOOTH",
"504 405 OFFCURVE",
"109 378 OFFCURVE",
"109 557 CURVE SMOOTH",
"109 630 OFFCURVE",
"165 680 OFFCURVE",
"278 680 CURVE SMOOTH",
"378 680 OFFCURVE",
"447 617 OFFCURVE",
"456 527 CURVE",
"475 527 LINE",
"475 706 LINE",
"449 706 LINE",
"449 667 LINE SMOOTH",
"449 656 OFFCURVE",
"446 653 OFFCURVE",
"441 653 CURVE SMOOTH",
"439 653 OFFCURVE",
"436 655 OFFCURVE",
"432 658 CURVE SMOOTH",
"408 676 OFFCURVE",
"351 710 OFFCURVE",
"268 710 CURVE SMOOTH",
"146 710 OFFCURVE",
"56 658 OFFCURVE",
"56 553 CURVE SMOOTH",
"56 345 OFFCURVE",
"449 364 OFFCURVE",
"449 172 CURVE SMOOTH",
"449 78 OFFCURVE",
"377 19 OFFCURVE",
"266 19 CURVE SMOOTH",
"166 19 OFFCURVE",
"68 92 OFFCURVE",
"58 181 CURVE",
"39 181 LINE",
"39 2 LINE",
"65 2 LINE",
"65 46 LINE SMOOTH",
"65 59 OFFCURVE",
"69 65 OFFCURVE",
"74 65 CURVE SMOOTH",
"77 65 OFFCURVE",
"83 59 OFFCURVE",
"92 52 CURVE SMOOTH",
"126 25 OFFCURVE",
"188 -10 OFFCURVE",
"283 -10 CURVE SMOOTH"
);
},
{
closed = 1;
nodes = (
"246 864 LINE",
"252 868 OFFCURVE",
"258 871 OFFCURVE",
"262 871 CURVE SMOOTH",
"266 871 OFFCURVE",
"271 868 OFFCURVE",
"277 864 CURVE",
"371 785 LINE",
"387 803 LINE",
"278 910 LINE",
"245 910 LINE",
"136 803 LINE",
"152 785 LINE"
);
}
);
width = 544;
}
);
leftKerningGroup = S;
note = Scircumflex;
rightKerningGroup = S;
unicode = 015C;
},
{
glyphname = Scommaaccent;
lastChange = "2015-10-12 07:30:33 +0000";
layers = (
{
layerId = "F37480E8-8A59-4A4C-8214-0802ED2944DD";
name = Light;
paths = (
{
closed = 1;
nodes = (
"409 -10 OFFCURVE",
"504 62 OFFCURVE",
"504 178 CURVE SMOOTH",
"504 405 OFFCURVE",
"109 378 OFFCURVE",
"109 557 CURVE SMOOTH",
"109 630 OFFCURVE",
"165 680 OFFCURVE",
"278 680 CURVE SMOOTH",
"378 680 OFFCURVE",
"447 617 OFFCURVE",
"456 527 CURVE",
"475 527 LINE",
"475 706 LINE",
"449 706 LINE",
"449 667 LINE SMOOTH",
"449 656 OFFCURVE",
"446 653 OFFCURVE",
"441 653 CURVE SMOOTH",
"439 653 OFFCURVE",
"436 655 OFFCURVE",
"432 658 CURVE SMOOTH",
"408 676 OFFCURVE",
"351 710 OFFCURVE",
"268 710 CURVE SMOOTH",
"146 710 OFFCURVE",
"56 658 OFFCURVE",
"56 553 CURVE SMOOTH",
"56 345 OFFCURVE",
"449 364 OFFCURVE",
"449 172 CURVE SMOOTH",
"449 78 OFFCURVE",
"377 19 OFFCURVE",
"266 19 CURVE SMOOTH",
"166 19 OFFCURVE",
"68 92 OFFCURVE",
"58 181 CURVE",
"39 181 LINE",
"39 2 LINE",
"65 2 LINE",
"65 46 LINE SMOOTH",
"65 59 OFFCURVE",
"69 65 OFFCURVE",
"74 65 CURVE SMOOTH",
"77 65 OFFCURVE",
"83 59 OFFCURVE",
"92 52 CURVE SMOOTH",
"126 25 OFFCURVE",
"188 -10 OFFCURVE",
"283 -10 CURVE SMOOTH"
);
},
{
closed = 1;
nodes = (
"244 -211 OFFCURVE",
"273 -162 OFFCURVE",
"273 -109 CURVE SMOOTH",
"273 -70 OFFCURVE",
"255 -59 OFFCURVE",
"236 -59 CURVE SMOOTH",
"215 -59 OFFCURVE",
"203 -73 OFFCURVE",
"203 -93 CURVE SMOOTH",
"203 -122 OFFCURVE",
"233 -124 OFFCURVE",
"233 -154 CURVE SMOOTH",
"233 -186 OFFCURVE",
"207 -216 OFFCURVE",
"184 -238 CURVE",
"195 -250 LINE"
);
}
);
width = 544;
}
);
leftKerningGroup = S;
note = Scommaaccent;
rightKerningGroup = S;
unicode = 0218;
},
{
glyphname = Sdotaccent;
lastChange = "2015-10-12 07:30:33 +0000";
layers = (
{
layerId = "F37480E8-8A59-4A4C-8214-0802ED2944DD";
name = Light;
paths = (
{
closed = 1;
nodes = (
"409 -10 OFFCURVE",
"504 62 OFFCURVE",
"504 178 CURVE SMOOTH",
"504 405 OFFCURVE",
"109 378 OFFCURVE",
"109 557 CURVE SMOOTH",
"109 630 OFFCURVE",
"165 680 OFFCURVE",
"278 680 CURVE SMOOTH",
"378 680 OFFCURVE",
"447 617 OFFCURVE",
"456 527 CURVE",
"475 527 LINE",
"475 706 LINE",
"449 706 LINE",
"449 667 LINE SMOOTH",
"449 656 OFFCURVE",
"446 653 OFFCURVE",
"441 653 CURVE SMOOTH",
"439 653 OFFCURVE",
"436 655 OFFCURVE",
"432 658 CURVE SMOOTH",
"408 676 OFFCURVE",
"351 710 OFFCURVE",
"268 710 CURVE SMOOTH",
"146 710 OFFCURVE",
"56 658 OFFCURVE",
"56 553 CURVE SMOOTH",
"56 345 OFFCURVE",
"449 364 OFFCURVE",
"449 172 CURVE SMOOTH",
"449 78 OFFCURVE",
"377 19 OFFCURVE",
"266 19 CURVE SMOOTH",
"166 19 OFFCURVE",
"68 92 OFFCURVE",
"58 181 CURVE",
"39 181 LINE",
"39 2 LINE",
"65 2 LINE",
"65 46 LINE SMOOTH",
"65 59 OFFCURVE",
"69 65 OFFCURVE",
"74 65 CURVE SMOOTH",
"77 65 OFFCURVE",
"83 59 OFFCURVE",
"92 52 CURVE SMOOTH",
"126 25 OFFCURVE",
"188 -10 OFFCURVE",
"283 -10 CURVE SMOOTH"
);
},
{
closed = 1;
nodes = (
"293 785 OFFCURVE",
"307 798 OFFCURVE",
"307 820 CURVE SMOOTH",
"307 842 OFFCURVE",
"293 856 OFFCURVE",
"273 856 CURVE SMOOTH",
"252 856 OFFCURVE",
"238 842 OFFCURVE",
"238 820 CURVE SMOOTH",
"238 798 OFFCURVE",
"252 785 OFFCURVE",
"273 785 CURVE SMOOTH"
);
}
);
width = 544;
}
);
leftKerningGroup = S;
note = Sdotaccent;
rightKerningGroup = S;
unicode = 1E60;
},
{
glyphname = Sdotbelow;
lastChange = "2015-10-12 07:30:33 +0000";
layers = (
{
layerId = "F37480E8-8A59-4A4C-8214-0802ED2944DD";
name = Light;
paths = (
{
closed = 1;
nodes = (
"409 -10 OFFCURVE",
"504 62 OFFCURVE",
"504 178 CURVE SMOOTH",
"504 405 OFFCURVE",
"109 378 OFFCURVE",
"109 557 CURVE SMOOTH",
"109 630 OFFCURVE",
"165 680 OFFCURVE",
"278 680 CURVE SMOOTH",
"378 680 OFFCURVE",
"447 617 OFFCURVE",
"456 527 CURVE",
"475 527 LINE",
"475 706 LINE",
"449 706 LINE",
"449 667 LINE SMOOTH",
"449 656 OFFCURVE",
"446 653 OFFCURVE",
"441 653 CURVE SMOOTH",
"439 653 OFFCURVE",
"436 655 OFFCURVE",
"432 658 CURVE SMOOTH",
"408 676 OFFCURVE",
"351 710 OFFCURVE",
"268 710 CURVE SMOOTH",
"146 710 OFFCURVE",
"56 658 OFFCURVE",
"56 553 CURVE SMOOTH",
"56 345 OFFCURVE",
"449 364 OFFCURVE",
"449 172 CURVE SMOOTH",
"449 78 OFFCURVE",
"377 19 OFFCURVE",
"266 19 CURVE SMOOTH",
"166 19 OFFCURVE",
"68 92 OFFCURVE",
"58 181 CURVE",
"39 181 LINE",
"39 2 LINE",
"65 2 LINE",
"65 46 LINE SMOOTH",
"65 59 OFFCURVE",
"69 65 OFFCURVE",
"74 65 CURVE SMOOTH",
"77 65 OFFCURVE",
"83 59 OFFCURVE",
"92 52 CURVE SMOOTH",
"126 25 OFFCURVE",
"188 -10 OFFCURVE",
"283 -10 CURVE SMOOTH"
);
},
{
closed = 1;
nodes = (
"292 -136 OFFCURVE",
"306 -122 OFFCURVE",
"306 -100 CURVE SMOOTH",
"306 -78 OFFCURVE",
"292 -64 OFFCURVE",
"271 -64 CURVE SMOOTH",
"251 -64 OFFCURVE",
"236 -78 OFFCURVE",
"236 -100 CURVE SMOOTH",
"236 -122 OFFCURVE",
"251 -136 OFFCURVE",
"271 -136 CURVE SMOOTH"
);
}
);
width = 544;
}
);
leftKerningGroup = S;
note = Sdotbelow;
rightKerningGroup = S;
unicode = 1E62;
},
{
glyphname = Germandbls;
lastChange = "2015-10-12 07:30:32 +0000";
layers = (
{
layerId = "F37480E8-8A59-4A4C-8214-0802ED2944DD";
name = Light;
paths = (
{
closed = 1;
nodes = (
"566 -10 OFFCURVE",
"633 87 OFFCURVE",
"633 201 CURVE SMOOTH",
"633 314 OFFCURVE",
"546 387 OFFCURVE",
"401 395 CURVE",
"550 555 LINE",
"529 629 OFFCURVE",
"455 710 OFFCURVE",
"334 710 CURVE SMOOTH",
"171 710 OFFCURVE",
"90 611 OFFCURVE",
"90 462 CURVE SMOOTH",
"90 52 LINE SMOOTH",
"90 27 OFFCURVE",
"69 18 OFFCURVE",
"30 18 CURVE SMOOTH",
"3 18 LINE",
"3 0 LINE",
"223 0 LINE",
"223 14 LINE",
"203 18 LINE",
"165 18 OFFCURVE",
"144 31 OFFCURVE",
"144 56 CURVE SMOOTH",
"144 477 LINE SMOOTH",
"144 600 OFFCURVE",
"210 680 OFFCURVE",
"329 680 CURVE SMOOTH",
"419 680 OFFCURVE",
"475 625 OFFCURVE",
"501 559 CURVE",
"344 390 LINE",
"344 367 LINE",
"386 367 LINE SMOOTH",
"515 367 OFFCURVE",
"580 299 OFFCURVE",
"580 201 CURVE SMOOTH",
"580 92 OFFCURVE",
"515 17 OFFCURVE",
"398 17 CURVE SMOOTH",
"347 17 OFFCURVE",
"290 27 OFFCURVE",
"239 51 CURVE",
"239 20 LINE",
"283 0 OFFCURVE",
"338 -10 OFFCURVE",
"402 -10 CURVE SMOOTH"
);
}
);
width = 661;
}
);
note = uni1E9E;
unicode = 1E9E;
},
{
glyphname = Schwa;
lastChange = "2015-10-12 07:30:32 +0000";
layers = (
{
layerId = "F37480E8-8A59-4A4C-8214-0802ED2944DD";
name = Light;
paths = (
{
closed = 1;
nodes = (
"508 -10 OFFCURVE",
"628 114 OFFCURVE",
"628 344 CURVE SMOOTH",
"628 562 OFFCURVE",
"505 710 OFFCURVE",
"305 710 CURVE SMOOTH",
"162 710 OFFCURVE",
"62 630 OFFCURVE",
"46 523 CURVE",
"78 523 LINE",
"106 634 OFFCURVE",
"202 676 OFFCURVE",
"288 676 CURVE SMOOTH",
"488 676 OFFCURVE",
"573 521 OFFCURVE",
"573 337 CURVE SMOOTH",
"573 175 OFFCURVE",
"489 21 OFFCURVE",
"308 21 CURVE SMOOTH",
"146 21 OFFCURVE",
"90 174 OFFCURVE",
"88 299 CURVE",
"581 299 LINE",
"581 331 LINE",
"35 331 LINE",
"35 308 LINE SMOOTH",
"35 136 OFFCURVE",
"119 -10 OFFCURVE",
"312 -10 CURVE SMOOTH"
);
}
);
width = 664;
}
);
note = uni018F;
unicode = 018F;
},
{
glyphname = T;
lastChange = "2015-10-12 07:30:31 +0000";
layers = (
{
layerId = "F37480E8-8A59-4A4C-8214-0802ED2944DD";
name = Light;
paths = (
{
closed = 1;
nodes = (
"420 0 LINE",
"420 18 LINE",
"392 18 LINE SMOOTH",
"353 18 OFFCURVE",
"332 27 OFFCURVE",
"332 52 CURVE SMOOTH",
"332 670 LINE",
"476 670 LINE SMOOTH",
"537 670 OFFCURVE",
"545 575 OFFCURVE",
"547 533 CURVE",
"564 533 LINE",
"564 700 LINE",
"46 700 LINE",
"46 533 LINE",
"63 533 LINE",
"65 575 OFFCURVE",
"73 670 OFFCURVE",
"134 670 CURVE SMOOTH",
"278 670 LINE",
"278 52 LINE SMOOTH",
"278 27 OFFCURVE",
"257 18 OFFCURVE",
"218 18 CURVE SMOOTH",
"190 18 LINE",
"190 0 LINE"
);
}
);
width = 610;
}
);
leftKerningGroup = T;
note = T;
rightKerningGroup = T;
unicode = 0054;
},
{
glyphname = Tbar;
lastChange = "2015-10-12 07:30:33 +0000";
layers = (
{
layerId = "F37480E8-8A59-4A4C-8214-0802ED2944DD";
name = Light;
paths = (
{
closed = 1;
nodes = (
"420 0 LINE",
"420 18 LINE",
"392 18 LINE SMOOTH",
"353 18 OFFCURVE",
"332 27 OFFCURVE",
"332 52 CURVE SMOOTH",
"332 670 LINE",
"476 670 LINE SMOOTH",
"537 670 OFFCURVE",
"545 575 OFFCURVE",
"547 533 CURVE",
"564 533 LINE",
"564 700 LINE",
"46 700 LINE",
"46 533 LINE",
"63 533 LINE",
"65 575 OFFCURVE",
"73 670 OFFCURVE",
"134 670 CURVE SMOOTH",
"278 670 LINE",
"278 52 LINE SMOOTH",
"278 27 OFFCURVE",
"257 18 OFFCURVE",
"218 18 CURVE SMOOTH",
"190 18 LINE",
"190 0 LINE"
);
},
{
closed = 1;
nodes = (
"481 339 LINE",
"481 369 LINE",
"130 369 LINE",
"130 339 LINE"
);
}
);
width = 610;
}
);
leftKerningGroup = T;
note = Tbar;
rightKerningGroup = T;
unicode = 0166;
},
{
glyphname = Tcaron;
lastChange = "2015-10-12 07:30:32 +0000";
layers = (
{
layerId = "F37480E8-8A59-4A4C-8214-0802ED2944DD";
name = Light;
paths = (
{
closed = 1;
nodes = (
"420 0 LINE",
"420 18 LINE",
"392 18 LINE SMOOTH",
"353 18 OFFCURVE",
"332 27 OFFCURVE",
"332 52 CURVE SMOOTH",
"332 670 LINE",
"476 670 LINE SMOOTH",
"537 670 OFFCURVE",
"545 575 OFFCURVE",
"547 533 CURVE",
"564 533 LINE",
"564 700 LINE",
"46 700 LINE",
"46 533 LINE",
"63 533 LINE",
"65 575 OFFCURVE",
"73 670 OFFCURVE",
"134 670 CURVE SMOOTH",
"278 670 LINE",
"278 52 LINE SMOOTH",
"278 27 OFFCURVE",
"257 18 OFFCURVE",
"218 18 CURVE SMOOTH",
"190 18 LINE",
"190 0 LINE"
);
},
{
closed = 1;
nodes = (
"321 785 LINE",
"430 892 LINE",
"414 910 LINE",
"320 831 LINE",
"314 827 OFFCURVE",
"309 824 OFFCURVE",
"305 824 CURVE SMOOTH",
"301 824 OFFCURVE",
"296 826 OFFCURVE",
"289 831 CURVE",
"195 910 LINE",
"179 892 LINE",
"288 785 LINE"
);
}
);
width = 610;
}
);
leftKerningGroup = T;
note = Tcaron;
rightKerningGroup = T;
unicode = 0164;
},
